G75*
%MOIN*%
%OFA0B0*%
%FSLAX25Y25*%
%IPPOS*%
%LPD*%
%AMOC8*
5,1,8,0,0,1.08239X$1,22.5*
%
%ADD10C,0.03100*%
%ADD11C,0.00567*%
%ADD12C,0.00390*%
%ADD13C,0.00650*%
%ADD14C,0.00503*%
%ADD15C,0.00492*%
%ADD16C,0.00606*%
%ADD17C,0.00454*%
%ADD18C,0.03000*%
%ADD19C,0.04300*%
%ADD20C,0.04362*%
D10*
X0024350Y0009450D03*
X0038350Y0009450D03*
X0054350Y0090950D03*
X0007850Y0090950D03*
D11*
X0024333Y0023433D02*
X0025867Y0023433D01*
X0024333Y0023433D02*
X0024333Y0027467D01*
X0025867Y0027467D01*
X0025867Y0023433D01*
X0025867Y0023999D02*
X0024333Y0023999D01*
X0024333Y0024565D02*
X0025867Y0024565D01*
X0025867Y0025131D02*
X0024333Y0025131D01*
X0024333Y0025697D02*
X0025867Y0025697D01*
X0025867Y0026263D02*
X0024333Y0026263D01*
X0024333Y0026829D02*
X0025867Y0026829D01*
X0025867Y0027395D02*
X0024333Y0027395D01*
X0026833Y0023433D02*
X0028367Y0023433D01*
X0026833Y0023433D02*
X0026833Y0027467D01*
X0028367Y0027467D01*
X0028367Y0023433D01*
X0028367Y0023999D02*
X0026833Y0023999D01*
X0026833Y0024565D02*
X0028367Y0024565D01*
X0028367Y0025131D02*
X0026833Y0025131D01*
X0026833Y0025697D02*
X0028367Y0025697D01*
X0028367Y0026263D02*
X0026833Y0026263D01*
X0026833Y0026829D02*
X0028367Y0026829D01*
X0028367Y0027395D02*
X0026833Y0027395D01*
X0029333Y0023433D02*
X0030867Y0023433D01*
X0029333Y0023433D02*
X0029333Y0027467D01*
X0030867Y0027467D01*
X0030867Y0023433D01*
X0030867Y0023999D02*
X0029333Y0023999D01*
X0029333Y0024565D02*
X0030867Y0024565D01*
X0030867Y0025131D02*
X0029333Y0025131D01*
X0029333Y0025697D02*
X0030867Y0025697D01*
X0030867Y0026263D02*
X0029333Y0026263D01*
X0029333Y0026829D02*
X0030867Y0026829D01*
X0030867Y0027395D02*
X0029333Y0027395D01*
X0031833Y0023433D02*
X0033367Y0023433D01*
X0031833Y0023433D02*
X0031833Y0027467D01*
X0033367Y0027467D01*
X0033367Y0023433D01*
X0033367Y0023999D02*
X0031833Y0023999D01*
X0031833Y0024565D02*
X0033367Y0024565D01*
X0033367Y0025131D02*
X0031833Y0025131D01*
X0031833Y0025697D02*
X0033367Y0025697D01*
X0033367Y0026263D02*
X0031833Y0026263D01*
X0031833Y0026829D02*
X0033367Y0026829D01*
X0033367Y0027395D02*
X0031833Y0027395D01*
X0034333Y0023433D02*
X0035867Y0023433D01*
X0034333Y0023433D02*
X0034333Y0027467D01*
X0035867Y0027467D01*
X0035867Y0023433D01*
X0035867Y0023999D02*
X0034333Y0023999D01*
X0034333Y0024565D02*
X0035867Y0024565D01*
X0035867Y0025131D02*
X0034333Y0025131D01*
X0034333Y0025697D02*
X0035867Y0025697D01*
X0035867Y0026263D02*
X0034333Y0026263D01*
X0034333Y0026829D02*
X0035867Y0026829D01*
X0035867Y0027395D02*
X0034333Y0027395D01*
X0036833Y0023433D02*
X0038367Y0023433D01*
X0036833Y0023433D02*
X0036833Y0027467D01*
X0038367Y0027467D01*
X0038367Y0023433D01*
X0038367Y0023999D02*
X0036833Y0023999D01*
X0036833Y0024565D02*
X0038367Y0024565D01*
X0038367Y0025131D02*
X0036833Y0025131D01*
X0036833Y0025697D02*
X0038367Y0025697D01*
X0038367Y0026263D02*
X0036833Y0026263D01*
X0036833Y0026829D02*
X0038367Y0026829D01*
X0038367Y0027395D02*
X0036833Y0027395D01*
X0036833Y0019433D02*
X0038367Y0019433D01*
X0036833Y0019433D02*
X0036833Y0022467D01*
X0038367Y0022467D01*
X0038367Y0019433D01*
X0038367Y0019999D02*
X0036833Y0019999D01*
X0036833Y0020565D02*
X0038367Y0020565D01*
X0038367Y0021131D02*
X0036833Y0021131D01*
X0036833Y0021697D02*
X0038367Y0021697D01*
X0038367Y0022263D02*
X0036833Y0022263D01*
X0035867Y0019433D02*
X0034333Y0019433D01*
X0034333Y0022467D01*
X0035867Y0022467D01*
X0035867Y0019433D01*
X0035867Y0019999D02*
X0034333Y0019999D01*
X0034333Y0020565D02*
X0035867Y0020565D01*
X0035867Y0021131D02*
X0034333Y0021131D01*
X0034333Y0021697D02*
X0035867Y0021697D01*
X0035867Y0022263D02*
X0034333Y0022263D01*
X0033367Y0019433D02*
X0031833Y0019433D01*
X0031833Y0022467D01*
X0033367Y0022467D01*
X0033367Y0019433D01*
X0033367Y0019999D02*
X0031833Y0019999D01*
X0031833Y0020565D02*
X0033367Y0020565D01*
X0033367Y0021131D02*
X0031833Y0021131D01*
X0031833Y0021697D02*
X0033367Y0021697D01*
X0033367Y0022263D02*
X0031833Y0022263D01*
X0030867Y0019433D02*
X0029333Y0019433D01*
X0029333Y0022467D01*
X0030867Y0022467D01*
X0030867Y0019433D01*
X0030867Y0019999D02*
X0029333Y0019999D01*
X0029333Y0020565D02*
X0030867Y0020565D01*
X0030867Y0021131D02*
X0029333Y0021131D01*
X0029333Y0021697D02*
X0030867Y0021697D01*
X0030867Y0022263D02*
X0029333Y0022263D01*
X0028367Y0019433D02*
X0026833Y0019433D01*
X0026833Y0022467D01*
X0028367Y0022467D01*
X0028367Y0019433D01*
X0028367Y0019999D02*
X0026833Y0019999D01*
X0026833Y0020565D02*
X0028367Y0020565D01*
X0028367Y0021131D02*
X0026833Y0021131D01*
X0026833Y0021697D02*
X0028367Y0021697D01*
X0028367Y0022263D02*
X0026833Y0022263D01*
X0025867Y0019433D02*
X0024333Y0019433D01*
X0024333Y0022467D01*
X0025867Y0022467D01*
X0025867Y0019433D01*
X0025867Y0019999D02*
X0024333Y0019999D01*
X0024333Y0020565D02*
X0025867Y0020565D01*
X0025867Y0021131D02*
X0024333Y0021131D01*
X0024333Y0021697D02*
X0025867Y0021697D01*
X0025867Y0022263D02*
X0024333Y0022263D01*
D12*
X0021796Y0042396D02*
X0040904Y0042396D01*
X0021796Y0042396D02*
X0021796Y0061504D01*
X0040904Y0061504D01*
X0040904Y0042396D01*
X0040904Y0042785D02*
X0021796Y0042785D01*
X0021796Y0043174D02*
X0040904Y0043174D01*
X0040904Y0043563D02*
X0021796Y0043563D01*
X0021796Y0043952D02*
X0040904Y0043952D01*
X0040904Y0044341D02*
X0021796Y0044341D01*
X0021796Y0044730D02*
X0040904Y0044730D01*
X0040904Y0045119D02*
X0021796Y0045119D01*
X0021796Y0045508D02*
X0040904Y0045508D01*
X0040904Y0045897D02*
X0021796Y0045897D01*
X0021796Y0046286D02*
X0040904Y0046286D01*
X0040904Y0046675D02*
X0021796Y0046675D01*
X0021796Y0047064D02*
X0040904Y0047064D01*
X0040904Y0047453D02*
X0021796Y0047453D01*
X0021796Y0047842D02*
X0040904Y0047842D01*
X0040904Y0048231D02*
X0021796Y0048231D01*
X0021796Y0048620D02*
X0040904Y0048620D01*
X0040904Y0049009D02*
X0021796Y0049009D01*
X0021796Y0049398D02*
X0040904Y0049398D01*
X0040904Y0049787D02*
X0021796Y0049787D01*
X0021796Y0050176D02*
X0040904Y0050176D01*
X0040904Y0050565D02*
X0021796Y0050565D01*
X0021796Y0050954D02*
X0040904Y0050954D01*
X0040904Y0051343D02*
X0021796Y0051343D01*
X0021796Y0051732D02*
X0040904Y0051732D01*
X0040904Y0052121D02*
X0021796Y0052121D01*
X0021796Y0052510D02*
X0040904Y0052510D01*
X0040904Y0052899D02*
X0021796Y0052899D01*
X0021796Y0053288D02*
X0040904Y0053288D01*
X0040904Y0053677D02*
X0021796Y0053677D01*
X0021796Y0054066D02*
X0040904Y0054066D01*
X0040904Y0054455D02*
X0021796Y0054455D01*
X0021796Y0054844D02*
X0040904Y0054844D01*
X0040904Y0055233D02*
X0021796Y0055233D01*
X0021796Y0055622D02*
X0040904Y0055622D01*
X0040904Y0056011D02*
X0021796Y0056011D01*
X0021796Y0056400D02*
X0040904Y0056400D01*
X0040904Y0056789D02*
X0021796Y0056789D01*
X0021796Y0057178D02*
X0040904Y0057178D01*
X0040904Y0057567D02*
X0021796Y0057567D01*
X0021796Y0057956D02*
X0040904Y0057956D01*
X0040904Y0058345D02*
X0021796Y0058345D01*
X0021796Y0058734D02*
X0040904Y0058734D01*
X0040904Y0059123D02*
X0021796Y0059123D01*
X0021796Y0059512D02*
X0040904Y0059512D01*
X0040904Y0059901D02*
X0021796Y0059901D01*
X0021796Y0060290D02*
X0040904Y0060290D01*
X0040904Y0060679D02*
X0021796Y0060679D01*
X0021796Y0061068D02*
X0040904Y0061068D01*
X0040904Y0061457D02*
X0021796Y0061457D01*
D13*
X0022958Y0066149D02*
X0022958Y0069641D01*
X0022958Y0066149D02*
X0022024Y0066149D01*
X0022024Y0069641D01*
X0022958Y0069641D01*
X0022958Y0066798D02*
X0022024Y0066798D01*
X0022024Y0067447D02*
X0022958Y0067447D01*
X0022958Y0068096D02*
X0022024Y0068096D01*
X0022024Y0068745D02*
X0022958Y0068745D01*
X0022958Y0069394D02*
X0022024Y0069394D01*
X0020990Y0069641D02*
X0020990Y0066149D01*
X0020056Y0066149D01*
X0020056Y0069641D01*
X0020990Y0069641D01*
X0020990Y0066798D02*
X0020056Y0066798D01*
X0020056Y0067447D02*
X0020990Y0067447D01*
X0020990Y0068096D02*
X0020056Y0068096D01*
X0020056Y0068745D02*
X0020990Y0068745D01*
X0020990Y0069394D02*
X0020056Y0069394D01*
X0019021Y0069641D02*
X0019021Y0066149D01*
X0018087Y0066149D01*
X0018087Y0069641D01*
X0019021Y0069641D01*
X0019021Y0066798D02*
X0018087Y0066798D01*
X0018087Y0067447D02*
X0019021Y0067447D01*
X0019021Y0068096D02*
X0018087Y0068096D01*
X0018087Y0068745D02*
X0019021Y0068745D01*
X0019021Y0069394D02*
X0018087Y0069394D01*
X0017151Y0064278D02*
X0013659Y0064278D01*
X0013659Y0065212D01*
X0017151Y0065212D01*
X0017151Y0064278D01*
X0017151Y0064927D02*
X0013659Y0064927D01*
X0013659Y0062310D02*
X0017151Y0062310D01*
X0013659Y0062310D02*
X0013659Y0063244D01*
X0017151Y0063244D01*
X0017151Y0062310D01*
X0017151Y0062959D02*
X0013659Y0062959D01*
X0013659Y0060341D02*
X0017151Y0060341D01*
X0013659Y0060341D02*
X0013659Y0061275D01*
X0017151Y0061275D01*
X0017151Y0060341D01*
X0017151Y0060990D02*
X0013659Y0060990D01*
X0013659Y0058373D02*
X0017151Y0058373D01*
X0013659Y0058373D02*
X0013659Y0059307D01*
X0017151Y0059307D01*
X0017151Y0058373D01*
X0017151Y0059022D02*
X0013659Y0059022D01*
X0013659Y0056404D02*
X0017151Y0056404D01*
X0013659Y0056404D02*
X0013659Y0057338D01*
X0017151Y0057338D01*
X0017151Y0056404D01*
X0017151Y0057053D02*
X0013659Y0057053D01*
X0013659Y0054436D02*
X0017151Y0054436D01*
X0013659Y0054436D02*
X0013659Y0055370D01*
X0017151Y0055370D01*
X0017151Y0054436D01*
X0017151Y0055085D02*
X0013659Y0055085D01*
X0013659Y0052467D02*
X0017151Y0052467D01*
X0013659Y0052467D02*
X0013659Y0053401D01*
X0017151Y0053401D01*
X0017151Y0052467D01*
X0017151Y0053116D02*
X0013659Y0053116D01*
X0013659Y0050499D02*
X0017151Y0050499D01*
X0013659Y0050499D02*
X0013659Y0051433D01*
X0017151Y0051433D01*
X0017151Y0050499D01*
X0017151Y0051148D02*
X0013659Y0051148D01*
X0013659Y0048530D02*
X0017151Y0048530D01*
X0013659Y0048530D02*
X0013659Y0049464D01*
X0017151Y0049464D01*
X0017151Y0048530D01*
X0017151Y0049179D02*
X0013659Y0049179D01*
X0013659Y0046562D02*
X0017151Y0046562D01*
X0013659Y0046562D02*
X0013659Y0047496D01*
X0017151Y0047496D01*
X0017151Y0046562D01*
X0017151Y0047211D02*
X0013659Y0047211D01*
X0013659Y0044593D02*
X0017151Y0044593D01*
X0013659Y0044593D02*
X0013659Y0045527D01*
X0017151Y0045527D01*
X0017151Y0044593D01*
X0017151Y0045242D02*
X0013659Y0045242D01*
X0013659Y0042625D02*
X0017151Y0042625D01*
X0013659Y0042625D02*
X0013659Y0043559D01*
X0017151Y0043559D01*
X0017151Y0042625D01*
X0017151Y0043274D02*
X0013659Y0043274D01*
X0013659Y0040656D02*
X0017151Y0040656D01*
X0013659Y0040656D02*
X0013659Y0041590D01*
X0017151Y0041590D01*
X0017151Y0040656D01*
X0017151Y0041305D02*
X0013659Y0041305D01*
X0013659Y0038688D02*
X0017151Y0038688D01*
X0013659Y0038688D02*
X0013659Y0039622D01*
X0017151Y0039622D01*
X0017151Y0038688D01*
X0017151Y0039337D02*
X0013659Y0039337D01*
X0019021Y0037751D02*
X0019021Y0034259D01*
X0018087Y0034259D01*
X0018087Y0037751D01*
X0019021Y0037751D01*
X0019021Y0034908D02*
X0018087Y0034908D01*
X0018087Y0035557D02*
X0019021Y0035557D01*
X0019021Y0036206D02*
X0018087Y0036206D01*
X0018087Y0036855D02*
X0019021Y0036855D01*
X0019021Y0037504D02*
X0018087Y0037504D01*
X0020990Y0037751D02*
X0020990Y0034259D01*
X0020056Y0034259D01*
X0020056Y0037751D01*
X0020990Y0037751D01*
X0020990Y0034908D02*
X0020056Y0034908D01*
X0020056Y0035557D02*
X0020990Y0035557D01*
X0020990Y0036206D02*
X0020056Y0036206D01*
X0020056Y0036855D02*
X0020990Y0036855D01*
X0020990Y0037504D02*
X0020056Y0037504D01*
X0022958Y0037751D02*
X0022958Y0034259D01*
X0022024Y0034259D01*
X0022024Y0037751D01*
X0022958Y0037751D01*
X0022958Y0034908D02*
X0022024Y0034908D01*
X0022024Y0035557D02*
X0022958Y0035557D01*
X0022958Y0036206D02*
X0022024Y0036206D01*
X0022024Y0036855D02*
X0022958Y0036855D01*
X0022958Y0037504D02*
X0022024Y0037504D01*
X0024927Y0037751D02*
X0024927Y0034259D01*
X0023993Y0034259D01*
X0023993Y0037751D01*
X0024927Y0037751D01*
X0024927Y0034908D02*
X0023993Y0034908D01*
X0023993Y0035557D02*
X0024927Y0035557D01*
X0024927Y0036206D02*
X0023993Y0036206D01*
X0023993Y0036855D02*
X0024927Y0036855D01*
X0024927Y0037504D02*
X0023993Y0037504D01*
X0026895Y0037751D02*
X0026895Y0034259D01*
X0025961Y0034259D01*
X0025961Y0037751D01*
X0026895Y0037751D01*
X0026895Y0034908D02*
X0025961Y0034908D01*
X0025961Y0035557D02*
X0026895Y0035557D01*
X0026895Y0036206D02*
X0025961Y0036206D01*
X0025961Y0036855D02*
X0026895Y0036855D01*
X0026895Y0037504D02*
X0025961Y0037504D01*
X0028864Y0037751D02*
X0028864Y0034259D01*
X0027930Y0034259D01*
X0027930Y0037751D01*
X0028864Y0037751D01*
X0028864Y0034908D02*
X0027930Y0034908D01*
X0027930Y0035557D02*
X0028864Y0035557D01*
X0028864Y0036206D02*
X0027930Y0036206D01*
X0027930Y0036855D02*
X0028864Y0036855D01*
X0028864Y0037504D02*
X0027930Y0037504D01*
X0030832Y0037751D02*
X0030832Y0034259D01*
X0029898Y0034259D01*
X0029898Y0037751D01*
X0030832Y0037751D01*
X0030832Y0034908D02*
X0029898Y0034908D01*
X0029898Y0035557D02*
X0030832Y0035557D01*
X0030832Y0036206D02*
X0029898Y0036206D01*
X0029898Y0036855D02*
X0030832Y0036855D01*
X0030832Y0037504D02*
X0029898Y0037504D01*
X0032801Y0037751D02*
X0032801Y0034259D01*
X0031867Y0034259D01*
X0031867Y0037751D01*
X0032801Y0037751D01*
X0032801Y0034908D02*
X0031867Y0034908D01*
X0031867Y0035557D02*
X0032801Y0035557D01*
X0032801Y0036206D02*
X0031867Y0036206D01*
X0031867Y0036855D02*
X0032801Y0036855D01*
X0032801Y0037504D02*
X0031867Y0037504D01*
X0034769Y0037751D02*
X0034769Y0034259D01*
X0033835Y0034259D01*
X0033835Y0037751D01*
X0034769Y0037751D01*
X0034769Y0034908D02*
X0033835Y0034908D01*
X0033835Y0035557D02*
X0034769Y0035557D01*
X0034769Y0036206D02*
X0033835Y0036206D01*
X0033835Y0036855D02*
X0034769Y0036855D01*
X0034769Y0037504D02*
X0033835Y0037504D01*
X0036738Y0037751D02*
X0036738Y0034259D01*
X0035804Y0034259D01*
X0035804Y0037751D01*
X0036738Y0037751D01*
X0036738Y0034908D02*
X0035804Y0034908D01*
X0035804Y0035557D02*
X0036738Y0035557D01*
X0036738Y0036206D02*
X0035804Y0036206D01*
X0035804Y0036855D02*
X0036738Y0036855D01*
X0036738Y0037504D02*
X0035804Y0037504D01*
X0038706Y0037751D02*
X0038706Y0034259D01*
X0037772Y0034259D01*
X0037772Y0037751D01*
X0038706Y0037751D01*
X0038706Y0034908D02*
X0037772Y0034908D01*
X0037772Y0035557D02*
X0038706Y0035557D01*
X0038706Y0036206D02*
X0037772Y0036206D01*
X0037772Y0036855D02*
X0038706Y0036855D01*
X0038706Y0037504D02*
X0037772Y0037504D01*
X0040675Y0037751D02*
X0040675Y0034259D01*
X0039741Y0034259D01*
X0039741Y0037751D01*
X0040675Y0037751D01*
X0040675Y0034908D02*
X0039741Y0034908D01*
X0039741Y0035557D02*
X0040675Y0035557D01*
X0040675Y0036206D02*
X0039741Y0036206D01*
X0039741Y0036855D02*
X0040675Y0036855D01*
X0040675Y0037504D02*
X0039741Y0037504D01*
X0042643Y0037751D02*
X0042643Y0034259D01*
X0041709Y0034259D01*
X0041709Y0037751D01*
X0042643Y0037751D01*
X0042643Y0034908D02*
X0041709Y0034908D01*
X0041709Y0035557D02*
X0042643Y0035557D01*
X0042643Y0036206D02*
X0041709Y0036206D01*
X0041709Y0036855D02*
X0042643Y0036855D01*
X0042643Y0037504D02*
X0041709Y0037504D01*
X0044612Y0037751D02*
X0044612Y0034259D01*
X0043678Y0034259D01*
X0043678Y0037751D01*
X0044612Y0037751D01*
X0044612Y0034908D02*
X0043678Y0034908D01*
X0043678Y0035557D02*
X0044612Y0035557D01*
X0044612Y0036206D02*
X0043678Y0036206D01*
X0043678Y0036855D02*
X0044612Y0036855D01*
X0044612Y0037504D02*
X0043678Y0037504D01*
X0045548Y0038688D02*
X0049040Y0038688D01*
X0045548Y0038688D02*
X0045548Y0039622D01*
X0049040Y0039622D01*
X0049040Y0038688D01*
X0049040Y0039337D02*
X0045548Y0039337D01*
X0045548Y0040656D02*
X0049040Y0040656D01*
X0045548Y0040656D02*
X0045548Y0041590D01*
X0049040Y0041590D01*
X0049040Y0040656D01*
X0049040Y0041305D02*
X0045548Y0041305D01*
X0045548Y0042625D02*
X0049040Y0042625D01*
X0045548Y0042625D02*
X0045548Y0043559D01*
X0049040Y0043559D01*
X0049040Y0042625D01*
X0049040Y0043274D02*
X0045548Y0043274D01*
X0045548Y0044593D02*
X0049040Y0044593D01*
X0045548Y0044593D02*
X0045548Y0045527D01*
X0049040Y0045527D01*
X0049040Y0044593D01*
X0049040Y0045242D02*
X0045548Y0045242D01*
X0045548Y0046562D02*
X0049040Y0046562D01*
X0045548Y0046562D02*
X0045548Y0047496D01*
X0049040Y0047496D01*
X0049040Y0046562D01*
X0049040Y0047211D02*
X0045548Y0047211D01*
X0045548Y0048530D02*
X0049040Y0048530D01*
X0045548Y0048530D02*
X0045548Y0049464D01*
X0049040Y0049464D01*
X0049040Y0048530D01*
X0049040Y0049179D02*
X0045548Y0049179D01*
X0045548Y0050499D02*
X0049040Y0050499D01*
X0045548Y0050499D02*
X0045548Y0051433D01*
X0049040Y0051433D01*
X0049040Y0050499D01*
X0049040Y0051148D02*
X0045548Y0051148D01*
X0045548Y0052467D02*
X0049040Y0052467D01*
X0045548Y0052467D02*
X0045548Y0053401D01*
X0049040Y0053401D01*
X0049040Y0052467D01*
X0049040Y0053116D02*
X0045548Y0053116D01*
X0045548Y0054436D02*
X0049040Y0054436D01*
X0045548Y0054436D02*
X0045548Y0055370D01*
X0049040Y0055370D01*
X0049040Y0054436D01*
X0049040Y0055085D02*
X0045548Y0055085D01*
X0045548Y0056404D02*
X0049040Y0056404D01*
X0045548Y0056404D02*
X0045548Y0057338D01*
X0049040Y0057338D01*
X0049040Y0056404D01*
X0049040Y0057053D02*
X0045548Y0057053D01*
X0045548Y0058373D02*
X0049040Y0058373D01*
X0045548Y0058373D02*
X0045548Y0059307D01*
X0049040Y0059307D01*
X0049040Y0058373D01*
X0049040Y0059022D02*
X0045548Y0059022D01*
X0045548Y0060341D02*
X0049040Y0060341D01*
X0045548Y0060341D02*
X0045548Y0061275D01*
X0049040Y0061275D01*
X0049040Y0060341D01*
X0049040Y0060990D02*
X0045548Y0060990D01*
X0045548Y0062310D02*
X0049040Y0062310D01*
X0045548Y0062310D02*
X0045548Y0063244D01*
X0049040Y0063244D01*
X0049040Y0062310D01*
X0049040Y0062959D02*
X0045548Y0062959D01*
X0045548Y0064278D02*
X0049040Y0064278D01*
X0045548Y0064278D02*
X0045548Y0065212D01*
X0049040Y0065212D01*
X0049040Y0064278D01*
X0049040Y0064927D02*
X0045548Y0064927D01*
X0044612Y0066149D02*
X0044612Y0069641D01*
X0044612Y0066149D02*
X0043678Y0066149D01*
X0043678Y0069641D01*
X0044612Y0069641D01*
X0044612Y0066798D02*
X0043678Y0066798D01*
X0043678Y0067447D02*
X0044612Y0067447D01*
X0044612Y0068096D02*
X0043678Y0068096D01*
X0043678Y0068745D02*
X0044612Y0068745D01*
X0044612Y0069394D02*
X0043678Y0069394D01*
X0042643Y0069641D02*
X0042643Y0066149D01*
X0041709Y0066149D01*
X0041709Y0069641D01*
X0042643Y0069641D01*
X0042643Y0066798D02*
X0041709Y0066798D01*
X0041709Y0067447D02*
X0042643Y0067447D01*
X0042643Y0068096D02*
X0041709Y0068096D01*
X0041709Y0068745D02*
X0042643Y0068745D01*
X0042643Y0069394D02*
X0041709Y0069394D01*
X0040675Y0069641D02*
X0040675Y0066149D01*
X0039741Y0066149D01*
X0039741Y0069641D01*
X0040675Y0069641D01*
X0040675Y0066798D02*
X0039741Y0066798D01*
X0039741Y0067447D02*
X0040675Y0067447D01*
X0040675Y0068096D02*
X0039741Y0068096D01*
X0039741Y0068745D02*
X0040675Y0068745D01*
X0040675Y0069394D02*
X0039741Y0069394D01*
X0038706Y0069641D02*
X0038706Y0066149D01*
X0037772Y0066149D01*
X0037772Y0069641D01*
X0038706Y0069641D01*
X0038706Y0066798D02*
X0037772Y0066798D01*
X0037772Y0067447D02*
X0038706Y0067447D01*
X0038706Y0068096D02*
X0037772Y0068096D01*
X0037772Y0068745D02*
X0038706Y0068745D01*
X0038706Y0069394D02*
X0037772Y0069394D01*
X0036738Y0069641D02*
X0036738Y0066149D01*
X0035804Y0066149D01*
X0035804Y0069641D01*
X0036738Y0069641D01*
X0036738Y0066798D02*
X0035804Y0066798D01*
X0035804Y0067447D02*
X0036738Y0067447D01*
X0036738Y0068096D02*
X0035804Y0068096D01*
X0035804Y0068745D02*
X0036738Y0068745D01*
X0036738Y0069394D02*
X0035804Y0069394D01*
X0034769Y0069641D02*
X0034769Y0066149D01*
X0033835Y0066149D01*
X0033835Y0069641D01*
X0034769Y0069641D01*
X0034769Y0066798D02*
X0033835Y0066798D01*
X0033835Y0067447D02*
X0034769Y0067447D01*
X0034769Y0068096D02*
X0033835Y0068096D01*
X0033835Y0068745D02*
X0034769Y0068745D01*
X0034769Y0069394D02*
X0033835Y0069394D01*
X0032801Y0069641D02*
X0032801Y0066149D01*
X0031867Y0066149D01*
X0031867Y0069641D01*
X0032801Y0069641D01*
X0032801Y0066798D02*
X0031867Y0066798D01*
X0031867Y0067447D02*
X0032801Y0067447D01*
X0032801Y0068096D02*
X0031867Y0068096D01*
X0031867Y0068745D02*
X0032801Y0068745D01*
X0032801Y0069394D02*
X0031867Y0069394D01*
X0030832Y0069641D02*
X0030832Y0066149D01*
X0029898Y0066149D01*
X0029898Y0069641D01*
X0030832Y0069641D01*
X0030832Y0066798D02*
X0029898Y0066798D01*
X0029898Y0067447D02*
X0030832Y0067447D01*
X0030832Y0068096D02*
X0029898Y0068096D01*
X0029898Y0068745D02*
X0030832Y0068745D01*
X0030832Y0069394D02*
X0029898Y0069394D01*
X0028864Y0069641D02*
X0028864Y0066149D01*
X0027930Y0066149D01*
X0027930Y0069641D01*
X0028864Y0069641D01*
X0028864Y0066798D02*
X0027930Y0066798D01*
X0027930Y0067447D02*
X0028864Y0067447D01*
X0028864Y0068096D02*
X0027930Y0068096D01*
X0027930Y0068745D02*
X0028864Y0068745D01*
X0028864Y0069394D02*
X0027930Y0069394D01*
X0026895Y0069641D02*
X0026895Y0066149D01*
X0025961Y0066149D01*
X0025961Y0069641D01*
X0026895Y0069641D01*
X0026895Y0066798D02*
X0025961Y0066798D01*
X0025961Y0067447D02*
X0026895Y0067447D01*
X0026895Y0068096D02*
X0025961Y0068096D01*
X0025961Y0068745D02*
X0026895Y0068745D01*
X0026895Y0069394D02*
X0025961Y0069394D01*
X0024927Y0069641D02*
X0024927Y0066149D01*
X0023993Y0066149D01*
X0023993Y0069641D01*
X0024927Y0069641D01*
X0024927Y0066798D02*
X0023993Y0066798D01*
X0023993Y0067447D02*
X0024927Y0067447D01*
X0024927Y0068096D02*
X0023993Y0068096D01*
X0023993Y0068745D02*
X0024927Y0068745D01*
X0024927Y0069394D02*
X0023993Y0069394D01*
D14*
X0023670Y0028436D02*
X0023670Y0025582D01*
X0020030Y0025582D01*
X0020030Y0028436D01*
X0023670Y0028436D01*
X0023670Y0026084D02*
X0020030Y0026084D01*
X0020030Y0026586D02*
X0023670Y0026586D01*
X0023670Y0027088D02*
X0020030Y0027088D01*
X0020030Y0027590D02*
X0023670Y0027590D01*
X0023670Y0028092D02*
X0020030Y0028092D01*
X0023670Y0023318D02*
X0023670Y0020464D01*
X0020030Y0020464D01*
X0020030Y0023318D01*
X0023670Y0023318D01*
X0023670Y0020966D02*
X0020030Y0020966D01*
X0020030Y0021468D02*
X0023670Y0021468D01*
X0023670Y0021970D02*
X0020030Y0021970D01*
X0020030Y0022472D02*
X0023670Y0022472D01*
X0023670Y0022974D02*
X0020030Y0022974D01*
X0054670Y0034464D02*
X0054670Y0037318D01*
X0054670Y0034464D02*
X0051030Y0034464D01*
X0051030Y0037318D01*
X0054670Y0037318D01*
X0054670Y0034966D02*
X0051030Y0034966D01*
X0051030Y0035468D02*
X0054670Y0035468D01*
X0054670Y0035970D02*
X0051030Y0035970D01*
X0051030Y0036472D02*
X0054670Y0036472D01*
X0054670Y0036974D02*
X0051030Y0036974D01*
X0054670Y0039582D02*
X0054670Y0042436D01*
X0054670Y0039582D02*
X0051030Y0039582D01*
X0051030Y0042436D01*
X0054670Y0042436D01*
X0054670Y0040084D02*
X0051030Y0040084D01*
X0051030Y0040586D02*
X0054670Y0040586D01*
X0054670Y0041088D02*
X0051030Y0041088D01*
X0051030Y0041590D02*
X0054670Y0041590D01*
X0054670Y0042092D02*
X0051030Y0042092D01*
D15*
X0010860Y0024963D02*
X0010860Y0021213D01*
X0007840Y0021213D01*
X0007840Y0024963D01*
X0010860Y0024963D01*
X0010860Y0021704D02*
X0007840Y0021704D01*
X0007840Y0022195D02*
X0010860Y0022195D01*
X0010860Y0022686D02*
X0007840Y0022686D01*
X0007840Y0023177D02*
X0010860Y0023177D01*
X0010860Y0023668D02*
X0007840Y0023668D01*
X0007840Y0024159D02*
X0010860Y0024159D01*
X0010860Y0024650D02*
X0007840Y0024650D01*
X0010860Y0025937D02*
X0010860Y0029687D01*
X0010860Y0025937D02*
X0007840Y0025937D01*
X0007840Y0029687D01*
X0010860Y0029687D01*
X0010860Y0026428D02*
X0007840Y0026428D01*
X0007840Y0026919D02*
X0010860Y0026919D01*
X0010860Y0027410D02*
X0007840Y0027410D01*
X0007840Y0027901D02*
X0010860Y0027901D01*
X0010860Y0028392D02*
X0007840Y0028392D01*
X0007840Y0028883D02*
X0010860Y0028883D01*
X0010860Y0029374D02*
X0007840Y0029374D01*
X0015360Y0029687D02*
X0015360Y0025937D01*
X0012340Y0025937D01*
X0012340Y0029687D01*
X0015360Y0029687D01*
X0015360Y0026428D02*
X0012340Y0026428D01*
X0012340Y0026919D02*
X0015360Y0026919D01*
X0015360Y0027410D02*
X0012340Y0027410D01*
X0012340Y0027901D02*
X0015360Y0027901D01*
X0015360Y0028392D02*
X0012340Y0028392D01*
X0012340Y0028883D02*
X0015360Y0028883D01*
X0015360Y0029374D02*
X0012340Y0029374D01*
X0015360Y0024963D02*
X0015360Y0021213D01*
X0012340Y0021213D01*
X0012340Y0024963D01*
X0015360Y0024963D01*
X0015360Y0021704D02*
X0012340Y0021704D01*
X0012340Y0022195D02*
X0015360Y0022195D01*
X0015360Y0022686D02*
X0012340Y0022686D01*
X0012340Y0023177D02*
X0015360Y0023177D01*
X0015360Y0023668D02*
X0012340Y0023668D01*
X0012340Y0024159D02*
X0015360Y0024159D01*
X0015360Y0024650D02*
X0012340Y0024650D01*
X0041112Y0019940D02*
X0044862Y0019940D01*
X0041112Y0019940D02*
X0041112Y0022960D01*
X0044862Y0022960D01*
X0044862Y0019940D01*
X0044862Y0020431D02*
X0041112Y0020431D01*
X0041112Y0020922D02*
X0044862Y0020922D01*
X0044862Y0021413D02*
X0041112Y0021413D01*
X0041112Y0021904D02*
X0044862Y0021904D01*
X0044862Y0022395D02*
X0041112Y0022395D01*
X0041112Y0022886D02*
X0044862Y0022886D01*
X0048860Y0025213D02*
X0048860Y0028963D01*
X0048860Y0025213D02*
X0045840Y0025213D01*
X0045840Y0028963D01*
X0048860Y0028963D01*
X0048860Y0025704D02*
X0045840Y0025704D01*
X0045840Y0026195D02*
X0048860Y0026195D01*
X0048860Y0026686D02*
X0045840Y0026686D01*
X0045840Y0027177D02*
X0048860Y0027177D01*
X0048860Y0027668D02*
X0045840Y0027668D01*
X0045840Y0028159D02*
X0048860Y0028159D01*
X0048860Y0028650D02*
X0045840Y0028650D01*
X0048860Y0029937D02*
X0048860Y0033687D01*
X0048860Y0029937D02*
X0045840Y0029937D01*
X0045840Y0033687D01*
X0048860Y0033687D01*
X0048860Y0030428D02*
X0045840Y0030428D01*
X0045840Y0030919D02*
X0048860Y0030919D01*
X0048860Y0031410D02*
X0045840Y0031410D01*
X0045840Y0031901D02*
X0048860Y0031901D01*
X0048860Y0032392D02*
X0045840Y0032392D01*
X0045840Y0032883D02*
X0048860Y0032883D01*
X0048860Y0033374D02*
X0045840Y0033374D01*
X0045837Y0019940D02*
X0049587Y0019940D01*
X0045837Y0019940D02*
X0045837Y0022960D01*
X0049587Y0022960D01*
X0049587Y0019940D01*
X0049587Y0020431D02*
X0045837Y0020431D01*
X0045837Y0020922D02*
X0049587Y0020922D01*
X0049587Y0021413D02*
X0045837Y0021413D01*
X0045837Y0021904D02*
X0049587Y0021904D01*
X0049587Y0022395D02*
X0045837Y0022395D01*
X0045837Y0022886D02*
X0049587Y0022886D01*
D16*
X0050732Y0072036D02*
X0050732Y0075966D01*
X0050732Y0072036D02*
X0049558Y0072036D01*
X0049558Y0075966D01*
X0050732Y0075966D01*
X0050732Y0072641D02*
X0049558Y0072641D01*
X0049558Y0073246D02*
X0050732Y0073246D01*
X0050732Y0073851D02*
X0049558Y0073851D01*
X0049558Y0074456D02*
X0050732Y0074456D01*
X0050732Y0075061D02*
X0049558Y0075061D01*
X0049558Y0075666D02*
X0050732Y0075666D01*
X0048763Y0075966D02*
X0048763Y0072036D01*
X0047589Y0072036D01*
X0047589Y0075966D01*
X0048763Y0075966D01*
X0048763Y0072641D02*
X0047589Y0072641D01*
X0047589Y0073246D02*
X0048763Y0073246D01*
X0048763Y0073851D02*
X0047589Y0073851D01*
X0047589Y0074456D02*
X0048763Y0074456D01*
X0048763Y0075061D02*
X0047589Y0075061D01*
X0047589Y0075666D02*
X0048763Y0075666D01*
X0046795Y0075966D02*
X0046795Y0072036D01*
X0045621Y0072036D01*
X0045621Y0075966D01*
X0046795Y0075966D01*
X0046795Y0072641D02*
X0045621Y0072641D01*
X0045621Y0073246D02*
X0046795Y0073246D01*
X0046795Y0073851D02*
X0045621Y0073851D01*
X0045621Y0074456D02*
X0046795Y0074456D01*
X0046795Y0075061D02*
X0045621Y0075061D01*
X0045621Y0075666D02*
X0046795Y0075666D01*
X0044826Y0075966D02*
X0044826Y0072036D01*
X0043652Y0072036D01*
X0043652Y0075966D01*
X0044826Y0075966D01*
X0044826Y0072641D02*
X0043652Y0072641D01*
X0043652Y0073246D02*
X0044826Y0073246D01*
X0044826Y0073851D02*
X0043652Y0073851D01*
X0043652Y0074456D02*
X0044826Y0074456D01*
X0044826Y0075061D02*
X0043652Y0075061D01*
X0043652Y0075666D02*
X0044826Y0075666D01*
X0042858Y0075966D02*
X0042858Y0072036D01*
X0041684Y0072036D01*
X0041684Y0075966D01*
X0042858Y0075966D01*
X0042858Y0072641D02*
X0041684Y0072641D01*
X0041684Y0073246D02*
X0042858Y0073246D01*
X0042858Y0073851D02*
X0041684Y0073851D01*
X0041684Y0074456D02*
X0042858Y0074456D01*
X0042858Y0075061D02*
X0041684Y0075061D01*
X0041684Y0075666D02*
X0042858Y0075666D01*
X0040889Y0075966D02*
X0040889Y0072036D01*
X0039715Y0072036D01*
X0039715Y0075966D01*
X0040889Y0075966D01*
X0040889Y0072641D02*
X0039715Y0072641D01*
X0039715Y0073246D02*
X0040889Y0073246D01*
X0040889Y0073851D02*
X0039715Y0073851D01*
X0039715Y0074456D02*
X0040889Y0074456D01*
X0040889Y0075061D02*
X0039715Y0075061D01*
X0039715Y0075666D02*
X0040889Y0075666D01*
X0038921Y0075966D02*
X0038921Y0072036D01*
X0037747Y0072036D01*
X0037747Y0075966D01*
X0038921Y0075966D01*
X0038921Y0072641D02*
X0037747Y0072641D01*
X0037747Y0073246D02*
X0038921Y0073246D01*
X0038921Y0073851D02*
X0037747Y0073851D01*
X0037747Y0074456D02*
X0038921Y0074456D01*
X0038921Y0075061D02*
X0037747Y0075061D01*
X0037747Y0075666D02*
X0038921Y0075666D01*
X0036952Y0075966D02*
X0036952Y0072036D01*
X0035778Y0072036D01*
X0035778Y0075966D01*
X0036952Y0075966D01*
X0036952Y0072641D02*
X0035778Y0072641D01*
X0035778Y0073246D02*
X0036952Y0073246D01*
X0036952Y0073851D02*
X0035778Y0073851D01*
X0035778Y0074456D02*
X0036952Y0074456D01*
X0036952Y0075061D02*
X0035778Y0075061D01*
X0035778Y0075666D02*
X0036952Y0075666D01*
X0034984Y0075966D02*
X0034984Y0072036D01*
X0033810Y0072036D01*
X0033810Y0075966D01*
X0034984Y0075966D01*
X0034984Y0072641D02*
X0033810Y0072641D01*
X0033810Y0073246D02*
X0034984Y0073246D01*
X0034984Y0073851D02*
X0033810Y0073851D01*
X0033810Y0074456D02*
X0034984Y0074456D01*
X0034984Y0075061D02*
X0033810Y0075061D01*
X0033810Y0075666D02*
X0034984Y0075666D01*
X0033015Y0075966D02*
X0033015Y0072036D01*
X0031841Y0072036D01*
X0031841Y0075966D01*
X0033015Y0075966D01*
X0033015Y0072641D02*
X0031841Y0072641D01*
X0031841Y0073246D02*
X0033015Y0073246D01*
X0033015Y0073851D02*
X0031841Y0073851D01*
X0031841Y0074456D02*
X0033015Y0074456D01*
X0033015Y0075061D02*
X0031841Y0075061D01*
X0031841Y0075666D02*
X0033015Y0075666D01*
X0031047Y0075966D02*
X0031047Y0072036D01*
X0029873Y0072036D01*
X0029873Y0075966D01*
X0031047Y0075966D01*
X0031047Y0072641D02*
X0029873Y0072641D01*
X0029873Y0073246D02*
X0031047Y0073246D01*
X0031047Y0073851D02*
X0029873Y0073851D01*
X0029873Y0074456D02*
X0031047Y0074456D01*
X0031047Y0075061D02*
X0029873Y0075061D01*
X0029873Y0075666D02*
X0031047Y0075666D01*
X0029078Y0075966D02*
X0029078Y0072036D01*
X0027904Y0072036D01*
X0027904Y0075966D01*
X0029078Y0075966D01*
X0029078Y0072641D02*
X0027904Y0072641D01*
X0027904Y0073246D02*
X0029078Y0073246D01*
X0029078Y0073851D02*
X0027904Y0073851D01*
X0027904Y0074456D02*
X0029078Y0074456D01*
X0029078Y0075061D02*
X0027904Y0075061D01*
X0027904Y0075666D02*
X0029078Y0075666D01*
X0027110Y0075966D02*
X0027110Y0072036D01*
X0025936Y0072036D01*
X0025936Y0075966D01*
X0027110Y0075966D01*
X0027110Y0072641D02*
X0025936Y0072641D01*
X0025936Y0073246D02*
X0027110Y0073246D01*
X0027110Y0073851D02*
X0025936Y0073851D01*
X0025936Y0074456D02*
X0027110Y0074456D01*
X0027110Y0075061D02*
X0025936Y0075061D01*
X0025936Y0075666D02*
X0027110Y0075666D01*
X0025141Y0075966D02*
X0025141Y0072036D01*
X0023967Y0072036D01*
X0023967Y0075966D01*
X0025141Y0075966D01*
X0025141Y0072641D02*
X0023967Y0072641D01*
X0023967Y0073246D02*
X0025141Y0073246D01*
X0025141Y0073851D02*
X0023967Y0073851D01*
X0023967Y0074456D02*
X0025141Y0074456D01*
X0025141Y0075061D02*
X0023967Y0075061D01*
X0023967Y0075666D02*
X0025141Y0075666D01*
X0023173Y0075966D02*
X0023173Y0072036D01*
X0021999Y0072036D01*
X0021999Y0075966D01*
X0023173Y0075966D01*
X0023173Y0072641D02*
X0021999Y0072641D01*
X0021999Y0073246D02*
X0023173Y0073246D01*
X0023173Y0073851D02*
X0021999Y0073851D01*
X0021999Y0074456D02*
X0023173Y0074456D01*
X0023173Y0075061D02*
X0021999Y0075061D01*
X0021999Y0075666D02*
X0023173Y0075666D01*
X0021204Y0075966D02*
X0021204Y0072036D01*
X0020030Y0072036D01*
X0020030Y0075966D01*
X0021204Y0075966D01*
X0021204Y0072641D02*
X0020030Y0072641D01*
X0020030Y0073246D02*
X0021204Y0073246D01*
X0021204Y0073851D02*
X0020030Y0073851D01*
X0020030Y0074456D02*
X0021204Y0074456D01*
X0021204Y0075061D02*
X0020030Y0075061D01*
X0020030Y0075666D02*
X0021204Y0075666D01*
X0019236Y0075966D02*
X0019236Y0072036D01*
X0018062Y0072036D01*
X0018062Y0075966D01*
X0019236Y0075966D01*
X0019236Y0072641D02*
X0018062Y0072641D01*
X0018062Y0073246D02*
X0019236Y0073246D01*
X0019236Y0073851D02*
X0018062Y0073851D01*
X0018062Y0074456D02*
X0019236Y0074456D01*
X0019236Y0075061D02*
X0018062Y0075061D01*
X0018062Y0075666D02*
X0019236Y0075666D01*
X0017267Y0075966D02*
X0017267Y0072036D01*
X0016093Y0072036D01*
X0016093Y0075966D01*
X0017267Y0075966D01*
X0017267Y0072641D02*
X0016093Y0072641D01*
X0016093Y0073246D02*
X0017267Y0073246D01*
X0017267Y0073851D02*
X0016093Y0073851D01*
X0016093Y0074456D02*
X0017267Y0074456D01*
X0017267Y0075061D02*
X0016093Y0075061D01*
X0016093Y0075666D02*
X0017267Y0075666D01*
X0015299Y0075966D02*
X0015299Y0072036D01*
X0014125Y0072036D01*
X0014125Y0075966D01*
X0015299Y0075966D01*
X0015299Y0072641D02*
X0014125Y0072641D01*
X0014125Y0073246D02*
X0015299Y0073246D01*
X0015299Y0073851D02*
X0014125Y0073851D01*
X0014125Y0074456D02*
X0015299Y0074456D01*
X0015299Y0075061D02*
X0014125Y0075061D01*
X0014125Y0075666D02*
X0015299Y0075666D01*
X0013330Y0075966D02*
X0013330Y0072036D01*
X0012156Y0072036D01*
X0012156Y0075966D01*
X0013330Y0075966D01*
X0013330Y0072641D02*
X0012156Y0072641D01*
X0012156Y0073246D02*
X0013330Y0073246D01*
X0013330Y0073851D02*
X0012156Y0073851D01*
X0012156Y0074456D02*
X0013330Y0074456D01*
X0013330Y0075061D02*
X0012156Y0075061D01*
X0012156Y0075666D02*
X0013330Y0075666D01*
X0013330Y0087391D02*
X0013330Y0091321D01*
X0013330Y0087391D02*
X0012156Y0087391D01*
X0012156Y0091321D01*
X0013330Y0091321D01*
X0013330Y0087996D02*
X0012156Y0087996D01*
X0012156Y0088601D02*
X0013330Y0088601D01*
X0013330Y0089206D02*
X0012156Y0089206D01*
X0012156Y0089811D02*
X0013330Y0089811D01*
X0013330Y0090416D02*
X0012156Y0090416D01*
X0012156Y0091021D02*
X0013330Y0091021D01*
X0015299Y0091321D02*
X0015299Y0087391D01*
X0014125Y0087391D01*
X0014125Y0091321D01*
X0015299Y0091321D01*
X0015299Y0087996D02*
X0014125Y0087996D01*
X0014125Y0088601D02*
X0015299Y0088601D01*
X0015299Y0089206D02*
X0014125Y0089206D01*
X0014125Y0089811D02*
X0015299Y0089811D01*
X0015299Y0090416D02*
X0014125Y0090416D01*
X0014125Y0091021D02*
X0015299Y0091021D01*
X0017267Y0091321D02*
X0017267Y0087391D01*
X0016093Y0087391D01*
X0016093Y0091321D01*
X0017267Y0091321D01*
X0017267Y0087996D02*
X0016093Y0087996D01*
X0016093Y0088601D02*
X0017267Y0088601D01*
X0017267Y0089206D02*
X0016093Y0089206D01*
X0016093Y0089811D02*
X0017267Y0089811D01*
X0017267Y0090416D02*
X0016093Y0090416D01*
X0016093Y0091021D02*
X0017267Y0091021D01*
X0019236Y0091321D02*
X0019236Y0087391D01*
X0018062Y0087391D01*
X0018062Y0091321D01*
X0019236Y0091321D01*
X0019236Y0087996D02*
X0018062Y0087996D01*
X0018062Y0088601D02*
X0019236Y0088601D01*
X0019236Y0089206D02*
X0018062Y0089206D01*
X0018062Y0089811D02*
X0019236Y0089811D01*
X0019236Y0090416D02*
X0018062Y0090416D01*
X0018062Y0091021D02*
X0019236Y0091021D01*
X0021204Y0091321D02*
X0021204Y0087391D01*
X0020030Y0087391D01*
X0020030Y0091321D01*
X0021204Y0091321D01*
X0021204Y0087996D02*
X0020030Y0087996D01*
X0020030Y0088601D02*
X0021204Y0088601D01*
X0021204Y0089206D02*
X0020030Y0089206D01*
X0020030Y0089811D02*
X0021204Y0089811D01*
X0021204Y0090416D02*
X0020030Y0090416D01*
X0020030Y0091021D02*
X0021204Y0091021D01*
X0023173Y0091321D02*
X0023173Y0087391D01*
X0021999Y0087391D01*
X0021999Y0091321D01*
X0023173Y0091321D01*
X0023173Y0087996D02*
X0021999Y0087996D01*
X0021999Y0088601D02*
X0023173Y0088601D01*
X0023173Y0089206D02*
X0021999Y0089206D01*
X0021999Y0089811D02*
X0023173Y0089811D01*
X0023173Y0090416D02*
X0021999Y0090416D01*
X0021999Y0091021D02*
X0023173Y0091021D01*
X0025141Y0091321D02*
X0025141Y0087391D01*
X0023967Y0087391D01*
X0023967Y0091321D01*
X0025141Y0091321D01*
X0025141Y0087996D02*
X0023967Y0087996D01*
X0023967Y0088601D02*
X0025141Y0088601D01*
X0025141Y0089206D02*
X0023967Y0089206D01*
X0023967Y0089811D02*
X0025141Y0089811D01*
X0025141Y0090416D02*
X0023967Y0090416D01*
X0023967Y0091021D02*
X0025141Y0091021D01*
X0027110Y0091321D02*
X0027110Y0087391D01*
X0025936Y0087391D01*
X0025936Y0091321D01*
X0027110Y0091321D01*
X0027110Y0087996D02*
X0025936Y0087996D01*
X0025936Y0088601D02*
X0027110Y0088601D01*
X0027110Y0089206D02*
X0025936Y0089206D01*
X0025936Y0089811D02*
X0027110Y0089811D01*
X0027110Y0090416D02*
X0025936Y0090416D01*
X0025936Y0091021D02*
X0027110Y0091021D01*
X0029078Y0091321D02*
X0029078Y0087391D01*
X0027904Y0087391D01*
X0027904Y0091321D01*
X0029078Y0091321D01*
X0029078Y0087996D02*
X0027904Y0087996D01*
X0027904Y0088601D02*
X0029078Y0088601D01*
X0029078Y0089206D02*
X0027904Y0089206D01*
X0027904Y0089811D02*
X0029078Y0089811D01*
X0029078Y0090416D02*
X0027904Y0090416D01*
X0027904Y0091021D02*
X0029078Y0091021D01*
X0031047Y0091321D02*
X0031047Y0087391D01*
X0029873Y0087391D01*
X0029873Y0091321D01*
X0031047Y0091321D01*
X0031047Y0087996D02*
X0029873Y0087996D01*
X0029873Y0088601D02*
X0031047Y0088601D01*
X0031047Y0089206D02*
X0029873Y0089206D01*
X0029873Y0089811D02*
X0031047Y0089811D01*
X0031047Y0090416D02*
X0029873Y0090416D01*
X0029873Y0091021D02*
X0031047Y0091021D01*
X0033015Y0091321D02*
X0033015Y0087391D01*
X0031841Y0087391D01*
X0031841Y0091321D01*
X0033015Y0091321D01*
X0033015Y0087996D02*
X0031841Y0087996D01*
X0031841Y0088601D02*
X0033015Y0088601D01*
X0033015Y0089206D02*
X0031841Y0089206D01*
X0031841Y0089811D02*
X0033015Y0089811D01*
X0033015Y0090416D02*
X0031841Y0090416D01*
X0031841Y0091021D02*
X0033015Y0091021D01*
X0034984Y0091321D02*
X0034984Y0087391D01*
X0033810Y0087391D01*
X0033810Y0091321D01*
X0034984Y0091321D01*
X0034984Y0087996D02*
X0033810Y0087996D01*
X0033810Y0088601D02*
X0034984Y0088601D01*
X0034984Y0089206D02*
X0033810Y0089206D01*
X0033810Y0089811D02*
X0034984Y0089811D01*
X0034984Y0090416D02*
X0033810Y0090416D01*
X0033810Y0091021D02*
X0034984Y0091021D01*
X0036952Y0091321D02*
X0036952Y0087391D01*
X0035778Y0087391D01*
X0035778Y0091321D01*
X0036952Y0091321D01*
X0036952Y0087996D02*
X0035778Y0087996D01*
X0035778Y0088601D02*
X0036952Y0088601D01*
X0036952Y0089206D02*
X0035778Y0089206D01*
X0035778Y0089811D02*
X0036952Y0089811D01*
X0036952Y0090416D02*
X0035778Y0090416D01*
X0035778Y0091021D02*
X0036952Y0091021D01*
X0038921Y0091321D02*
X0038921Y0087391D01*
X0037747Y0087391D01*
X0037747Y0091321D01*
X0038921Y0091321D01*
X0038921Y0087996D02*
X0037747Y0087996D01*
X0037747Y0088601D02*
X0038921Y0088601D01*
X0038921Y0089206D02*
X0037747Y0089206D01*
X0037747Y0089811D02*
X0038921Y0089811D01*
X0038921Y0090416D02*
X0037747Y0090416D01*
X0037747Y0091021D02*
X0038921Y0091021D01*
X0040889Y0091321D02*
X0040889Y0087391D01*
X0039715Y0087391D01*
X0039715Y0091321D01*
X0040889Y0091321D01*
X0040889Y0087996D02*
X0039715Y0087996D01*
X0039715Y0088601D02*
X0040889Y0088601D01*
X0040889Y0089206D02*
X0039715Y0089206D01*
X0039715Y0089811D02*
X0040889Y0089811D01*
X0040889Y0090416D02*
X0039715Y0090416D01*
X0039715Y0091021D02*
X0040889Y0091021D01*
X0042858Y0091321D02*
X0042858Y0087391D01*
X0041684Y0087391D01*
X0041684Y0091321D01*
X0042858Y0091321D01*
X0042858Y0087996D02*
X0041684Y0087996D01*
X0041684Y0088601D02*
X0042858Y0088601D01*
X0042858Y0089206D02*
X0041684Y0089206D01*
X0041684Y0089811D02*
X0042858Y0089811D01*
X0042858Y0090416D02*
X0041684Y0090416D01*
X0041684Y0091021D02*
X0042858Y0091021D01*
X0044826Y0091321D02*
X0044826Y0087391D01*
X0043652Y0087391D01*
X0043652Y0091321D01*
X0044826Y0091321D01*
X0044826Y0087996D02*
X0043652Y0087996D01*
X0043652Y0088601D02*
X0044826Y0088601D01*
X0044826Y0089206D02*
X0043652Y0089206D01*
X0043652Y0089811D02*
X0044826Y0089811D01*
X0044826Y0090416D02*
X0043652Y0090416D01*
X0043652Y0091021D02*
X0044826Y0091021D01*
X0046795Y0091321D02*
X0046795Y0087391D01*
X0045621Y0087391D01*
X0045621Y0091321D01*
X0046795Y0091321D01*
X0046795Y0087996D02*
X0045621Y0087996D01*
X0045621Y0088601D02*
X0046795Y0088601D01*
X0046795Y0089206D02*
X0045621Y0089206D01*
X0045621Y0089811D02*
X0046795Y0089811D01*
X0046795Y0090416D02*
X0045621Y0090416D01*
X0045621Y0091021D02*
X0046795Y0091021D01*
X0048763Y0091321D02*
X0048763Y0087391D01*
X0047589Y0087391D01*
X0047589Y0091321D01*
X0048763Y0091321D01*
X0048763Y0087996D02*
X0047589Y0087996D01*
X0047589Y0088601D02*
X0048763Y0088601D01*
X0048763Y0089206D02*
X0047589Y0089206D01*
X0047589Y0089811D02*
X0048763Y0089811D01*
X0048763Y0090416D02*
X0047589Y0090416D01*
X0047589Y0091021D02*
X0048763Y0091021D01*
X0050732Y0091321D02*
X0050732Y0087391D01*
X0049558Y0087391D01*
X0049558Y0091321D01*
X0050732Y0091321D01*
X0050732Y0087996D02*
X0049558Y0087996D01*
X0049558Y0088601D02*
X0050732Y0088601D01*
X0050732Y0089206D02*
X0049558Y0089206D01*
X0049558Y0089811D02*
X0050732Y0089811D01*
X0050732Y0090416D02*
X0049558Y0090416D01*
X0049558Y0091021D02*
X0050732Y0091021D01*
D17*
X0057698Y0089428D02*
X0057698Y0085346D01*
X0052040Y0085346D01*
X0052040Y0089428D01*
X0057698Y0089428D01*
X0057698Y0085799D02*
X0052040Y0085799D01*
X0052040Y0086252D02*
X0057698Y0086252D01*
X0057698Y0086705D02*
X0052040Y0086705D01*
X0052040Y0087158D02*
X0057698Y0087158D01*
X0057698Y0087611D02*
X0052040Y0087611D01*
X0052040Y0088064D02*
X0057698Y0088064D01*
X0057698Y0088517D02*
X0052040Y0088517D01*
X0052040Y0088970D02*
X0057698Y0088970D01*
X0057698Y0089423D02*
X0052040Y0089423D01*
X0057698Y0078011D02*
X0057698Y0073929D01*
X0052040Y0073929D01*
X0052040Y0078011D01*
X0057698Y0078011D01*
X0057698Y0074382D02*
X0052040Y0074382D01*
X0052040Y0074835D02*
X0057698Y0074835D01*
X0057698Y0075288D02*
X0052040Y0075288D01*
X0052040Y0075741D02*
X0057698Y0075741D01*
X0057698Y0076194D02*
X0052040Y0076194D01*
X0052040Y0076647D02*
X0057698Y0076647D01*
X0057698Y0077100D02*
X0052040Y0077100D01*
X0052040Y0077553D02*
X0057698Y0077553D01*
X0057698Y0078006D02*
X0052040Y0078006D01*
X0010848Y0078011D02*
X0010848Y0073929D01*
X0005190Y0073929D01*
X0005190Y0078011D01*
X0010848Y0078011D01*
X0010848Y0074382D02*
X0005190Y0074382D01*
X0005190Y0074835D02*
X0010848Y0074835D01*
X0010848Y0075288D02*
X0005190Y0075288D01*
X0005190Y0075741D02*
X0010848Y0075741D01*
X0010848Y0076194D02*
X0005190Y0076194D01*
X0005190Y0076647D02*
X0010848Y0076647D01*
X0010848Y0077100D02*
X0005190Y0077100D01*
X0005190Y0077553D02*
X0010848Y0077553D01*
X0010848Y0078006D02*
X0005190Y0078006D01*
X0010848Y0085346D02*
X0010848Y0089428D01*
X0010848Y0085346D02*
X0005190Y0085346D01*
X0005190Y0089428D01*
X0010848Y0089428D01*
X0010848Y0085799D02*
X0005190Y0085799D01*
X0005190Y0086252D02*
X0010848Y0086252D01*
X0010848Y0086705D02*
X0005190Y0086705D01*
X0005190Y0087158D02*
X0010848Y0087158D01*
X0010848Y0087611D02*
X0005190Y0087611D01*
X0005190Y0088064D02*
X0010848Y0088064D01*
X0010848Y0088517D02*
X0005190Y0088517D01*
X0005190Y0088970D02*
X0010848Y0088970D01*
X0010848Y0089423D02*
X0005190Y0089423D01*
D18*
X0009350Y0082450D03*
X0011850Y0079950D03*
X0017350Y0078950D03*
X0017350Y0082950D03*
X0022350Y0082950D03*
X0022350Y0078950D03*
X0027350Y0078950D03*
X0027350Y0082950D03*
X0032350Y0082950D03*
X0032350Y0078950D03*
X0037350Y0078950D03*
X0037350Y0082950D03*
X0042350Y0082950D03*
X0042350Y0078950D03*
X0047350Y0078950D03*
X0047350Y0082950D03*
X0050850Y0082450D03*
X0055850Y0082950D03*
X0053850Y0068950D03*
X0050850Y0062950D03*
X0053850Y0060950D03*
X0050850Y0058950D03*
X0053850Y0056950D03*
X0050850Y0054950D03*
X0053850Y0052950D03*
X0050850Y0050950D03*
X0053850Y0048950D03*
X0051350Y0045950D03*
X0042350Y0041450D03*
X0036850Y0031950D03*
X0031850Y0032450D03*
X0031850Y0029450D03*
X0028850Y0030450D03*
X0025350Y0030450D03*
X0017350Y0017950D03*
X0027350Y0017450D03*
X0030850Y0017450D03*
X0034850Y0017450D03*
X0043350Y0026450D03*
X0052850Y0032450D03*
X0053850Y0019950D03*
X0012350Y0032950D03*
X0008850Y0032450D03*
X0008850Y0046950D03*
X0008850Y0050950D03*
X0008850Y0054950D03*
X0008850Y0058950D03*
X0009350Y0062950D03*
X0011850Y0060950D03*
X0011850Y0056950D03*
X0011850Y0052950D03*
X0011850Y0048950D03*
X0009350Y0067450D03*
D19*
X0044850Y0016950D03*
X0044850Y0011950D03*
D20*
X0049850Y0016950D03*
M02*
