G75*
%MOIN*%
%OFA0B0*%
%FSLAX25Y25*%
%IPPOS*%
%LPD*%
%AMOC8*
5,1,8,0,0,1.08239X$1,22.5*
%
%ADD10R,0.07677X0.07677*%
%ADD11C,0.00756*%
%ADD12C,0.00413*%
%ADD13C,0.00408*%
%ADD14C,0.02400*%
%ADD15C,0.00500*%
%ADD16C,0.03700*%
%ADD17C,0.03762*%
%ADD18C,0.00600*%
D10*
X0018850Y0039950D03*
D11*
X0017447Y0033784D02*
X0017447Y0032140D01*
X0017447Y0033784D02*
X0017891Y0033784D01*
X0017891Y0032140D01*
X0017447Y0032140D01*
X0017447Y0032895D02*
X0017891Y0032895D01*
X0017891Y0033650D02*
X0017447Y0033650D01*
X0014887Y0033784D02*
X0014887Y0032140D01*
X0014887Y0033784D02*
X0015331Y0033784D01*
X0015331Y0032140D01*
X0014887Y0032140D01*
X0014887Y0032895D02*
X0015331Y0032895D01*
X0015331Y0033650D02*
X0014887Y0033650D01*
X0012683Y0036235D02*
X0011039Y0036235D01*
X0012683Y0036235D02*
X0012683Y0035791D01*
X0011039Y0035791D01*
X0011039Y0036235D01*
X0011039Y0038794D02*
X0012683Y0038794D01*
X0012683Y0038350D01*
X0011039Y0038350D01*
X0011039Y0038794D01*
X0011039Y0041353D02*
X0012683Y0041353D01*
X0012683Y0040909D01*
X0011039Y0040909D01*
X0011039Y0041353D01*
X0011039Y0043912D02*
X0012683Y0043912D01*
X0012683Y0043468D01*
X0011039Y0043468D01*
X0011039Y0043912D01*
X0015135Y0046116D02*
X0015135Y0047760D01*
X0015135Y0046116D02*
X0014691Y0046116D01*
X0014691Y0047760D01*
X0015135Y0047760D01*
X0015135Y0046871D02*
X0014691Y0046871D01*
X0014691Y0047626D02*
X0015135Y0047626D01*
X0017694Y0047760D02*
X0017694Y0046116D01*
X0017250Y0046116D01*
X0017250Y0047760D01*
X0017694Y0047760D01*
X0017694Y0046871D02*
X0017250Y0046871D01*
X0017250Y0047626D02*
X0017694Y0047626D01*
X0020253Y0047760D02*
X0020253Y0046116D01*
X0019809Y0046116D01*
X0019809Y0047760D01*
X0020253Y0047760D01*
X0020253Y0046871D02*
X0019809Y0046871D01*
X0019809Y0047626D02*
X0020253Y0047626D01*
X0022812Y0047760D02*
X0022812Y0046116D01*
X0022368Y0046116D01*
X0022368Y0047760D01*
X0022812Y0047760D01*
X0022812Y0046871D02*
X0022368Y0046871D01*
X0022368Y0047626D02*
X0022812Y0047626D01*
X0025016Y0043665D02*
X0026660Y0043665D01*
X0025016Y0043665D02*
X0025016Y0044109D01*
X0026660Y0044109D01*
X0026660Y0043665D01*
X0026660Y0041106D02*
X0025016Y0041106D01*
X0025016Y0041550D01*
X0026660Y0041550D01*
X0026660Y0041106D01*
X0026660Y0038547D02*
X0025016Y0038547D01*
X0025016Y0038991D01*
X0026660Y0038991D01*
X0026660Y0038547D01*
X0026660Y0035988D02*
X0025016Y0035988D01*
X0025016Y0036432D01*
X0026660Y0036432D01*
X0026660Y0035988D01*
X0022565Y0033784D02*
X0022565Y0032140D01*
X0022565Y0033784D02*
X0023009Y0033784D01*
X0023009Y0032140D01*
X0022565Y0032140D01*
X0022565Y0032895D02*
X0023009Y0032895D01*
X0023009Y0033650D02*
X0022565Y0033650D01*
X0020006Y0033784D02*
X0020006Y0032140D01*
X0020006Y0033784D02*
X0020450Y0033784D01*
X0020450Y0032140D01*
X0020006Y0032140D01*
X0020006Y0032895D02*
X0020450Y0032895D01*
X0020450Y0033650D02*
X0020006Y0033650D01*
D12*
X0029915Y0027181D02*
X0029915Y0024837D01*
X0026785Y0024837D01*
X0026785Y0027181D01*
X0029915Y0027181D01*
X0029915Y0025249D02*
X0026785Y0025249D01*
X0026785Y0025661D02*
X0029915Y0025661D01*
X0029915Y0026073D02*
X0026785Y0026073D01*
X0026785Y0026485D02*
X0029915Y0026485D01*
X0029915Y0026897D02*
X0026785Y0026897D01*
X0029915Y0022063D02*
X0029915Y0019719D01*
X0026785Y0019719D01*
X0026785Y0022063D01*
X0029915Y0022063D01*
X0029915Y0020131D02*
X0026785Y0020131D01*
X0026785Y0020543D02*
X0029915Y0020543D01*
X0029915Y0020955D02*
X0026785Y0020955D01*
X0026785Y0021367D02*
X0029915Y0021367D01*
X0029915Y0021779D02*
X0026785Y0021779D01*
X0034415Y0022063D02*
X0034415Y0019719D01*
X0031285Y0019719D01*
X0031285Y0022063D01*
X0034415Y0022063D01*
X0034415Y0020131D02*
X0031285Y0020131D01*
X0031285Y0020543D02*
X0034415Y0020543D01*
X0034415Y0020955D02*
X0031285Y0020955D01*
X0031285Y0021367D02*
X0034415Y0021367D01*
X0034415Y0021779D02*
X0031285Y0021779D01*
X0034415Y0024837D02*
X0034415Y0027181D01*
X0034415Y0024837D02*
X0031285Y0024837D01*
X0031285Y0027181D01*
X0034415Y0027181D01*
X0034415Y0025249D02*
X0031285Y0025249D01*
X0031285Y0025661D02*
X0034415Y0025661D01*
X0034415Y0026073D02*
X0031285Y0026073D01*
X0031285Y0026485D02*
X0034415Y0026485D01*
X0034415Y0026897D02*
X0031285Y0026897D01*
X0054415Y0027837D02*
X0054415Y0030181D01*
X0054415Y0027837D02*
X0051285Y0027837D01*
X0051285Y0030181D01*
X0054415Y0030181D01*
X0054415Y0028249D02*
X0051285Y0028249D01*
X0051285Y0028661D02*
X0054415Y0028661D01*
X0054415Y0029073D02*
X0051285Y0029073D01*
X0051285Y0029485D02*
X0054415Y0029485D01*
X0054415Y0029897D02*
X0051285Y0029897D01*
X0054415Y0025063D02*
X0054415Y0022719D01*
X0051285Y0022719D01*
X0051285Y0025063D01*
X0054415Y0025063D01*
X0054415Y0023131D02*
X0051285Y0023131D01*
X0051285Y0023543D02*
X0054415Y0023543D01*
X0054415Y0023955D02*
X0051285Y0023955D01*
X0051285Y0024367D02*
X0054415Y0024367D01*
X0054415Y0024779D02*
X0051285Y0024779D01*
D13*
X0028598Y0039471D02*
X0028598Y0042705D01*
X0031102Y0042705D01*
X0031102Y0039471D01*
X0028598Y0039471D01*
X0028598Y0039878D02*
X0031102Y0039878D01*
X0031102Y0040285D02*
X0028598Y0040285D01*
X0028598Y0040692D02*
X0031102Y0040692D01*
X0031102Y0041099D02*
X0028598Y0041099D01*
X0028598Y0041506D02*
X0031102Y0041506D01*
X0031102Y0041913D02*
X0028598Y0041913D01*
X0028598Y0042320D02*
X0031102Y0042320D01*
X0028598Y0044195D02*
X0028598Y0047429D01*
X0031102Y0047429D01*
X0031102Y0044195D01*
X0028598Y0044195D01*
X0028598Y0044602D02*
X0031102Y0044602D01*
X0031102Y0045009D02*
X0028598Y0045009D01*
X0028598Y0045416D02*
X0031102Y0045416D01*
X0031102Y0045823D02*
X0028598Y0045823D01*
X0028598Y0046230D02*
X0031102Y0046230D01*
X0031102Y0046637D02*
X0028598Y0046637D01*
X0028598Y0047044D02*
X0031102Y0047044D01*
X0016598Y0030929D02*
X0016598Y0027695D01*
X0016598Y0030929D02*
X0019102Y0030929D01*
X0019102Y0027695D01*
X0016598Y0027695D01*
X0016598Y0028102D02*
X0019102Y0028102D01*
X0019102Y0028509D02*
X0016598Y0028509D01*
X0016598Y0028916D02*
X0019102Y0028916D01*
X0019102Y0029323D02*
X0016598Y0029323D01*
X0016598Y0029730D02*
X0019102Y0029730D01*
X0019102Y0030137D02*
X0016598Y0030137D01*
X0016598Y0030544D02*
X0019102Y0030544D01*
X0016598Y0026205D02*
X0016598Y0022971D01*
X0016598Y0026205D02*
X0019102Y0026205D01*
X0019102Y0022971D01*
X0016598Y0022971D01*
X0016598Y0023378D02*
X0019102Y0023378D01*
X0019102Y0023785D02*
X0016598Y0023785D01*
X0016598Y0024192D02*
X0019102Y0024192D01*
X0019102Y0024599D02*
X0016598Y0024599D01*
X0016598Y0025006D02*
X0019102Y0025006D01*
X0019102Y0025413D02*
X0016598Y0025413D01*
X0016598Y0025820D02*
X0019102Y0025820D01*
D14*
X0017350Y0017950D03*
X0025350Y0030450D03*
X0028850Y0030450D03*
X0031850Y0029450D03*
X0031850Y0032450D03*
X0036850Y0031950D03*
X0043350Y0026450D03*
X0034850Y0017450D03*
X0030850Y0017450D03*
X0027350Y0017450D03*
X0012350Y0032950D03*
X0008850Y0032450D03*
X0008850Y0046950D03*
X0008850Y0050950D03*
X0008850Y0054950D03*
X0008850Y0058950D03*
X0009350Y0062950D03*
X0011850Y0060950D03*
X0011850Y0056950D03*
X0011850Y0052950D03*
X0011850Y0048950D03*
X0009350Y0067450D03*
X0011850Y0079950D03*
X0009350Y0082450D03*
X0017350Y0082950D03*
X0017350Y0078950D03*
X0022350Y0078950D03*
X0022350Y0082950D03*
X0027350Y0082950D03*
X0027350Y0078950D03*
X0032350Y0078950D03*
X0032350Y0082950D03*
X0037350Y0082950D03*
X0037350Y0078950D03*
X0042350Y0078950D03*
X0042350Y0082950D03*
X0047350Y0082950D03*
X0047350Y0078950D03*
X0050850Y0082450D03*
X0055850Y0082950D03*
X0053850Y0068950D03*
X0050850Y0062950D03*
X0053850Y0060950D03*
X0050850Y0058950D03*
X0053850Y0056950D03*
X0050850Y0054950D03*
X0053850Y0052950D03*
X0050850Y0050950D03*
X0053850Y0048950D03*
X0051350Y0045950D03*
X0042350Y0041450D03*
X0052850Y0032450D03*
X0053850Y0019950D03*
D15*
X0055728Y0019950D01*
X0055786Y0020008D01*
X0055792Y0020008D01*
X0055850Y0019950D01*
X0055850Y0024129D01*
X0053088Y0024129D01*
X0052850Y0023891D01*
X0053907Y0020008D02*
X0053850Y0019950D01*
X0053907Y0020008D02*
X0055786Y0020008D01*
X0055850Y0024129D02*
X0055850Y0082950D01*
X0048850Y0089950D01*
X0010850Y0089950D01*
X0012350Y0085450D02*
X0009345Y0082445D01*
X0006850Y0079950D01*
X0006850Y0048950D01*
X0008850Y0046950D01*
X0008350Y0043450D02*
X0008350Y0033950D01*
X0008850Y0032450D01*
X0009350Y0034950D02*
X0012350Y0032950D01*
X0015350Y0032950D02*
X0015350Y0024450D01*
X0017350Y0024450D01*
X0017350Y0017950D01*
X0017350Y0023950D01*
X0017850Y0029450D02*
X0017850Y0032950D01*
X0022350Y0032950D01*
X0025350Y0030450D02*
X0025350Y0020950D01*
X0028291Y0020950D01*
X0028350Y0020891D01*
X0025350Y0019450D02*
X0027350Y0017450D01*
X0025350Y0019450D02*
X0025350Y0020950D01*
X0028409Y0025950D02*
X0028350Y0026009D01*
X0028409Y0025950D02*
X0028850Y0025950D01*
X0028850Y0026450D01*
X0028850Y0030450D01*
X0031850Y0029450D02*
X0031914Y0029386D01*
X0031914Y0029064D01*
X0031860Y0029389D01*
X0031860Y0026999D01*
X0032850Y0026009D01*
X0032187Y0026671D01*
X0032187Y0027423D01*
X0032350Y0026450D01*
X0032187Y0027423D02*
X0031914Y0029064D01*
X0031860Y0029389D02*
X0031850Y0029450D01*
X0031850Y0032450D02*
X0035850Y0029950D01*
X0035850Y0020950D01*
X0032850Y0020950D01*
X0032850Y0020891D01*
X0032850Y0020950D02*
X0032850Y0018450D01*
X0030850Y0017450D01*
X0034850Y0017450D02*
X0037350Y0018950D01*
X0037350Y0030450D01*
X0036850Y0031450D01*
X0036850Y0031950D01*
X0043350Y0026450D02*
X0044850Y0024950D01*
X0044850Y0016950D01*
X0044850Y0011950D02*
X0046850Y0010950D01*
X0052850Y0028950D02*
X0052850Y0032450D01*
X0051350Y0045950D02*
X0045350Y0045950D01*
X0043850Y0046950D01*
X0026850Y0046950D01*
X0024350Y0049450D01*
X0019850Y0049450D01*
X0018850Y0049450D01*
X0017350Y0047950D01*
X0017350Y0047060D01*
X0017472Y0046938D01*
X0019850Y0046950D02*
X0019850Y0049450D01*
X0015350Y0049450D02*
X0029850Y0063950D01*
X0029850Y0080450D01*
X0032350Y0082950D01*
X0032350Y0078950D02*
X0032273Y0078873D01*
X0032273Y0063527D01*
X0046850Y0048950D01*
X0053850Y0048950D01*
X0050850Y0050950D02*
X0047350Y0050950D01*
X0035850Y0062450D01*
X0035850Y0077450D01*
X0037350Y0078950D01*
X0039850Y0080450D02*
X0037350Y0082950D01*
X0039850Y0080450D02*
X0039850Y0065950D01*
X0039838Y0065939D01*
X0039838Y0061461D01*
X0048350Y0052950D01*
X0053850Y0052950D01*
X0050850Y0054950D02*
X0048850Y0054950D01*
X0042344Y0061456D01*
X0042344Y0064444D01*
X0042350Y0064450D01*
X0042350Y0078950D01*
X0044850Y0080450D02*
X0044850Y0061450D01*
X0049350Y0056950D01*
X0053850Y0056950D01*
X0050850Y0058950D02*
X0049850Y0058950D01*
X0047350Y0061450D01*
X0047350Y0078950D01*
X0049850Y0080450D02*
X0047350Y0082950D01*
X0049850Y0080450D02*
X0049850Y0064450D01*
X0050850Y0063450D01*
X0050850Y0062950D01*
X0053850Y0063950D02*
X0051350Y0066450D01*
X0051350Y0082450D01*
X0050850Y0082450D01*
X0053350Y0083950D02*
X0051850Y0085450D01*
X0012350Y0085450D01*
X0009350Y0082450D02*
X0009345Y0082445D01*
X0009314Y0082414D01*
X0011850Y0079950D02*
X0012350Y0078450D01*
X0012350Y0065950D01*
X0009350Y0062950D01*
X0011850Y0062450D02*
X0011850Y0060950D01*
X0011850Y0062450D02*
X0014850Y0065450D01*
X0014850Y0080450D01*
X0017350Y0082950D01*
X0019850Y0080450D02*
X0019850Y0063450D01*
X0018338Y0061938D01*
X0018350Y0061950D01*
X0018338Y0061938D02*
X0013350Y0056950D01*
X0011850Y0056950D01*
X0013350Y0054950D02*
X0022350Y0063950D01*
X0022350Y0078950D01*
X0024850Y0080450D02*
X0024850Y0063950D01*
X0013850Y0052950D01*
X0011850Y0052950D01*
X0013350Y0054950D02*
X0008850Y0054950D01*
X0008850Y0050950D02*
X0014350Y0050950D01*
X0026850Y0063450D01*
X0026850Y0078450D01*
X0027350Y0078950D01*
X0024850Y0080450D02*
X0027350Y0082950D01*
X0022350Y0082950D02*
X0019850Y0080450D01*
X0017350Y0078950D02*
X0016850Y0078450D01*
X0016850Y0062450D01*
X0013350Y0058950D01*
X0009850Y0058950D01*
X0012350Y0049450D02*
X0011850Y0048950D01*
X0012350Y0049450D02*
X0015350Y0049450D01*
X0011850Y0043450D02*
X0008350Y0043450D01*
X0009350Y0038450D02*
X0009350Y0034950D01*
X0009350Y0038450D02*
X0011850Y0038450D01*
X0044850Y0080450D02*
X0042350Y0082950D01*
X0053350Y0083950D02*
X0053350Y0069450D01*
X0053850Y0068950D01*
X0053850Y0063950D02*
X0053850Y0060950D01*
D16*
X0044850Y0016950D03*
X0044850Y0011950D03*
D17*
X0049850Y0016950D03*
D18*
X0015911Y0015853D02*
X0010627Y0015853D01*
X0009996Y0016452D02*
X0015312Y0016452D01*
X0015230Y0016534D02*
X0015933Y0015831D01*
X0016852Y0015450D01*
X0017847Y0015450D01*
X0018766Y0015831D01*
X0019469Y0016534D01*
X0019850Y0017453D01*
X0019850Y0018447D01*
X0019469Y0019366D01*
X0018900Y0019936D01*
X0018900Y0021467D01*
X0019725Y0021467D01*
X0020606Y0022348D01*
X0020606Y0026828D01*
X0020436Y0026998D01*
X0020504Y0027115D01*
X0020606Y0027497D01*
X0020606Y0029012D01*
X0018150Y0029012D01*
X0018150Y0029612D01*
X0020606Y0029612D01*
X0020606Y0030462D01*
X0020670Y0030462D01*
X0021097Y0030576D01*
X0021480Y0030797D01*
X0021507Y0030824D01*
X0021534Y0030797D01*
X0021917Y0030576D01*
X0022344Y0030462D01*
X0022787Y0030462D01*
X0022850Y0030462D01*
X0022850Y0029953D01*
X0023230Y0029034D01*
X0023800Y0028464D01*
X0023800Y0018808D01*
X0024708Y0017900D01*
X0024850Y0017758D01*
X0024850Y0016953D01*
X0025230Y0016034D01*
X0025933Y0015331D01*
X0026852Y0014950D01*
X0027847Y0014950D01*
X0028766Y0015331D01*
X0029100Y0015664D01*
X0029433Y0015331D01*
X0030352Y0014950D01*
X0031347Y0014950D01*
X0032266Y0015331D01*
X0032850Y0015914D01*
X0033433Y0015331D01*
X0034352Y0014950D01*
X0035347Y0014950D01*
X0036266Y0015331D01*
X0036969Y0016034D01*
X0037350Y0016953D01*
X0037350Y0017142D01*
X0037779Y0017400D01*
X0037992Y0017400D01*
X0038311Y0017719D01*
X0038698Y0017951D01*
X0038749Y0018158D01*
X0038900Y0018308D01*
X0038900Y0018759D01*
X0039009Y0019197D01*
X0038900Y0019379D01*
X0038900Y0030198D01*
X0039023Y0030569D01*
X0039001Y0030612D01*
X0039350Y0031453D01*
X0039350Y0032447D01*
X0038969Y0033366D01*
X0038266Y0034069D01*
X0037347Y0034450D01*
X0036352Y0034450D01*
X0035433Y0034069D01*
X0034730Y0033366D01*
X0034438Y0032660D01*
X0034350Y0032715D01*
X0034350Y0032947D01*
X0033969Y0033866D01*
X0033266Y0034569D01*
X0032347Y0034950D01*
X0031352Y0034950D01*
X0030433Y0034569D01*
X0029730Y0033866D01*
X0029350Y0032949D01*
X0029347Y0032950D01*
X0028352Y0032950D01*
X0027433Y0032569D01*
X0027100Y0032236D01*
X0026766Y0032569D01*
X0025847Y0032950D01*
X0024852Y0032950D01*
X0024687Y0032881D01*
X0024687Y0032962D01*
X0024687Y0034005D01*
X0024605Y0034310D01*
X0027355Y0034310D01*
X0028338Y0035293D01*
X0028338Y0037127D01*
X0027975Y0037489D01*
X0028003Y0037517D01*
X0028223Y0037899D01*
X0028252Y0038006D01*
X0028399Y0037967D01*
X0029550Y0037967D01*
X0029550Y0040788D01*
X0030150Y0040788D01*
X0030150Y0041388D01*
X0032606Y0041388D01*
X0032606Y0042903D01*
X0032504Y0043285D01*
X0032436Y0043402D01*
X0032606Y0043572D01*
X0032606Y0045400D01*
X0043380Y0045400D01*
X0044362Y0044745D01*
X0044708Y0044400D01*
X0044880Y0044400D01*
X0045024Y0044304D01*
X0045503Y0044400D01*
X0049364Y0044400D01*
X0049933Y0043831D01*
X0050852Y0043450D01*
X0051847Y0043450D01*
X0052766Y0043831D01*
X0053469Y0044534D01*
X0053850Y0045453D01*
X0053850Y0046447D01*
X0053848Y0046450D01*
X0054347Y0046450D01*
X0055266Y0046831D01*
X0055969Y0047534D01*
X0056350Y0048453D01*
X0056350Y0049447D01*
X0055969Y0050366D01*
X0055385Y0050950D01*
X0055969Y0051534D01*
X0056350Y0052453D01*
X0056350Y0053447D01*
X0055969Y0054366D01*
X0055385Y0054950D01*
X0055969Y0055534D01*
X0056350Y0056453D01*
X0056350Y0057447D01*
X0055969Y0058366D01*
X0055385Y0058950D01*
X0055969Y0059534D01*
X0056350Y0060453D01*
X0056350Y0061447D01*
X0055969Y0062366D01*
X0055400Y0062936D01*
X0055400Y0064592D01*
X0053542Y0066450D01*
X0054347Y0066450D01*
X0055266Y0066831D01*
X0055969Y0067534D01*
X0056350Y0068453D01*
X0056350Y0069447D01*
X0055969Y0070366D01*
X0055266Y0071069D01*
X0054900Y0071221D01*
X0054900Y0084592D01*
X0053400Y0086092D01*
X0052492Y0087000D01*
X0011708Y0087000D01*
X0009658Y0084950D01*
X0008852Y0084950D01*
X0007933Y0084569D01*
X0007230Y0083866D01*
X0006850Y0082947D01*
X0006850Y0082142D01*
X0005900Y0081192D01*
X0005900Y0089294D01*
X0006405Y0088788D01*
X0007342Y0088400D01*
X0008357Y0088400D01*
X0009294Y0088788D01*
X0010011Y0089506D01*
X0010400Y0090443D01*
X0010400Y0091457D01*
X0010216Y0091900D01*
X0051983Y0091900D01*
X0051800Y0091457D01*
X0051800Y0090443D01*
X0052188Y0089506D01*
X0052905Y0088788D01*
X0053842Y0088400D01*
X0054857Y0088400D01*
X0055794Y0088788D01*
X0056511Y0089506D01*
X0056800Y0090201D01*
X0056800Y0020124D01*
X0053031Y0016606D01*
X0053031Y0017583D01*
X0052546Y0018752D01*
X0051652Y0019647D01*
X0050482Y0020131D01*
X0049217Y0020131D01*
X0048048Y0019647D01*
X0047328Y0018927D01*
X0046634Y0019620D01*
X0046400Y0019717D01*
X0046400Y0025592D01*
X0045850Y0026142D01*
X0045850Y0026947D01*
X0045469Y0027866D01*
X0044766Y0028569D01*
X0043847Y0028950D01*
X0042852Y0028950D01*
X0041933Y0028569D01*
X0041230Y0027866D01*
X0040850Y0026947D01*
X0040850Y0025953D01*
X0041230Y0025034D01*
X0041933Y0024331D01*
X0042852Y0023950D01*
X0043300Y0023950D01*
X0043300Y0019717D01*
X0043065Y0019620D01*
X0042179Y0018734D01*
X0041700Y0017577D01*
X0041700Y0016323D01*
X0042179Y0015166D01*
X0043065Y0014280D01*
X0044223Y0013800D01*
X0045476Y0013800D01*
X0046634Y0014280D01*
X0047328Y0014973D01*
X0048048Y0014253D01*
X0049217Y0013769D01*
X0049991Y0013769D01*
X0042739Y0007000D01*
X0039098Y0007000D01*
X0039794Y0007288D01*
X0040511Y0008006D01*
X0040900Y0008943D01*
X0040900Y0009957D01*
X0040511Y0010894D01*
X0039794Y0011612D01*
X0038857Y0012000D01*
X0037842Y0012000D01*
X0036905Y0011612D01*
X0036188Y0010894D01*
X0035800Y0009957D01*
X0035800Y0008943D01*
X0036188Y0008006D01*
X0036905Y0007288D01*
X0037601Y0007000D01*
X0025098Y0007000D01*
X0025794Y0007288D01*
X0026511Y0008006D01*
X0026900Y0008943D01*
X0026900Y0009957D01*
X0026511Y0010894D01*
X0025794Y0011612D01*
X0024857Y0012000D01*
X0023842Y0012000D01*
X0022905Y0011612D01*
X0022188Y0010894D01*
X0021800Y0009957D01*
X0021800Y0008943D01*
X0022188Y0008006D01*
X0022905Y0007288D01*
X0023601Y0007000D01*
X0019967Y0007000D01*
X0005900Y0020334D01*
X0005900Y0047708D01*
X0006208Y0047400D01*
X0006350Y0047258D01*
X0006350Y0046453D01*
X0006730Y0045534D01*
X0007433Y0044831D01*
X0007508Y0044800D01*
X0006800Y0044092D01*
X0006800Y0034316D01*
X0006676Y0034069D01*
X0006740Y0033876D01*
X0006730Y0033866D01*
X0006350Y0032947D01*
X0006350Y0031953D01*
X0006730Y0031034D01*
X0007433Y0030331D01*
X0008352Y0029950D01*
X0009347Y0029950D01*
X0010266Y0030331D01*
X0010850Y0030914D01*
X0010933Y0030831D01*
X0011852Y0030450D01*
X0012847Y0030450D01*
X0013766Y0030831D01*
X0013795Y0030860D01*
X0013800Y0030855D01*
X0013800Y0023808D01*
X0014708Y0022900D01*
X0015093Y0022900D01*
X0015093Y0022348D01*
X0015800Y0021641D01*
X0015800Y0019936D01*
X0015230Y0019366D01*
X0014850Y0018447D01*
X0014850Y0017453D01*
X0015230Y0016534D01*
X0015016Y0017050D02*
X0009364Y0017050D01*
X0008733Y0017649D02*
X0014850Y0017649D01*
X0014850Y0018247D02*
X0008102Y0018247D01*
X0007470Y0018846D02*
X0015015Y0018846D01*
X0015308Y0019444D02*
X0006839Y0019444D01*
X0006207Y0020043D02*
X0015800Y0020043D01*
X0015800Y0020641D02*
X0005900Y0020641D01*
X0005900Y0021240D02*
X0015800Y0021240D01*
X0015602Y0021838D02*
X0005900Y0021838D01*
X0005900Y0022437D02*
X0015093Y0022437D01*
X0014572Y0023035D02*
X0005900Y0023035D01*
X0005900Y0023634D02*
X0013974Y0023634D01*
X0013800Y0024232D02*
X0005900Y0024232D01*
X0005900Y0024831D02*
X0013800Y0024831D01*
X0013800Y0025429D02*
X0005900Y0025429D01*
X0005900Y0026028D02*
X0013800Y0026028D01*
X0013800Y0026626D02*
X0005900Y0026626D01*
X0005900Y0027225D02*
X0013800Y0027225D01*
X0013800Y0027823D02*
X0005900Y0027823D01*
X0005900Y0028422D02*
X0013800Y0028422D01*
X0013800Y0029020D02*
X0005900Y0029020D01*
X0005900Y0029619D02*
X0013800Y0029619D01*
X0013800Y0030218D02*
X0009993Y0030218D01*
X0010751Y0030816D02*
X0010969Y0030816D01*
X0013731Y0030816D02*
X0013800Y0030816D01*
X0017550Y0030462D02*
X0017550Y0029612D01*
X0018150Y0029612D01*
X0018150Y0030472D01*
X0018111Y0030462D01*
X0017669Y0030462D01*
X0017669Y0032962D01*
X0020227Y0032962D01*
X0020227Y0032962D01*
X0018328Y0032962D01*
X0017669Y0032962D01*
X0017669Y0032962D01*
X0017668Y0032962D01*
X0017668Y0030462D01*
X0017550Y0030462D01*
X0017550Y0030218D02*
X0018150Y0030218D01*
X0018150Y0029619D02*
X0017550Y0029619D01*
X0018150Y0029020D02*
X0023244Y0029020D01*
X0022988Y0029619D02*
X0020606Y0029619D01*
X0020606Y0030218D02*
X0022850Y0030218D01*
X0022787Y0030462D02*
X0022787Y0032962D01*
X0024687Y0032962D01*
X0022787Y0032962D01*
X0022787Y0032962D01*
X0022787Y0032962D01*
X0022786Y0032962D02*
X0022786Y0032962D01*
X0020228Y0032962D01*
X0020228Y0032962D01*
X0020887Y0032962D01*
X0022786Y0032962D01*
X0022787Y0032962D02*
X0022787Y0030462D01*
X0022787Y0030816D02*
X0022787Y0030816D01*
X0022787Y0031415D02*
X0022787Y0031415D01*
X0022787Y0032013D02*
X0022787Y0032013D01*
X0022787Y0032612D02*
X0022787Y0032612D01*
X0021515Y0030816D02*
X0021499Y0030816D01*
X0020606Y0028422D02*
X0023800Y0028422D01*
X0023800Y0027823D02*
X0020606Y0027823D01*
X0020533Y0027225D02*
X0023800Y0027225D01*
X0023800Y0026626D02*
X0020606Y0026626D01*
X0020606Y0026028D02*
X0023800Y0026028D01*
X0023800Y0025429D02*
X0020606Y0025429D01*
X0020606Y0024831D02*
X0023800Y0024831D01*
X0023800Y0024232D02*
X0020606Y0024232D01*
X0020606Y0023634D02*
X0023800Y0023634D01*
X0023800Y0023035D02*
X0020606Y0023035D01*
X0020606Y0022437D02*
X0023800Y0022437D01*
X0023800Y0021838D02*
X0020097Y0021838D01*
X0018900Y0021240D02*
X0023800Y0021240D01*
X0023800Y0020641D02*
X0018900Y0020641D01*
X0018900Y0020043D02*
X0023800Y0020043D01*
X0023800Y0019444D02*
X0019391Y0019444D01*
X0019685Y0018846D02*
X0023800Y0018846D01*
X0024360Y0018247D02*
X0019850Y0018247D01*
X0019850Y0017649D02*
X0024850Y0017649D01*
X0024850Y0017050D02*
X0019683Y0017050D01*
X0019387Y0016452D02*
X0025057Y0016452D01*
X0025411Y0015853D02*
X0018788Y0015853D01*
X0015679Y0011065D02*
X0022359Y0011065D01*
X0022011Y0010467D02*
X0016310Y0010467D01*
X0016942Y0009868D02*
X0021800Y0009868D01*
X0021800Y0009270D02*
X0017573Y0009270D01*
X0018204Y0008671D02*
X0021912Y0008671D01*
X0022160Y0008073D02*
X0018836Y0008073D01*
X0019467Y0007474D02*
X0022719Y0007474D01*
X0023030Y0011664D02*
X0015047Y0011664D01*
X0014416Y0012262D02*
X0048377Y0012262D01*
X0049018Y0012861D02*
X0013784Y0012861D01*
X0013153Y0013459D02*
X0049659Y0013459D01*
X0048520Y0014058D02*
X0046098Y0014058D01*
X0047011Y0014656D02*
X0047645Y0014656D01*
X0047735Y0011664D02*
X0039669Y0011664D01*
X0040341Y0011065D02*
X0047094Y0011065D01*
X0046453Y0010467D02*
X0040689Y0010467D01*
X0040900Y0009868D02*
X0045812Y0009868D01*
X0045170Y0009270D02*
X0040900Y0009270D01*
X0040787Y0008671D02*
X0044529Y0008671D01*
X0043888Y0008073D02*
X0040539Y0008073D01*
X0039980Y0007474D02*
X0043247Y0007474D01*
X0043601Y0014058D02*
X0012522Y0014058D01*
X0011890Y0014656D02*
X0042689Y0014656D01*
X0042142Y0015255D02*
X0036083Y0015255D01*
X0036788Y0015853D02*
X0041894Y0015853D01*
X0041700Y0016452D02*
X0037142Y0016452D01*
X0037350Y0017050D02*
X0041700Y0017050D01*
X0041730Y0017649D02*
X0038240Y0017649D01*
X0038839Y0018247D02*
X0041977Y0018247D01*
X0042291Y0018846D02*
X0038921Y0018846D01*
X0038900Y0019444D02*
X0042889Y0019444D01*
X0043300Y0020043D02*
X0038900Y0020043D01*
X0038900Y0020641D02*
X0043300Y0020641D01*
X0043300Y0021240D02*
X0038900Y0021240D01*
X0038900Y0021838D02*
X0043300Y0021838D01*
X0043300Y0022437D02*
X0038900Y0022437D01*
X0038900Y0023035D02*
X0043300Y0023035D01*
X0043300Y0023634D02*
X0038900Y0023634D01*
X0038900Y0024232D02*
X0042171Y0024232D01*
X0041433Y0024831D02*
X0038900Y0024831D01*
X0038900Y0025429D02*
X0041066Y0025429D01*
X0040850Y0026028D02*
X0038900Y0026028D01*
X0038900Y0026626D02*
X0040850Y0026626D01*
X0040965Y0027225D02*
X0038900Y0027225D01*
X0038900Y0027823D02*
X0041213Y0027823D01*
X0041786Y0028422D02*
X0038900Y0028422D01*
X0038900Y0029020D02*
X0049778Y0029020D01*
X0049778Y0028422D02*
X0044913Y0028422D01*
X0045487Y0027823D02*
X0049778Y0027823D01*
X0049778Y0027225D02*
X0045735Y0027225D01*
X0045850Y0026626D02*
X0050365Y0026626D01*
X0050590Y0026401D02*
X0050360Y0026268D01*
X0050079Y0025987D01*
X0049881Y0025644D01*
X0049778Y0025261D01*
X0049778Y0024191D01*
X0052550Y0024191D01*
X0052550Y0023591D01*
X0053150Y0023591D01*
X0053150Y0024191D01*
X0055921Y0024191D01*
X0055921Y0025261D01*
X0055819Y0025644D01*
X0055620Y0025987D01*
X0055340Y0026268D01*
X0055109Y0026401D01*
X0055921Y0027214D01*
X0055921Y0030804D01*
X0055181Y0031545D01*
X0055350Y0031953D01*
X0055350Y0032947D01*
X0054969Y0033866D01*
X0054266Y0034569D01*
X0053347Y0034950D01*
X0052352Y0034950D01*
X0051433Y0034569D01*
X0050730Y0033866D01*
X0050350Y0032947D01*
X0050350Y0031953D01*
X0050519Y0031545D01*
X0049778Y0030804D01*
X0049778Y0027214D01*
X0050590Y0026401D01*
X0050120Y0026028D02*
X0045964Y0026028D01*
X0046400Y0025429D02*
X0049823Y0025429D01*
X0049778Y0024831D02*
X0046400Y0024831D01*
X0046400Y0024232D02*
X0049778Y0024232D01*
X0049778Y0023591D02*
X0049778Y0022521D01*
X0049881Y0022138D01*
X0050079Y0021795D01*
X0050360Y0021514D01*
X0050703Y0021316D01*
X0051086Y0021213D01*
X0052550Y0021213D01*
X0052550Y0023591D01*
X0049778Y0023591D01*
X0049778Y0023035D02*
X0046400Y0023035D01*
X0046400Y0022437D02*
X0049801Y0022437D01*
X0050054Y0021838D02*
X0046400Y0021838D01*
X0046400Y0021240D02*
X0050986Y0021240D01*
X0050695Y0020043D02*
X0056713Y0020043D01*
X0056800Y0020641D02*
X0046400Y0020641D01*
X0046400Y0020043D02*
X0049004Y0020043D01*
X0047845Y0019444D02*
X0046810Y0019444D01*
X0046400Y0023634D02*
X0052550Y0023634D01*
X0052550Y0023035D02*
X0053150Y0023035D01*
X0053150Y0023591D02*
X0053150Y0021213D01*
X0054613Y0021213D01*
X0054996Y0021316D01*
X0055340Y0021514D01*
X0055620Y0021795D01*
X0055819Y0022138D01*
X0055921Y0022521D01*
X0055921Y0023591D01*
X0053150Y0023591D01*
X0053150Y0023634D02*
X0056800Y0023634D01*
X0056800Y0024232D02*
X0055921Y0024232D01*
X0055921Y0024831D02*
X0056800Y0024831D01*
X0056800Y0025429D02*
X0055876Y0025429D01*
X0055580Y0026028D02*
X0056800Y0026028D01*
X0056800Y0026626D02*
X0055334Y0026626D01*
X0055921Y0027225D02*
X0056800Y0027225D01*
X0056800Y0027823D02*
X0055921Y0027823D01*
X0055921Y0028422D02*
X0056800Y0028422D01*
X0056800Y0029020D02*
X0055921Y0029020D01*
X0055921Y0029619D02*
X0056800Y0029619D01*
X0056800Y0030218D02*
X0055921Y0030218D01*
X0055910Y0030816D02*
X0056800Y0030816D01*
X0056800Y0031415D02*
X0055311Y0031415D01*
X0055350Y0032013D02*
X0056800Y0032013D01*
X0056800Y0032612D02*
X0055350Y0032612D01*
X0055241Y0033210D02*
X0056800Y0033210D01*
X0056800Y0033809D02*
X0054993Y0033809D01*
X0054428Y0034407D02*
X0056800Y0034407D01*
X0056800Y0035006D02*
X0028051Y0035006D01*
X0028338Y0035604D02*
X0056800Y0035604D01*
X0056800Y0036203D02*
X0028338Y0036203D01*
X0028338Y0036801D02*
X0056800Y0036801D01*
X0056800Y0037400D02*
X0028065Y0037400D01*
X0028250Y0037998D02*
X0028282Y0037998D01*
X0029550Y0037998D02*
X0030150Y0037998D01*
X0030150Y0037967D02*
X0031300Y0037967D01*
X0031683Y0038069D01*
X0032026Y0038267D01*
X0032306Y0038547D01*
X0032504Y0038890D01*
X0032606Y0039273D01*
X0032606Y0040788D01*
X0030150Y0040788D01*
X0030150Y0037967D01*
X0030150Y0038597D02*
X0029550Y0038597D01*
X0029550Y0039195D02*
X0030150Y0039195D01*
X0030150Y0039794D02*
X0029550Y0039794D01*
X0029550Y0040392D02*
X0030150Y0040392D01*
X0030150Y0040991D02*
X0056800Y0040991D01*
X0056800Y0041589D02*
X0032606Y0041589D01*
X0032606Y0042188D02*
X0056800Y0042188D01*
X0056800Y0042786D02*
X0032606Y0042786D01*
X0032446Y0043385D02*
X0056800Y0043385D01*
X0056800Y0043983D02*
X0052918Y0043983D01*
X0053489Y0044582D02*
X0056800Y0044582D01*
X0056800Y0045180D02*
X0053737Y0045180D01*
X0053850Y0045779D02*
X0056800Y0045779D01*
X0056800Y0046377D02*
X0053850Y0046377D01*
X0055411Y0046976D02*
X0056800Y0046976D01*
X0056800Y0047574D02*
X0055986Y0047574D01*
X0056234Y0048173D02*
X0056800Y0048173D01*
X0056800Y0048771D02*
X0056350Y0048771D01*
X0056350Y0049370D02*
X0056800Y0049370D01*
X0056800Y0049968D02*
X0056134Y0049968D01*
X0055768Y0050567D02*
X0056800Y0050567D01*
X0056800Y0051165D02*
X0055601Y0051165D01*
X0056064Y0051764D02*
X0056800Y0051764D01*
X0056800Y0052362D02*
X0056312Y0052362D01*
X0056350Y0052961D02*
X0056800Y0052961D01*
X0056800Y0053559D02*
X0056303Y0053559D01*
X0056055Y0054158D02*
X0056800Y0054158D01*
X0056800Y0054756D02*
X0055579Y0054756D01*
X0055790Y0055355D02*
X0056800Y0055355D01*
X0056800Y0055953D02*
X0056143Y0055953D01*
X0056350Y0056552D02*
X0056800Y0056552D01*
X0056800Y0057151D02*
X0056350Y0057151D01*
X0056225Y0057749D02*
X0056800Y0057749D01*
X0056800Y0058348D02*
X0055977Y0058348D01*
X0055389Y0058946D02*
X0056800Y0058946D01*
X0056800Y0059545D02*
X0055973Y0059545D01*
X0056221Y0060143D02*
X0056800Y0060143D01*
X0056800Y0060742D02*
X0056350Y0060742D01*
X0056350Y0061340D02*
X0056800Y0061340D01*
X0056800Y0061939D02*
X0056146Y0061939D01*
X0055798Y0062537D02*
X0056800Y0062537D01*
X0056800Y0063136D02*
X0055400Y0063136D01*
X0055400Y0063734D02*
X0056800Y0063734D01*
X0056800Y0064333D02*
X0055400Y0064333D01*
X0055060Y0064931D02*
X0056800Y0064931D01*
X0056800Y0065530D02*
X0054462Y0065530D01*
X0053863Y0066128D02*
X0056800Y0066128D01*
X0056800Y0066727D02*
X0055015Y0066727D01*
X0055760Y0067325D02*
X0056800Y0067325D01*
X0056800Y0067924D02*
X0056130Y0067924D01*
X0056350Y0068522D02*
X0056800Y0068522D01*
X0056800Y0069121D02*
X0056350Y0069121D01*
X0056237Y0069719D02*
X0056800Y0069719D01*
X0056800Y0070318D02*
X0055989Y0070318D01*
X0055419Y0070916D02*
X0056800Y0070916D01*
X0056800Y0071515D02*
X0054900Y0071515D01*
X0054900Y0072113D02*
X0056800Y0072113D01*
X0056800Y0072712D02*
X0054900Y0072712D01*
X0054900Y0073310D02*
X0056800Y0073310D01*
X0056800Y0073909D02*
X0054900Y0073909D01*
X0054900Y0074507D02*
X0056800Y0074507D01*
X0056800Y0075106D02*
X0054900Y0075106D01*
X0054900Y0075704D02*
X0056800Y0075704D01*
X0056800Y0076303D02*
X0054900Y0076303D01*
X0054900Y0076901D02*
X0056800Y0076901D01*
X0056800Y0077500D02*
X0054900Y0077500D01*
X0054900Y0078098D02*
X0056800Y0078098D01*
X0056800Y0078697D02*
X0054900Y0078697D01*
X0054900Y0079295D02*
X0056800Y0079295D01*
X0056800Y0079894D02*
X0054900Y0079894D01*
X0054900Y0080492D02*
X0056800Y0080492D01*
X0056800Y0081091D02*
X0054900Y0081091D01*
X0054900Y0081689D02*
X0056800Y0081689D01*
X0056800Y0082288D02*
X0054900Y0082288D01*
X0054900Y0082887D02*
X0056800Y0082887D01*
X0056800Y0083485D02*
X0054900Y0083485D01*
X0054900Y0084084D02*
X0056800Y0084084D01*
X0056800Y0084682D02*
X0054810Y0084682D01*
X0054211Y0085281D02*
X0056800Y0085281D01*
X0056800Y0085879D02*
X0053613Y0085879D01*
X0053014Y0086478D02*
X0056800Y0086478D01*
X0056800Y0087076D02*
X0005900Y0087076D01*
X0005900Y0086478D02*
X0011185Y0086478D01*
X0010587Y0085879D02*
X0005900Y0085879D01*
X0005900Y0085281D02*
X0009988Y0085281D01*
X0008205Y0084682D02*
X0005900Y0084682D01*
X0005900Y0084084D02*
X0007448Y0084084D01*
X0007072Y0083485D02*
X0005900Y0083485D01*
X0005900Y0082887D02*
X0006850Y0082887D01*
X0006850Y0082288D02*
X0005900Y0082288D01*
X0005900Y0081689D02*
X0006397Y0081689D01*
X0008400Y0079308D02*
X0009042Y0079950D01*
X0009350Y0079950D01*
X0009350Y0079453D01*
X0009730Y0078534D01*
X0010433Y0077831D01*
X0010800Y0077679D01*
X0010800Y0066592D01*
X0009658Y0065450D01*
X0008852Y0065450D01*
X0008400Y0065262D01*
X0008400Y0079308D01*
X0008400Y0079295D02*
X0009415Y0079295D01*
X0009350Y0079894D02*
X0008986Y0079894D01*
X0008400Y0078697D02*
X0009663Y0078697D01*
X0010166Y0078098D02*
X0008400Y0078098D01*
X0008400Y0077500D02*
X0010800Y0077500D01*
X0010800Y0076901D02*
X0008400Y0076901D01*
X0008400Y0076303D02*
X0010800Y0076303D01*
X0010800Y0075704D02*
X0008400Y0075704D01*
X0008400Y0075106D02*
X0010800Y0075106D01*
X0010800Y0074507D02*
X0008400Y0074507D01*
X0008400Y0073909D02*
X0010800Y0073909D01*
X0010800Y0073310D02*
X0008400Y0073310D01*
X0008400Y0072712D02*
X0010800Y0072712D01*
X0010800Y0072113D02*
X0008400Y0072113D01*
X0008400Y0071515D02*
X0010800Y0071515D01*
X0010800Y0070916D02*
X0008400Y0070916D01*
X0008400Y0070318D02*
X0010800Y0070318D01*
X0010800Y0069719D02*
X0008400Y0069719D01*
X0008400Y0069121D02*
X0010800Y0069121D01*
X0010800Y0068522D02*
X0008400Y0068522D01*
X0008400Y0067924D02*
X0010800Y0067924D01*
X0010800Y0067325D02*
X0008400Y0067325D01*
X0008400Y0066727D02*
X0010800Y0066727D01*
X0010336Y0066128D02*
X0008400Y0066128D01*
X0008400Y0065530D02*
X0009737Y0065530D01*
X0006033Y0047574D02*
X0005900Y0047574D01*
X0005900Y0046976D02*
X0006350Y0046976D01*
X0006381Y0046377D02*
X0005900Y0046377D01*
X0005900Y0045779D02*
X0006629Y0045779D01*
X0007084Y0045180D02*
X0005900Y0045180D01*
X0005900Y0044582D02*
X0007289Y0044582D01*
X0006800Y0043983D02*
X0005900Y0043983D01*
X0005900Y0043385D02*
X0006800Y0043385D01*
X0006800Y0042786D02*
X0005900Y0042786D01*
X0005900Y0042188D02*
X0006800Y0042188D01*
X0006800Y0041589D02*
X0005900Y0041589D01*
X0005900Y0040991D02*
X0006800Y0040991D01*
X0006800Y0040392D02*
X0005900Y0040392D01*
X0005900Y0039794D02*
X0006800Y0039794D01*
X0006800Y0039195D02*
X0005900Y0039195D01*
X0005900Y0038597D02*
X0006800Y0038597D01*
X0006800Y0037998D02*
X0005900Y0037998D01*
X0005900Y0037400D02*
X0006800Y0037400D01*
X0006800Y0036801D02*
X0005900Y0036801D01*
X0005900Y0036203D02*
X0006800Y0036203D01*
X0006800Y0035604D02*
X0005900Y0035604D01*
X0005900Y0035006D02*
X0006800Y0035006D01*
X0006800Y0034407D02*
X0005900Y0034407D01*
X0005900Y0033809D02*
X0006706Y0033809D01*
X0006458Y0033210D02*
X0005900Y0033210D01*
X0005900Y0032612D02*
X0006350Y0032612D01*
X0006350Y0032013D02*
X0005900Y0032013D01*
X0005900Y0031415D02*
X0006573Y0031415D01*
X0006948Y0030816D02*
X0005900Y0030816D01*
X0005900Y0030218D02*
X0007706Y0030218D01*
X0017668Y0030816D02*
X0017669Y0030816D01*
X0017668Y0031415D02*
X0017669Y0031415D01*
X0017668Y0032013D02*
X0017669Y0032013D01*
X0017668Y0032612D02*
X0017669Y0032612D01*
X0024687Y0033210D02*
X0029458Y0033210D01*
X0029706Y0033809D02*
X0024687Y0033809D01*
X0026664Y0032612D02*
X0027535Y0032612D01*
X0027452Y0034407D02*
X0030271Y0034407D01*
X0031417Y0037998D02*
X0056800Y0037998D01*
X0056800Y0038597D02*
X0032334Y0038597D01*
X0032585Y0039195D02*
X0056800Y0039195D01*
X0056800Y0039794D02*
X0032606Y0039794D01*
X0032606Y0040392D02*
X0056800Y0040392D01*
X0051271Y0034407D02*
X0037450Y0034407D01*
X0036249Y0034407D02*
X0033428Y0034407D01*
X0033993Y0033809D02*
X0035173Y0033809D01*
X0034666Y0033210D02*
X0034241Y0033210D01*
X0038527Y0033809D02*
X0050706Y0033809D01*
X0050458Y0033210D02*
X0039034Y0033210D01*
X0039282Y0032612D02*
X0050350Y0032612D01*
X0050350Y0032013D02*
X0039350Y0032013D01*
X0039334Y0031415D02*
X0050388Y0031415D01*
X0049790Y0030816D02*
X0039086Y0030816D01*
X0038906Y0030218D02*
X0049778Y0030218D01*
X0049778Y0029619D02*
X0038900Y0029619D01*
X0029550Y0040788D02*
X0028312Y0040788D01*
X0028338Y0040885D01*
X0028338Y0041328D01*
X0028338Y0041388D01*
X0029550Y0041388D01*
X0029550Y0040788D01*
X0029550Y0040991D02*
X0028338Y0040991D01*
X0028338Y0041328D02*
X0025838Y0041328D01*
X0028338Y0041328D01*
X0025838Y0041328D02*
X0025838Y0041328D01*
X0025838Y0039428D01*
X0025838Y0038769D01*
X0025838Y0038769D01*
X0025838Y0041328D01*
X0025838Y0041328D01*
X0025838Y0040991D02*
X0025838Y0040991D01*
X0025838Y0040392D02*
X0025838Y0040392D01*
X0025838Y0039794D02*
X0025838Y0039794D01*
X0025838Y0039195D02*
X0025838Y0039195D01*
X0029850Y0045812D02*
X0028712Y0046950D01*
X0026850Y0046950D01*
X0032606Y0045180D02*
X0043710Y0045180D01*
X0044526Y0044582D02*
X0032606Y0044582D01*
X0032606Y0043983D02*
X0049781Y0043983D01*
X0055921Y0023035D02*
X0056800Y0023035D01*
X0056800Y0022437D02*
X0055899Y0022437D01*
X0055645Y0021838D02*
X0056800Y0021838D01*
X0056800Y0021240D02*
X0054713Y0021240D01*
X0056072Y0019444D02*
X0051854Y0019444D01*
X0052453Y0018846D02*
X0055431Y0018846D01*
X0054789Y0018247D02*
X0052755Y0018247D01*
X0053003Y0017649D02*
X0054148Y0017649D01*
X0053507Y0017050D02*
X0053031Y0017050D01*
X0053150Y0021240D02*
X0052550Y0021240D01*
X0052550Y0021838D02*
X0053150Y0021838D01*
X0053150Y0022437D02*
X0052550Y0022437D01*
X0037030Y0011664D02*
X0025669Y0011664D01*
X0026341Y0011065D02*
X0036359Y0011065D01*
X0036011Y0010467D02*
X0026689Y0010467D01*
X0026900Y0009868D02*
X0035800Y0009868D01*
X0035800Y0009270D02*
X0026900Y0009270D01*
X0026787Y0008671D02*
X0035912Y0008671D01*
X0036160Y0008073D02*
X0026539Y0008073D01*
X0025980Y0007474D02*
X0036719Y0007474D01*
X0033617Y0015255D02*
X0032083Y0015255D01*
X0032788Y0015853D02*
X0032911Y0015853D01*
X0029617Y0015255D02*
X0028583Y0015255D01*
X0026117Y0015255D02*
X0011259Y0015255D01*
X0005900Y0087675D02*
X0056800Y0087675D01*
X0056800Y0088273D02*
X0005900Y0088273D01*
X0005900Y0088872D02*
X0006322Y0088872D01*
X0009377Y0088872D02*
X0052822Y0088872D01*
X0052223Y0089470D02*
X0009976Y0089470D01*
X0010245Y0090069D02*
X0051955Y0090069D01*
X0051800Y0090667D02*
X0010400Y0090667D01*
X0010400Y0091266D02*
X0051800Y0091266D01*
X0051968Y0091864D02*
X0010231Y0091864D01*
X0055877Y0088872D02*
X0056800Y0088872D01*
X0056800Y0089470D02*
X0056476Y0089470D01*
X0056745Y0090069D02*
X0056800Y0090069D01*
M02*
