G75*
%MOIN*%
%OFA0B0*%
%FSLAX25Y25*%
%IPPOS*%
%LPD*%
%AMOC8*
5,1,8,0,0,1.08239X$1,22.5*
%
%ADD10C,0.03100*%
%ADD11C,0.01134*%
%ADD12R,0.08268X0.08268*%
%ADD13C,0.00503*%
%ADD14C,0.00492*%
%ADD15C,0.03000*%
%ADD16C,0.04300*%
%ADD17C,0.04362*%
D10*
X0024350Y0009450D03*
X0038350Y0009450D03*
X0054350Y0090950D03*
X0007850Y0090950D03*
D11*
X0015246Y0047871D02*
X0015246Y0046005D01*
X0014580Y0046005D01*
X0014580Y0047871D01*
X0015246Y0047871D01*
X0015246Y0047138D02*
X0014580Y0047138D01*
X0012794Y0044023D02*
X0010928Y0044023D01*
X0012794Y0044023D02*
X0012794Y0043357D01*
X0010928Y0043357D01*
X0010928Y0044023D01*
X0010928Y0041464D02*
X0012794Y0041464D01*
X0012794Y0040798D01*
X0010928Y0040798D01*
X0010928Y0041464D01*
X0010928Y0038905D02*
X0012794Y0038905D01*
X0012794Y0038239D01*
X0010928Y0038239D01*
X0010928Y0038905D01*
X0010928Y0036346D02*
X0012794Y0036346D01*
X0012794Y0035680D01*
X0010928Y0035680D01*
X0010928Y0036346D01*
X0014776Y0033895D02*
X0014776Y0032029D01*
X0014776Y0033895D02*
X0015442Y0033895D01*
X0015442Y0032029D01*
X0014776Y0032029D01*
X0014776Y0033162D02*
X0015442Y0033162D01*
X0017336Y0033895D02*
X0017336Y0032029D01*
X0017336Y0033895D02*
X0018002Y0033895D01*
X0018002Y0032029D01*
X0017336Y0032029D01*
X0017336Y0033162D02*
X0018002Y0033162D01*
X0019895Y0033895D02*
X0019895Y0032029D01*
X0019895Y0033895D02*
X0020561Y0033895D01*
X0020561Y0032029D01*
X0019895Y0032029D01*
X0019895Y0033162D02*
X0020561Y0033162D01*
X0022454Y0033895D02*
X0022454Y0032029D01*
X0022454Y0033895D02*
X0023120Y0033895D01*
X0023120Y0032029D01*
X0022454Y0032029D01*
X0022454Y0033162D02*
X0023120Y0033162D01*
X0024905Y0035877D02*
X0026771Y0035877D01*
X0024905Y0035877D02*
X0024905Y0036543D01*
X0026771Y0036543D01*
X0026771Y0035877D01*
X0026771Y0038436D02*
X0024905Y0038436D01*
X0024905Y0039102D01*
X0026771Y0039102D01*
X0026771Y0038436D01*
X0026771Y0040995D02*
X0024905Y0040995D01*
X0024905Y0041661D01*
X0026771Y0041661D01*
X0026771Y0040995D01*
X0026771Y0043554D02*
X0024905Y0043554D01*
X0024905Y0044220D01*
X0026771Y0044220D01*
X0026771Y0043554D01*
X0022923Y0046005D02*
X0022923Y0047871D01*
X0022923Y0046005D02*
X0022257Y0046005D01*
X0022257Y0047871D01*
X0022923Y0047871D01*
X0022923Y0047138D02*
X0022257Y0047138D01*
X0020364Y0047871D02*
X0020364Y0046005D01*
X0019698Y0046005D01*
X0019698Y0047871D01*
X0020364Y0047871D01*
X0020364Y0047138D02*
X0019698Y0047138D01*
X0017805Y0047871D02*
X0017805Y0046005D01*
X0017139Y0046005D01*
X0017139Y0047871D01*
X0017805Y0047871D01*
X0017805Y0047138D02*
X0017139Y0047138D01*
D12*
X0018850Y0039950D03*
D13*
X0030170Y0027436D02*
X0030170Y0024582D01*
X0026530Y0024582D01*
X0026530Y0027436D01*
X0030170Y0027436D01*
X0030170Y0025084D02*
X0026530Y0025084D01*
X0026530Y0025586D02*
X0030170Y0025586D01*
X0030170Y0026088D02*
X0026530Y0026088D01*
X0026530Y0026590D02*
X0030170Y0026590D01*
X0030170Y0027092D02*
X0026530Y0027092D01*
X0030170Y0022318D02*
X0030170Y0019464D01*
X0026530Y0019464D01*
X0026530Y0022318D01*
X0030170Y0022318D01*
X0030170Y0019966D02*
X0026530Y0019966D01*
X0026530Y0020468D02*
X0030170Y0020468D01*
X0030170Y0020970D02*
X0026530Y0020970D01*
X0026530Y0021472D02*
X0030170Y0021472D01*
X0030170Y0021974D02*
X0026530Y0021974D01*
X0034670Y0022318D02*
X0034670Y0019464D01*
X0031030Y0019464D01*
X0031030Y0022318D01*
X0034670Y0022318D01*
X0034670Y0019966D02*
X0031030Y0019966D01*
X0031030Y0020468D02*
X0034670Y0020468D01*
X0034670Y0020970D02*
X0031030Y0020970D01*
X0031030Y0021472D02*
X0034670Y0021472D01*
X0034670Y0021974D02*
X0031030Y0021974D01*
X0034670Y0024582D02*
X0034670Y0027436D01*
X0034670Y0024582D02*
X0031030Y0024582D01*
X0031030Y0027436D01*
X0034670Y0027436D01*
X0034670Y0025084D02*
X0031030Y0025084D01*
X0031030Y0025586D02*
X0034670Y0025586D01*
X0034670Y0026088D02*
X0031030Y0026088D01*
X0031030Y0026590D02*
X0034670Y0026590D01*
X0034670Y0027092D02*
X0031030Y0027092D01*
X0054670Y0027582D02*
X0054670Y0030436D01*
X0054670Y0027582D02*
X0051030Y0027582D01*
X0051030Y0030436D01*
X0054670Y0030436D01*
X0054670Y0028084D02*
X0051030Y0028084D01*
X0051030Y0028586D02*
X0054670Y0028586D01*
X0054670Y0029088D02*
X0051030Y0029088D01*
X0051030Y0029590D02*
X0054670Y0029590D01*
X0054670Y0030092D02*
X0051030Y0030092D01*
X0054670Y0025318D02*
X0054670Y0022464D01*
X0051030Y0022464D01*
X0051030Y0025318D01*
X0054670Y0025318D01*
X0054670Y0022966D02*
X0051030Y0022966D01*
X0051030Y0023468D02*
X0054670Y0023468D01*
X0054670Y0023970D02*
X0051030Y0023970D01*
X0051030Y0024472D02*
X0054670Y0024472D01*
X0054670Y0024974D02*
X0051030Y0024974D01*
D14*
X0028340Y0039213D02*
X0028340Y0042963D01*
X0031360Y0042963D01*
X0031360Y0039213D01*
X0028340Y0039213D01*
X0028340Y0039704D02*
X0031360Y0039704D01*
X0031360Y0040195D02*
X0028340Y0040195D01*
X0028340Y0040686D02*
X0031360Y0040686D01*
X0031360Y0041177D02*
X0028340Y0041177D01*
X0028340Y0041668D02*
X0031360Y0041668D01*
X0031360Y0042159D02*
X0028340Y0042159D01*
X0028340Y0042650D02*
X0031360Y0042650D01*
X0028340Y0043937D02*
X0028340Y0047687D01*
X0031360Y0047687D01*
X0031360Y0043937D01*
X0028340Y0043937D01*
X0028340Y0044428D02*
X0031360Y0044428D01*
X0031360Y0044919D02*
X0028340Y0044919D01*
X0028340Y0045410D02*
X0031360Y0045410D01*
X0031360Y0045901D02*
X0028340Y0045901D01*
X0028340Y0046392D02*
X0031360Y0046392D01*
X0031360Y0046883D02*
X0028340Y0046883D01*
X0028340Y0047374D02*
X0031360Y0047374D01*
X0016340Y0031187D02*
X0016340Y0027437D01*
X0016340Y0031187D02*
X0019360Y0031187D01*
X0019360Y0027437D01*
X0016340Y0027437D01*
X0016340Y0027928D02*
X0019360Y0027928D01*
X0019360Y0028419D02*
X0016340Y0028419D01*
X0016340Y0028910D02*
X0019360Y0028910D01*
X0019360Y0029401D02*
X0016340Y0029401D01*
X0016340Y0029892D02*
X0019360Y0029892D01*
X0019360Y0030383D02*
X0016340Y0030383D01*
X0016340Y0030874D02*
X0019360Y0030874D01*
X0016340Y0026463D02*
X0016340Y0022713D01*
X0016340Y0026463D02*
X0019360Y0026463D01*
X0019360Y0022713D01*
X0016340Y0022713D01*
X0016340Y0023204D02*
X0019360Y0023204D01*
X0019360Y0023695D02*
X0016340Y0023695D01*
X0016340Y0024186D02*
X0019360Y0024186D01*
X0019360Y0024677D02*
X0016340Y0024677D01*
X0016340Y0025168D02*
X0019360Y0025168D01*
X0019360Y0025659D02*
X0016340Y0025659D01*
X0016340Y0026150D02*
X0019360Y0026150D01*
D15*
X0017350Y0017950D03*
X0025350Y0030450D03*
X0028850Y0030450D03*
X0031850Y0029450D03*
X0031850Y0032450D03*
X0036850Y0031950D03*
X0043350Y0026450D03*
X0034850Y0017450D03*
X0030850Y0017450D03*
X0027350Y0017450D03*
X0012350Y0032950D03*
X0008850Y0032450D03*
X0008850Y0046950D03*
X0008850Y0050950D03*
X0008850Y0054950D03*
X0008850Y0058950D03*
X0009350Y0062950D03*
X0011850Y0060950D03*
X0011850Y0056950D03*
X0011850Y0052950D03*
X0011850Y0048950D03*
X0009350Y0067450D03*
X0011850Y0079950D03*
X0009350Y0082450D03*
X0017350Y0082950D03*
X0017350Y0078950D03*
X0022350Y0078950D03*
X0022350Y0082950D03*
X0027350Y0082950D03*
X0027350Y0078950D03*
X0032350Y0078950D03*
X0032350Y0082950D03*
X0037350Y0082950D03*
X0037350Y0078950D03*
X0042350Y0078950D03*
X0042350Y0082950D03*
X0047350Y0082950D03*
X0047350Y0078950D03*
X0050850Y0082450D03*
X0055850Y0082950D03*
X0053850Y0068950D03*
X0050850Y0062950D03*
X0053850Y0060950D03*
X0050850Y0058950D03*
X0053850Y0056950D03*
X0050850Y0054950D03*
X0053850Y0052950D03*
X0050850Y0050950D03*
X0053850Y0048950D03*
X0051350Y0045950D03*
X0042350Y0041450D03*
X0052850Y0032450D03*
X0053850Y0019950D03*
D16*
X0044850Y0016950D03*
X0044850Y0011950D03*
D17*
X0049850Y0016950D03*
M02*
