G75*
%MOIN*%
%OFA0B0*%
%FSLAX25Y25*%
%IPPOS*%
%LPD*%
%AMOC8*
5,1,8,0,0,1.08239X$1,22.5*
%
%ADD10C,0.00000*%
%ADD11C,0.00500*%
%ADD12C,0.00400*%
%ADD13C,0.00300*%
%ADD14C,0.00200*%
D10*
X0002850Y0002950D02*
X0002350Y0096411D01*
X0060050Y0096411D01*
X0060550Y0002950D01*
X0002850Y0002950D01*
X0023100Y0009450D02*
X0023102Y0009520D01*
X0023108Y0009590D01*
X0023118Y0009659D01*
X0023131Y0009728D01*
X0023149Y0009796D01*
X0023170Y0009863D01*
X0023195Y0009928D01*
X0023224Y0009992D01*
X0023256Y0010055D01*
X0023292Y0010115D01*
X0023331Y0010173D01*
X0023373Y0010229D01*
X0023418Y0010283D01*
X0023466Y0010334D01*
X0023517Y0010382D01*
X0023571Y0010427D01*
X0023627Y0010469D01*
X0023685Y0010508D01*
X0023745Y0010544D01*
X0023808Y0010576D01*
X0023872Y0010605D01*
X0023937Y0010630D01*
X0024004Y0010651D01*
X0024072Y0010669D01*
X0024141Y0010682D01*
X0024210Y0010692D01*
X0024280Y0010698D01*
X0024350Y0010700D01*
X0024420Y0010698D01*
X0024490Y0010692D01*
X0024559Y0010682D01*
X0024628Y0010669D01*
X0024696Y0010651D01*
X0024763Y0010630D01*
X0024828Y0010605D01*
X0024892Y0010576D01*
X0024955Y0010544D01*
X0025015Y0010508D01*
X0025073Y0010469D01*
X0025129Y0010427D01*
X0025183Y0010382D01*
X0025234Y0010334D01*
X0025282Y0010283D01*
X0025327Y0010229D01*
X0025369Y0010173D01*
X0025408Y0010115D01*
X0025444Y0010055D01*
X0025476Y0009992D01*
X0025505Y0009928D01*
X0025530Y0009863D01*
X0025551Y0009796D01*
X0025569Y0009728D01*
X0025582Y0009659D01*
X0025592Y0009590D01*
X0025598Y0009520D01*
X0025600Y0009450D01*
X0025598Y0009380D01*
X0025592Y0009310D01*
X0025582Y0009241D01*
X0025569Y0009172D01*
X0025551Y0009104D01*
X0025530Y0009037D01*
X0025505Y0008972D01*
X0025476Y0008908D01*
X0025444Y0008845D01*
X0025408Y0008785D01*
X0025369Y0008727D01*
X0025327Y0008671D01*
X0025282Y0008617D01*
X0025234Y0008566D01*
X0025183Y0008518D01*
X0025129Y0008473D01*
X0025073Y0008431D01*
X0025015Y0008392D01*
X0024955Y0008356D01*
X0024892Y0008324D01*
X0024828Y0008295D01*
X0024763Y0008270D01*
X0024696Y0008249D01*
X0024628Y0008231D01*
X0024559Y0008218D01*
X0024490Y0008208D01*
X0024420Y0008202D01*
X0024350Y0008200D01*
X0024280Y0008202D01*
X0024210Y0008208D01*
X0024141Y0008218D01*
X0024072Y0008231D01*
X0024004Y0008249D01*
X0023937Y0008270D01*
X0023872Y0008295D01*
X0023808Y0008324D01*
X0023745Y0008356D01*
X0023685Y0008392D01*
X0023627Y0008431D01*
X0023571Y0008473D01*
X0023517Y0008518D01*
X0023466Y0008566D01*
X0023418Y0008617D01*
X0023373Y0008671D01*
X0023331Y0008727D01*
X0023292Y0008785D01*
X0023256Y0008845D01*
X0023224Y0008908D01*
X0023195Y0008972D01*
X0023170Y0009037D01*
X0023149Y0009104D01*
X0023131Y0009172D01*
X0023118Y0009241D01*
X0023108Y0009310D01*
X0023102Y0009380D01*
X0023100Y0009450D01*
X0037100Y0009450D02*
X0037102Y0009520D01*
X0037108Y0009590D01*
X0037118Y0009659D01*
X0037131Y0009728D01*
X0037149Y0009796D01*
X0037170Y0009863D01*
X0037195Y0009928D01*
X0037224Y0009992D01*
X0037256Y0010055D01*
X0037292Y0010115D01*
X0037331Y0010173D01*
X0037373Y0010229D01*
X0037418Y0010283D01*
X0037466Y0010334D01*
X0037517Y0010382D01*
X0037571Y0010427D01*
X0037627Y0010469D01*
X0037685Y0010508D01*
X0037745Y0010544D01*
X0037808Y0010576D01*
X0037872Y0010605D01*
X0037937Y0010630D01*
X0038004Y0010651D01*
X0038072Y0010669D01*
X0038141Y0010682D01*
X0038210Y0010692D01*
X0038280Y0010698D01*
X0038350Y0010700D01*
X0038420Y0010698D01*
X0038490Y0010692D01*
X0038559Y0010682D01*
X0038628Y0010669D01*
X0038696Y0010651D01*
X0038763Y0010630D01*
X0038828Y0010605D01*
X0038892Y0010576D01*
X0038955Y0010544D01*
X0039015Y0010508D01*
X0039073Y0010469D01*
X0039129Y0010427D01*
X0039183Y0010382D01*
X0039234Y0010334D01*
X0039282Y0010283D01*
X0039327Y0010229D01*
X0039369Y0010173D01*
X0039408Y0010115D01*
X0039444Y0010055D01*
X0039476Y0009992D01*
X0039505Y0009928D01*
X0039530Y0009863D01*
X0039551Y0009796D01*
X0039569Y0009728D01*
X0039582Y0009659D01*
X0039592Y0009590D01*
X0039598Y0009520D01*
X0039600Y0009450D01*
X0039598Y0009380D01*
X0039592Y0009310D01*
X0039582Y0009241D01*
X0039569Y0009172D01*
X0039551Y0009104D01*
X0039530Y0009037D01*
X0039505Y0008972D01*
X0039476Y0008908D01*
X0039444Y0008845D01*
X0039408Y0008785D01*
X0039369Y0008727D01*
X0039327Y0008671D01*
X0039282Y0008617D01*
X0039234Y0008566D01*
X0039183Y0008518D01*
X0039129Y0008473D01*
X0039073Y0008431D01*
X0039015Y0008392D01*
X0038955Y0008356D01*
X0038892Y0008324D01*
X0038828Y0008295D01*
X0038763Y0008270D01*
X0038696Y0008249D01*
X0038628Y0008231D01*
X0038559Y0008218D01*
X0038490Y0008208D01*
X0038420Y0008202D01*
X0038350Y0008200D01*
X0038280Y0008202D01*
X0038210Y0008208D01*
X0038141Y0008218D01*
X0038072Y0008231D01*
X0038004Y0008249D01*
X0037937Y0008270D01*
X0037872Y0008295D01*
X0037808Y0008324D01*
X0037745Y0008356D01*
X0037685Y0008392D01*
X0037627Y0008431D01*
X0037571Y0008473D01*
X0037517Y0008518D01*
X0037466Y0008566D01*
X0037418Y0008617D01*
X0037373Y0008671D01*
X0037331Y0008727D01*
X0037292Y0008785D01*
X0037256Y0008845D01*
X0037224Y0008908D01*
X0037195Y0008972D01*
X0037170Y0009037D01*
X0037149Y0009104D01*
X0037131Y0009172D01*
X0037118Y0009241D01*
X0037108Y0009310D01*
X0037102Y0009380D01*
X0037100Y0009450D01*
X0053100Y0090950D02*
X0053102Y0091020D01*
X0053108Y0091090D01*
X0053118Y0091159D01*
X0053131Y0091228D01*
X0053149Y0091296D01*
X0053170Y0091363D01*
X0053195Y0091428D01*
X0053224Y0091492D01*
X0053256Y0091555D01*
X0053292Y0091615D01*
X0053331Y0091673D01*
X0053373Y0091729D01*
X0053418Y0091783D01*
X0053466Y0091834D01*
X0053517Y0091882D01*
X0053571Y0091927D01*
X0053627Y0091969D01*
X0053685Y0092008D01*
X0053745Y0092044D01*
X0053808Y0092076D01*
X0053872Y0092105D01*
X0053937Y0092130D01*
X0054004Y0092151D01*
X0054072Y0092169D01*
X0054141Y0092182D01*
X0054210Y0092192D01*
X0054280Y0092198D01*
X0054350Y0092200D01*
X0054420Y0092198D01*
X0054490Y0092192D01*
X0054559Y0092182D01*
X0054628Y0092169D01*
X0054696Y0092151D01*
X0054763Y0092130D01*
X0054828Y0092105D01*
X0054892Y0092076D01*
X0054955Y0092044D01*
X0055015Y0092008D01*
X0055073Y0091969D01*
X0055129Y0091927D01*
X0055183Y0091882D01*
X0055234Y0091834D01*
X0055282Y0091783D01*
X0055327Y0091729D01*
X0055369Y0091673D01*
X0055408Y0091615D01*
X0055444Y0091555D01*
X0055476Y0091492D01*
X0055505Y0091428D01*
X0055530Y0091363D01*
X0055551Y0091296D01*
X0055569Y0091228D01*
X0055582Y0091159D01*
X0055592Y0091090D01*
X0055598Y0091020D01*
X0055600Y0090950D01*
X0055598Y0090880D01*
X0055592Y0090810D01*
X0055582Y0090741D01*
X0055569Y0090672D01*
X0055551Y0090604D01*
X0055530Y0090537D01*
X0055505Y0090472D01*
X0055476Y0090408D01*
X0055444Y0090345D01*
X0055408Y0090285D01*
X0055369Y0090227D01*
X0055327Y0090171D01*
X0055282Y0090117D01*
X0055234Y0090066D01*
X0055183Y0090018D01*
X0055129Y0089973D01*
X0055073Y0089931D01*
X0055015Y0089892D01*
X0054955Y0089856D01*
X0054892Y0089824D01*
X0054828Y0089795D01*
X0054763Y0089770D01*
X0054696Y0089749D01*
X0054628Y0089731D01*
X0054559Y0089718D01*
X0054490Y0089708D01*
X0054420Y0089702D01*
X0054350Y0089700D01*
X0054280Y0089702D01*
X0054210Y0089708D01*
X0054141Y0089718D01*
X0054072Y0089731D01*
X0054004Y0089749D01*
X0053937Y0089770D01*
X0053872Y0089795D01*
X0053808Y0089824D01*
X0053745Y0089856D01*
X0053685Y0089892D01*
X0053627Y0089931D01*
X0053571Y0089973D01*
X0053517Y0090018D01*
X0053466Y0090066D01*
X0053418Y0090117D01*
X0053373Y0090171D01*
X0053331Y0090227D01*
X0053292Y0090285D01*
X0053256Y0090345D01*
X0053224Y0090408D01*
X0053195Y0090472D01*
X0053170Y0090537D01*
X0053149Y0090604D01*
X0053131Y0090672D01*
X0053118Y0090741D01*
X0053108Y0090810D01*
X0053102Y0090880D01*
X0053100Y0090950D01*
X0006600Y0090950D02*
X0006602Y0091020D01*
X0006608Y0091090D01*
X0006618Y0091159D01*
X0006631Y0091228D01*
X0006649Y0091296D01*
X0006670Y0091363D01*
X0006695Y0091428D01*
X0006724Y0091492D01*
X0006756Y0091555D01*
X0006792Y0091615D01*
X0006831Y0091673D01*
X0006873Y0091729D01*
X0006918Y0091783D01*
X0006966Y0091834D01*
X0007017Y0091882D01*
X0007071Y0091927D01*
X0007127Y0091969D01*
X0007185Y0092008D01*
X0007245Y0092044D01*
X0007308Y0092076D01*
X0007372Y0092105D01*
X0007437Y0092130D01*
X0007504Y0092151D01*
X0007572Y0092169D01*
X0007641Y0092182D01*
X0007710Y0092192D01*
X0007780Y0092198D01*
X0007850Y0092200D01*
X0007920Y0092198D01*
X0007990Y0092192D01*
X0008059Y0092182D01*
X0008128Y0092169D01*
X0008196Y0092151D01*
X0008263Y0092130D01*
X0008328Y0092105D01*
X0008392Y0092076D01*
X0008455Y0092044D01*
X0008515Y0092008D01*
X0008573Y0091969D01*
X0008629Y0091927D01*
X0008683Y0091882D01*
X0008734Y0091834D01*
X0008782Y0091783D01*
X0008827Y0091729D01*
X0008869Y0091673D01*
X0008908Y0091615D01*
X0008944Y0091555D01*
X0008976Y0091492D01*
X0009005Y0091428D01*
X0009030Y0091363D01*
X0009051Y0091296D01*
X0009069Y0091228D01*
X0009082Y0091159D01*
X0009092Y0091090D01*
X0009098Y0091020D01*
X0009100Y0090950D01*
X0009098Y0090880D01*
X0009092Y0090810D01*
X0009082Y0090741D01*
X0009069Y0090672D01*
X0009051Y0090604D01*
X0009030Y0090537D01*
X0009005Y0090472D01*
X0008976Y0090408D01*
X0008944Y0090345D01*
X0008908Y0090285D01*
X0008869Y0090227D01*
X0008827Y0090171D01*
X0008782Y0090117D01*
X0008734Y0090066D01*
X0008683Y0090018D01*
X0008629Y0089973D01*
X0008573Y0089931D01*
X0008515Y0089892D01*
X0008455Y0089856D01*
X0008392Y0089824D01*
X0008328Y0089795D01*
X0008263Y0089770D01*
X0008196Y0089749D01*
X0008128Y0089731D01*
X0008059Y0089718D01*
X0007990Y0089708D01*
X0007920Y0089702D01*
X0007850Y0089700D01*
X0007780Y0089702D01*
X0007710Y0089708D01*
X0007641Y0089718D01*
X0007572Y0089731D01*
X0007504Y0089749D01*
X0007437Y0089770D01*
X0007372Y0089795D01*
X0007308Y0089824D01*
X0007245Y0089856D01*
X0007185Y0089892D01*
X0007127Y0089931D01*
X0007071Y0089973D01*
X0007017Y0090018D01*
X0006966Y0090066D01*
X0006918Y0090117D01*
X0006873Y0090171D01*
X0006831Y0090227D01*
X0006792Y0090285D01*
X0006756Y0090345D01*
X0006724Y0090408D01*
X0006695Y0090472D01*
X0006670Y0090537D01*
X0006649Y0090604D01*
X0006631Y0090672D01*
X0006618Y0090741D01*
X0006608Y0090810D01*
X0006602Y0090880D01*
X0006600Y0090950D01*
D11*
X0004869Y0088174D02*
X0004869Y0075182D01*
X0058019Y0075182D01*
X0058019Y0088174D01*
X0004869Y0088174D01*
X0004350Y0093450D02*
X0004350Y0019450D01*
X0004850Y0019194D02*
X0019350Y0005450D01*
X0043350Y0005450D01*
X0058350Y0019450D01*
X0058350Y0093450D01*
X0004350Y0093450D01*
X0013540Y0068879D02*
X0013542Y0068938D01*
X0013548Y0068996D01*
X0013558Y0069054D01*
X0013571Y0069111D01*
X0013589Y0069168D01*
X0013610Y0069223D01*
X0013635Y0069276D01*
X0013663Y0069327D01*
X0013694Y0069377D01*
X0013729Y0069424D01*
X0013767Y0069469D01*
X0013808Y0069512D01*
X0013852Y0069551D01*
X0013898Y0069587D01*
X0013946Y0069621D01*
X0013997Y0069651D01*
X0014050Y0069677D01*
X0014104Y0069700D01*
X0014159Y0069719D01*
X0014216Y0069735D01*
X0014274Y0069747D01*
X0014332Y0069755D01*
X0014391Y0069759D01*
X0014449Y0069759D01*
X0014508Y0069755D01*
X0014566Y0069747D01*
X0014624Y0069735D01*
X0014681Y0069719D01*
X0014736Y0069700D01*
X0014790Y0069677D01*
X0014843Y0069651D01*
X0014894Y0069621D01*
X0014942Y0069587D01*
X0014988Y0069551D01*
X0015032Y0069512D01*
X0015073Y0069469D01*
X0015111Y0069424D01*
X0015146Y0069377D01*
X0015177Y0069327D01*
X0015205Y0069276D01*
X0015230Y0069223D01*
X0015251Y0069168D01*
X0015269Y0069111D01*
X0015282Y0069054D01*
X0015292Y0068996D01*
X0015298Y0068938D01*
X0015300Y0068879D01*
X0015298Y0068820D01*
X0015292Y0068762D01*
X0015282Y0068704D01*
X0015269Y0068647D01*
X0015251Y0068590D01*
X0015230Y0068535D01*
X0015205Y0068482D01*
X0015177Y0068431D01*
X0015146Y0068381D01*
X0015111Y0068334D01*
X0015073Y0068289D01*
X0015032Y0068246D01*
X0014988Y0068207D01*
X0014942Y0068171D01*
X0014894Y0068137D01*
X0014843Y0068107D01*
X0014790Y0068081D01*
X0014736Y0068058D01*
X0014681Y0068039D01*
X0014624Y0068023D01*
X0014566Y0068011D01*
X0014508Y0068003D01*
X0014449Y0067999D01*
X0014391Y0067999D01*
X0014332Y0068003D01*
X0014274Y0068011D01*
X0014216Y0068023D01*
X0014159Y0068039D01*
X0014104Y0068058D01*
X0014050Y0068081D01*
X0013997Y0068107D01*
X0013946Y0068137D01*
X0013898Y0068171D01*
X0013852Y0068207D01*
X0013808Y0068246D01*
X0013767Y0068289D01*
X0013729Y0068334D01*
X0013694Y0068381D01*
X0013663Y0068431D01*
X0013635Y0068482D01*
X0013610Y0068535D01*
X0013589Y0068590D01*
X0013571Y0068647D01*
X0013558Y0068704D01*
X0013548Y0068762D01*
X0013542Y0068820D01*
X0013540Y0068879D01*
X0015602Y0067698D02*
X0015602Y0066320D01*
X0016389Y0066517D02*
X0016391Y0066556D01*
X0016397Y0066595D01*
X0016407Y0066633D01*
X0016420Y0066670D01*
X0016437Y0066705D01*
X0016457Y0066739D01*
X0016481Y0066770D01*
X0016508Y0066799D01*
X0016537Y0066825D01*
X0016569Y0066848D01*
X0016603Y0066868D01*
X0016639Y0066884D01*
X0016676Y0066896D01*
X0016715Y0066905D01*
X0016754Y0066910D01*
X0016793Y0066911D01*
X0016832Y0066908D01*
X0016871Y0066901D01*
X0016908Y0066890D01*
X0016945Y0066876D01*
X0016980Y0066858D01*
X0017013Y0066837D01*
X0017044Y0066812D01*
X0017072Y0066785D01*
X0017097Y0066755D01*
X0017119Y0066722D01*
X0017138Y0066688D01*
X0017153Y0066652D01*
X0017165Y0066614D01*
X0017173Y0066576D01*
X0017177Y0066537D01*
X0017177Y0066497D01*
X0017173Y0066458D01*
X0017165Y0066420D01*
X0017153Y0066382D01*
X0017138Y0066346D01*
X0017119Y0066312D01*
X0017097Y0066279D01*
X0017072Y0066249D01*
X0017044Y0066222D01*
X0017013Y0066197D01*
X0016980Y0066176D01*
X0016945Y0066158D01*
X0016908Y0066144D01*
X0016871Y0066133D01*
X0016832Y0066126D01*
X0016793Y0066123D01*
X0016754Y0066124D01*
X0016715Y0066129D01*
X0016676Y0066138D01*
X0016639Y0066150D01*
X0016603Y0066166D01*
X0016569Y0066186D01*
X0016537Y0066209D01*
X0016508Y0066235D01*
X0016481Y0066264D01*
X0016457Y0066295D01*
X0016437Y0066329D01*
X0016420Y0066364D01*
X0016407Y0066401D01*
X0016397Y0066439D01*
X0016391Y0066478D01*
X0016389Y0066517D01*
X0016980Y0067698D02*
X0015602Y0067698D01*
X0015602Y0037580D02*
X0015602Y0036202D01*
X0016980Y0036202D01*
X0025100Y0018700D02*
X0025100Y0018250D01*
X0022600Y0018250D01*
X0022600Y0008250D01*
X0040100Y0008250D01*
X0040100Y0001250D01*
X0022600Y0001250D01*
X0022600Y0008250D01*
X0025100Y0018250D02*
X0027600Y0018250D01*
X0027600Y0018700D01*
X0027600Y0018250D02*
X0030100Y0018250D01*
X0030100Y0018700D01*
X0030100Y0018250D02*
X0032600Y0018250D01*
X0032600Y0018700D01*
X0032600Y0018250D02*
X0035100Y0018250D01*
X0037600Y0018250D01*
X0040100Y0018250D01*
X0040100Y0008250D01*
X0037600Y0018250D02*
X0037600Y0018700D01*
X0035100Y0018700D02*
X0035100Y0018250D01*
X0045720Y0036202D02*
X0047098Y0036202D01*
X0047098Y0037580D01*
X0047098Y0066320D02*
X0047098Y0067698D01*
X0045720Y0067698D01*
D12*
X0045813Y0048427D02*
X0045046Y0047660D01*
X0045046Y0045358D01*
X0049650Y0045358D01*
X0049650Y0047660D01*
X0048882Y0048427D01*
X0045813Y0048427D01*
X0045046Y0043823D02*
X0045046Y0040754D01*
X0049650Y0040754D01*
X0049650Y0043823D01*
X0047348Y0042289D02*
X0047348Y0040754D01*
X0049650Y0039219D02*
X0049650Y0036150D01*
X0045046Y0036150D01*
X0046150Y0024865D02*
X0046150Y0021796D01*
X0043080Y0024865D01*
X0042313Y0024865D01*
X0041546Y0024098D01*
X0041546Y0022563D01*
X0042313Y0021796D01*
X0042313Y0020261D02*
X0041546Y0019494D01*
X0041546Y0017959D01*
X0042313Y0017192D01*
X0043080Y0017192D01*
X0043848Y0017959D01*
X0043848Y0019494D01*
X0044615Y0020261D01*
X0045382Y0020261D01*
X0046150Y0019494D01*
X0046150Y0017959D01*
X0045382Y0017192D01*
X0018650Y0022150D02*
X0014046Y0022150D01*
X0014046Y0024452D01*
X0014813Y0025219D01*
X0016348Y0025219D01*
X0017115Y0024452D01*
X0017115Y0022150D01*
X0017115Y0023685D02*
X0018650Y0025219D01*
X0018650Y0026754D02*
X0018650Y0029823D01*
X0018650Y0028289D02*
X0014046Y0028289D01*
X0015580Y0026754D01*
X0016943Y0069886D02*
X0018478Y0069886D01*
X0019245Y0070654D01*
X0019245Y0074490D01*
X0020780Y0072955D02*
X0022314Y0074490D01*
X0022314Y0069886D01*
X0020780Y0069886D02*
X0023849Y0069886D01*
X0016943Y0069886D02*
X0016176Y0070654D01*
X0016176Y0074490D01*
D13*
X0041823Y0044833D02*
X0041823Y0042364D01*
X0045526Y0042364D01*
X0045526Y0041150D02*
X0045526Y0038681D01*
X0041823Y0038681D01*
X0041823Y0041150D01*
X0043675Y0042364D02*
X0043675Y0043598D01*
X0043675Y0039915D02*
X0043675Y0038681D01*
X0043675Y0037467D02*
X0044292Y0036849D01*
X0044292Y0034998D01*
X0045526Y0034998D02*
X0041823Y0034998D01*
X0041823Y0036849D01*
X0042440Y0037467D01*
X0043675Y0037467D01*
X0044292Y0036232D02*
X0045526Y0037467D01*
X0046144Y0033783D02*
X0046144Y0031315D01*
X0044909Y0030100D02*
X0045526Y0029483D01*
X0045526Y0028249D01*
X0044909Y0027631D01*
X0042440Y0027631D01*
X0041823Y0028249D01*
X0041823Y0029483D01*
X0042440Y0030100D01*
X0044148Y0026976D02*
X0043531Y0026359D01*
X0043531Y0023890D01*
X0044148Y0023273D01*
X0045383Y0023273D01*
X0046000Y0023890D01*
X0047214Y0022656D02*
X0049683Y0022656D01*
X0050897Y0024508D02*
X0052132Y0023273D01*
X0053366Y0024508D01*
X0053366Y0026976D01*
X0054581Y0026976D02*
X0056432Y0026976D01*
X0057049Y0026359D01*
X0057049Y0023890D01*
X0056432Y0023273D01*
X0054581Y0023273D01*
X0054581Y0026976D01*
X0058264Y0026976D02*
X0058264Y0023273D01*
X0060115Y0023273D01*
X0060732Y0023890D01*
X0060732Y0026359D01*
X0060115Y0026976D01*
X0058264Y0026976D01*
X0050897Y0026976D02*
X0050897Y0024508D01*
X0046000Y0026359D02*
X0045383Y0026976D01*
X0044148Y0026976D01*
X0012644Y0027315D02*
X0012644Y0029783D01*
X0012026Y0032232D02*
X0010175Y0032232D01*
X0008940Y0033467D01*
X0008323Y0033467D01*
X0007526Y0033467D02*
X0003823Y0030998D01*
X0003823Y0033467D02*
X0007526Y0030998D01*
X0008323Y0030998D02*
X0008940Y0030998D01*
X0010175Y0032232D01*
X0008144Y0029783D02*
X0008144Y0027315D01*
X0008940Y0026100D02*
X0008323Y0025483D01*
X0008323Y0024249D01*
X0008940Y0023631D01*
X0011409Y0023631D01*
X0012026Y0024249D01*
X0012026Y0025483D01*
X0011409Y0026100D01*
X0007526Y0025483D02*
X0007526Y0024249D01*
X0006909Y0023631D01*
X0004440Y0023631D01*
X0003823Y0024249D01*
X0003823Y0025483D01*
X0004440Y0026100D01*
X0006909Y0026100D02*
X0007526Y0025483D01*
D14*
X0010087Y0070558D02*
X0011555Y0070558D01*
X0010821Y0070558D02*
X0010821Y0072760D01*
X0010087Y0072026D01*
X0004100Y0074311D02*
X0004100Y0075045D01*
X0003733Y0075412D01*
X0001898Y0075412D01*
X0002265Y0076154D02*
X0001898Y0076521D01*
X0001898Y0077255D01*
X0002265Y0077621D01*
X0002265Y0078363D02*
X0001898Y0078730D01*
X0001898Y0079464D01*
X0002265Y0079831D01*
X0002632Y0079831D01*
X0004100Y0078363D01*
X0004100Y0079831D01*
X0003733Y0077621D02*
X0003366Y0077621D01*
X0002999Y0077255D01*
X0002999Y0076521D01*
X0002632Y0076154D01*
X0002265Y0076154D01*
X0001531Y0076888D02*
X0004467Y0076888D01*
X0004100Y0076521D02*
X0004100Y0077255D01*
X0003733Y0077621D01*
X0004100Y0076521D02*
X0003733Y0076154D01*
X0004100Y0074311D02*
X0003733Y0073944D01*
X0001898Y0073944D01*
X0009694Y0091818D02*
X0011162Y0093286D01*
X0011162Y0093653D01*
X0010795Y0094020D01*
X0010061Y0094020D01*
X0009694Y0093653D01*
X0009694Y0091818D02*
X0011162Y0091818D01*
X0017450Y0080752D02*
X0018184Y0080018D01*
X0018918Y0080752D01*
X0018918Y0078550D01*
X0019659Y0078917D02*
X0020026Y0078550D01*
X0020760Y0078550D01*
X0021127Y0078917D01*
X0021127Y0080385D01*
X0020760Y0080752D01*
X0020026Y0080752D01*
X0019659Y0080385D01*
X0019659Y0078917D01*
X0017450Y0078550D02*
X0017450Y0080752D01*
X0021869Y0080752D02*
X0021869Y0078550D01*
X0023337Y0078550D01*
X0024079Y0078550D02*
X0025547Y0078550D01*
X0026289Y0078550D02*
X0027757Y0080752D01*
X0026289Y0080752D02*
X0027757Y0078550D01*
X0028499Y0078183D02*
X0029967Y0078183D01*
X0030709Y0078917D02*
X0031076Y0078550D01*
X0031810Y0078550D01*
X0032177Y0078917D01*
X0032177Y0079651D01*
X0031810Y0080018D01*
X0031443Y0080018D01*
X0030709Y0079651D01*
X0030709Y0080752D01*
X0032177Y0080752D01*
X0032919Y0080752D02*
X0032919Y0079651D01*
X0033653Y0080018D01*
X0034020Y0080018D01*
X0034387Y0079651D01*
X0034387Y0078917D01*
X0034020Y0078550D01*
X0033286Y0078550D01*
X0032919Y0078917D01*
X0032919Y0080752D02*
X0034387Y0080752D01*
X0035129Y0080385D02*
X0035496Y0080752D01*
X0036230Y0080752D01*
X0036597Y0080385D01*
X0036597Y0080018D01*
X0035129Y0078550D01*
X0036597Y0078550D01*
X0037339Y0078917D02*
X0038806Y0080385D01*
X0038806Y0078917D01*
X0038439Y0078550D01*
X0037705Y0078550D01*
X0037339Y0078917D01*
X0037339Y0080385D01*
X0037705Y0080752D01*
X0038439Y0080752D01*
X0038806Y0080385D01*
X0039548Y0080018D02*
X0040282Y0080752D01*
X0040282Y0078550D01*
X0039548Y0078550D02*
X0041016Y0078550D01*
X0041758Y0078917D02*
X0041758Y0080385D01*
X0042125Y0080752D01*
X0042859Y0080752D01*
X0043226Y0080385D01*
X0041758Y0078917D01*
X0042125Y0078550D01*
X0042859Y0078550D01*
X0043226Y0078917D01*
X0043226Y0080385D01*
X0043968Y0079651D02*
X0045436Y0079651D01*
X0045069Y0078550D02*
X0045069Y0080752D01*
X0043968Y0079651D01*
X0046178Y0078917D02*
X0046178Y0078550D01*
X0046178Y0078917D02*
X0047646Y0080385D01*
X0047646Y0080752D01*
X0046178Y0080752D01*
X0048388Y0080385D02*
X0048388Y0080018D01*
X0048755Y0079651D01*
X0049489Y0079651D01*
X0049856Y0079284D01*
X0049856Y0078917D01*
X0049489Y0078550D01*
X0048755Y0078550D01*
X0048388Y0078917D01*
X0048388Y0079284D01*
X0048755Y0079651D01*
X0049489Y0079651D02*
X0049856Y0080018D01*
X0049856Y0080385D01*
X0049489Y0080752D01*
X0048755Y0080752D01*
X0048388Y0080385D01*
X0052580Y0072760D02*
X0053314Y0072760D01*
X0053681Y0072393D01*
X0053681Y0072026D01*
X0053314Y0071659D01*
X0053681Y0071292D01*
X0053681Y0070925D01*
X0053314Y0070558D01*
X0052580Y0070558D01*
X0052213Y0070925D01*
X0052947Y0071659D02*
X0053314Y0071659D01*
X0054423Y0072026D02*
X0054423Y0072393D01*
X0054790Y0072760D01*
X0055524Y0072760D01*
X0055891Y0072393D01*
X0055891Y0070925D01*
X0055524Y0070558D01*
X0054790Y0070558D01*
X0054423Y0070925D01*
X0054790Y0071659D02*
X0054423Y0072026D01*
X0054790Y0071659D02*
X0055891Y0071659D01*
X0052580Y0072760D02*
X0052213Y0072393D01*
X0052527Y0091424D02*
X0052527Y0093626D01*
X0051426Y0092525D01*
X0052894Y0092525D01*
X0053636Y0091791D02*
X0053636Y0093259D01*
X0054003Y0093626D01*
X0054737Y0093626D01*
X0055104Y0093259D01*
X0053636Y0091791D01*
X0054003Y0091424D01*
X0054737Y0091424D01*
X0055104Y0091791D01*
X0055104Y0093259D01*
X0025547Y0080752D02*
X0024079Y0080752D01*
X0024079Y0078550D01*
X0024079Y0079651D02*
X0024813Y0079651D01*
M02*
