G75*
%MOIN*%
%OFA0B0*%
%FSLAX25Y25*%
%IPPOS*%
%LPD*%
%AMOC8*
5,1,8,0,0,1.08239X$1,22.5*
%
%ADD10C,0.00405*%
%ADD11C,0.00378*%
%ADD12C,0.00404*%
%ADD13C,0.00413*%
%ADD14C,0.00408*%
%ADD15C,0.00402*%
%ADD16C,0.00394*%
%ADD17C,0.02400*%
%ADD18C,0.00500*%
%ADD19C,0.03700*%
%ADD20C,0.03762*%
%ADD21C,0.01000*%
%ADD22C,0.00600*%
D10*
X0024552Y0019652D02*
X0025648Y0019652D01*
X0024552Y0019652D02*
X0024552Y0022248D01*
X0025648Y0022248D01*
X0025648Y0019652D01*
X0025648Y0020056D02*
X0024552Y0020056D01*
X0024552Y0020460D02*
X0025648Y0020460D01*
X0025648Y0020864D02*
X0024552Y0020864D01*
X0024552Y0021268D02*
X0025648Y0021268D01*
X0025648Y0021672D02*
X0024552Y0021672D01*
X0024552Y0022076D02*
X0025648Y0022076D01*
X0027052Y0019652D02*
X0028148Y0019652D01*
X0027052Y0019652D02*
X0027052Y0022248D01*
X0028148Y0022248D01*
X0028148Y0019652D01*
X0028148Y0020056D02*
X0027052Y0020056D01*
X0027052Y0020460D02*
X0028148Y0020460D01*
X0028148Y0020864D02*
X0027052Y0020864D01*
X0027052Y0021268D02*
X0028148Y0021268D01*
X0028148Y0021672D02*
X0027052Y0021672D01*
X0027052Y0022076D02*
X0028148Y0022076D01*
X0029552Y0019652D02*
X0030648Y0019652D01*
X0029552Y0019652D02*
X0029552Y0022248D01*
X0030648Y0022248D01*
X0030648Y0019652D01*
X0030648Y0020056D02*
X0029552Y0020056D01*
X0029552Y0020460D02*
X0030648Y0020460D01*
X0030648Y0020864D02*
X0029552Y0020864D01*
X0029552Y0021268D02*
X0030648Y0021268D01*
X0030648Y0021672D02*
X0029552Y0021672D01*
X0029552Y0022076D02*
X0030648Y0022076D01*
X0032052Y0019652D02*
X0033148Y0019652D01*
X0032052Y0019652D02*
X0032052Y0022248D01*
X0033148Y0022248D01*
X0033148Y0019652D01*
X0033148Y0020056D02*
X0032052Y0020056D01*
X0032052Y0020460D02*
X0033148Y0020460D01*
X0033148Y0020864D02*
X0032052Y0020864D01*
X0032052Y0021268D02*
X0033148Y0021268D01*
X0033148Y0021672D02*
X0032052Y0021672D01*
X0032052Y0022076D02*
X0033148Y0022076D01*
X0034552Y0019652D02*
X0035648Y0019652D01*
X0034552Y0019652D02*
X0034552Y0022248D01*
X0035648Y0022248D01*
X0035648Y0019652D01*
X0035648Y0020056D02*
X0034552Y0020056D01*
X0034552Y0020460D02*
X0035648Y0020460D01*
X0035648Y0020864D02*
X0034552Y0020864D01*
X0034552Y0021268D02*
X0035648Y0021268D01*
X0035648Y0021672D02*
X0034552Y0021672D01*
X0034552Y0022076D02*
X0035648Y0022076D01*
X0037052Y0019652D02*
X0038148Y0019652D01*
X0037052Y0019652D02*
X0037052Y0022248D01*
X0038148Y0022248D01*
X0038148Y0019652D01*
X0038148Y0020056D02*
X0037052Y0020056D01*
X0037052Y0020460D02*
X0038148Y0020460D01*
X0038148Y0020864D02*
X0037052Y0020864D01*
X0037052Y0021268D02*
X0038148Y0021268D01*
X0038148Y0021672D02*
X0037052Y0021672D01*
X0037052Y0022076D02*
X0038148Y0022076D01*
X0038148Y0023652D02*
X0037052Y0023652D01*
X0037052Y0027248D01*
X0038148Y0027248D01*
X0038148Y0023652D01*
X0038148Y0024056D02*
X0037052Y0024056D01*
X0037052Y0024460D02*
X0038148Y0024460D01*
X0038148Y0024864D02*
X0037052Y0024864D01*
X0037052Y0025268D02*
X0038148Y0025268D01*
X0038148Y0025672D02*
X0037052Y0025672D01*
X0037052Y0026076D02*
X0038148Y0026076D01*
X0038148Y0026480D02*
X0037052Y0026480D01*
X0037052Y0026884D02*
X0038148Y0026884D01*
X0035648Y0023652D02*
X0034552Y0023652D01*
X0034552Y0027248D01*
X0035648Y0027248D01*
X0035648Y0023652D01*
X0035648Y0024056D02*
X0034552Y0024056D01*
X0034552Y0024460D02*
X0035648Y0024460D01*
X0035648Y0024864D02*
X0034552Y0024864D01*
X0034552Y0025268D02*
X0035648Y0025268D01*
X0035648Y0025672D02*
X0034552Y0025672D01*
X0034552Y0026076D02*
X0035648Y0026076D01*
X0035648Y0026480D02*
X0034552Y0026480D01*
X0034552Y0026884D02*
X0035648Y0026884D01*
X0033148Y0023652D02*
X0032052Y0023652D01*
X0032052Y0027248D01*
X0033148Y0027248D01*
X0033148Y0023652D01*
X0033148Y0024056D02*
X0032052Y0024056D01*
X0032052Y0024460D02*
X0033148Y0024460D01*
X0033148Y0024864D02*
X0032052Y0024864D01*
X0032052Y0025268D02*
X0033148Y0025268D01*
X0033148Y0025672D02*
X0032052Y0025672D01*
X0032052Y0026076D02*
X0033148Y0026076D01*
X0033148Y0026480D02*
X0032052Y0026480D01*
X0032052Y0026884D02*
X0033148Y0026884D01*
X0030648Y0023652D02*
X0029552Y0023652D01*
X0029552Y0027248D01*
X0030648Y0027248D01*
X0030648Y0023652D01*
X0030648Y0024056D02*
X0029552Y0024056D01*
X0029552Y0024460D02*
X0030648Y0024460D01*
X0030648Y0024864D02*
X0029552Y0024864D01*
X0029552Y0025268D02*
X0030648Y0025268D01*
X0030648Y0025672D02*
X0029552Y0025672D01*
X0029552Y0026076D02*
X0030648Y0026076D01*
X0030648Y0026480D02*
X0029552Y0026480D01*
X0029552Y0026884D02*
X0030648Y0026884D01*
X0028148Y0023652D02*
X0027052Y0023652D01*
X0027052Y0027248D01*
X0028148Y0027248D01*
X0028148Y0023652D01*
X0028148Y0024056D02*
X0027052Y0024056D01*
X0027052Y0024460D02*
X0028148Y0024460D01*
X0028148Y0024864D02*
X0027052Y0024864D01*
X0027052Y0025268D02*
X0028148Y0025268D01*
X0028148Y0025672D02*
X0027052Y0025672D01*
X0027052Y0026076D02*
X0028148Y0026076D01*
X0028148Y0026480D02*
X0027052Y0026480D01*
X0027052Y0026884D02*
X0028148Y0026884D01*
X0025648Y0023652D02*
X0024552Y0023652D01*
X0024552Y0027248D01*
X0025648Y0027248D01*
X0025648Y0023652D01*
X0025648Y0024056D02*
X0024552Y0024056D01*
X0024552Y0024460D02*
X0025648Y0024460D01*
X0025648Y0024864D02*
X0024552Y0024864D01*
X0024552Y0025268D02*
X0025648Y0025268D01*
X0025648Y0025672D02*
X0024552Y0025672D01*
X0024552Y0026076D02*
X0025648Y0026076D01*
X0025648Y0026480D02*
X0024552Y0026480D01*
X0024552Y0026884D02*
X0025648Y0026884D01*
D11*
X0022090Y0042690D02*
X0040610Y0042690D01*
X0022090Y0042690D02*
X0022090Y0061210D01*
X0040610Y0061210D01*
X0040610Y0042690D01*
X0040610Y0043067D02*
X0022090Y0043067D01*
X0022090Y0043444D02*
X0040610Y0043444D01*
X0040610Y0043821D02*
X0022090Y0043821D01*
X0022090Y0044198D02*
X0040610Y0044198D01*
X0040610Y0044575D02*
X0022090Y0044575D01*
X0022090Y0044952D02*
X0040610Y0044952D01*
X0040610Y0045329D02*
X0022090Y0045329D01*
X0022090Y0045706D02*
X0040610Y0045706D01*
X0040610Y0046083D02*
X0022090Y0046083D01*
X0022090Y0046460D02*
X0040610Y0046460D01*
X0040610Y0046837D02*
X0022090Y0046837D01*
X0022090Y0047214D02*
X0040610Y0047214D01*
X0040610Y0047591D02*
X0022090Y0047591D01*
X0022090Y0047968D02*
X0040610Y0047968D01*
X0040610Y0048345D02*
X0022090Y0048345D01*
X0022090Y0048722D02*
X0040610Y0048722D01*
X0040610Y0049099D02*
X0022090Y0049099D01*
X0022090Y0049476D02*
X0040610Y0049476D01*
X0040610Y0049853D02*
X0022090Y0049853D01*
X0022090Y0050230D02*
X0040610Y0050230D01*
X0040610Y0050607D02*
X0022090Y0050607D01*
X0022090Y0050984D02*
X0040610Y0050984D01*
X0040610Y0051361D02*
X0022090Y0051361D01*
X0022090Y0051738D02*
X0040610Y0051738D01*
X0040610Y0052115D02*
X0022090Y0052115D01*
X0022090Y0052492D02*
X0040610Y0052492D01*
X0040610Y0052869D02*
X0022090Y0052869D01*
X0022090Y0053246D02*
X0040610Y0053246D01*
X0040610Y0053623D02*
X0022090Y0053623D01*
X0022090Y0054000D02*
X0040610Y0054000D01*
X0040610Y0054377D02*
X0022090Y0054377D01*
X0022090Y0054754D02*
X0040610Y0054754D01*
X0040610Y0055131D02*
X0022090Y0055131D01*
X0022090Y0055508D02*
X0040610Y0055508D01*
X0040610Y0055885D02*
X0022090Y0055885D01*
X0022090Y0056262D02*
X0040610Y0056262D01*
X0040610Y0056639D02*
X0022090Y0056639D01*
X0022090Y0057016D02*
X0040610Y0057016D01*
X0040610Y0057393D02*
X0022090Y0057393D01*
X0022090Y0057770D02*
X0040610Y0057770D01*
X0040610Y0058147D02*
X0022090Y0058147D01*
X0022090Y0058524D02*
X0040610Y0058524D01*
X0040610Y0058901D02*
X0022090Y0058901D01*
X0022090Y0059278D02*
X0040610Y0059278D01*
X0040610Y0059655D02*
X0022090Y0059655D01*
X0022090Y0060032D02*
X0040610Y0060032D01*
X0040610Y0060409D02*
X0022090Y0060409D01*
X0022090Y0060786D02*
X0040610Y0060786D01*
X0040610Y0061163D02*
X0022090Y0061163D01*
D12*
X0022781Y0066326D02*
X0022781Y0069464D01*
X0022781Y0066326D02*
X0022201Y0066326D01*
X0022201Y0069464D01*
X0022781Y0069464D01*
X0022781Y0066729D02*
X0022201Y0066729D01*
X0022201Y0067132D02*
X0022781Y0067132D01*
X0022781Y0067535D02*
X0022201Y0067535D01*
X0022201Y0067938D02*
X0022781Y0067938D01*
X0022781Y0068341D02*
X0022201Y0068341D01*
X0022201Y0068744D02*
X0022781Y0068744D01*
X0022781Y0069147D02*
X0022201Y0069147D01*
X0020813Y0069464D02*
X0020813Y0066326D01*
X0020233Y0066326D01*
X0020233Y0069464D01*
X0020813Y0069464D01*
X0020813Y0066729D02*
X0020233Y0066729D01*
X0020233Y0067132D02*
X0020813Y0067132D01*
X0020813Y0067535D02*
X0020233Y0067535D01*
X0020233Y0067938D02*
X0020813Y0067938D01*
X0020813Y0068341D02*
X0020233Y0068341D01*
X0020233Y0068744D02*
X0020813Y0068744D01*
X0020813Y0069147D02*
X0020233Y0069147D01*
X0018844Y0069464D02*
X0018844Y0066326D01*
X0018264Y0066326D01*
X0018264Y0069464D01*
X0018844Y0069464D01*
X0018844Y0066729D02*
X0018264Y0066729D01*
X0018264Y0067132D02*
X0018844Y0067132D01*
X0018844Y0067535D02*
X0018264Y0067535D01*
X0018264Y0067938D02*
X0018844Y0067938D01*
X0018844Y0068341D02*
X0018264Y0068341D01*
X0018264Y0068744D02*
X0018844Y0068744D01*
X0018844Y0069147D02*
X0018264Y0069147D01*
X0016974Y0064455D02*
X0013836Y0064455D01*
X0013836Y0065035D01*
X0016974Y0065035D01*
X0016974Y0064455D01*
X0016974Y0064858D02*
X0013836Y0064858D01*
X0013836Y0062487D02*
X0016974Y0062487D01*
X0013836Y0062487D02*
X0013836Y0063067D01*
X0016974Y0063067D01*
X0016974Y0062487D01*
X0016974Y0062890D02*
X0013836Y0062890D01*
X0013836Y0060518D02*
X0016974Y0060518D01*
X0013836Y0060518D02*
X0013836Y0061098D01*
X0016974Y0061098D01*
X0016974Y0060518D01*
X0016974Y0060921D02*
X0013836Y0060921D01*
X0013836Y0058550D02*
X0016974Y0058550D01*
X0013836Y0058550D02*
X0013836Y0059130D01*
X0016974Y0059130D01*
X0016974Y0058550D01*
X0016974Y0058953D02*
X0013836Y0058953D01*
X0013836Y0056581D02*
X0016974Y0056581D01*
X0013836Y0056581D02*
X0013836Y0057161D01*
X0016974Y0057161D01*
X0016974Y0056581D01*
X0016974Y0056984D02*
X0013836Y0056984D01*
X0013836Y0054613D02*
X0016974Y0054613D01*
X0013836Y0054613D02*
X0013836Y0055193D01*
X0016974Y0055193D01*
X0016974Y0054613D01*
X0016974Y0055016D02*
X0013836Y0055016D01*
X0013836Y0052644D02*
X0016974Y0052644D01*
X0013836Y0052644D02*
X0013836Y0053224D01*
X0016974Y0053224D01*
X0016974Y0052644D01*
X0016974Y0053047D02*
X0013836Y0053047D01*
X0013836Y0050676D02*
X0016974Y0050676D01*
X0013836Y0050676D02*
X0013836Y0051256D01*
X0016974Y0051256D01*
X0016974Y0050676D01*
X0016974Y0051079D02*
X0013836Y0051079D01*
X0013836Y0048707D02*
X0016974Y0048707D01*
X0013836Y0048707D02*
X0013836Y0049287D01*
X0016974Y0049287D01*
X0016974Y0048707D01*
X0016974Y0049110D02*
X0013836Y0049110D01*
X0013836Y0046739D02*
X0016974Y0046739D01*
X0013836Y0046739D02*
X0013836Y0047319D01*
X0016974Y0047319D01*
X0016974Y0046739D01*
X0016974Y0047142D02*
X0013836Y0047142D01*
X0013836Y0044770D02*
X0016974Y0044770D01*
X0013836Y0044770D02*
X0013836Y0045350D01*
X0016974Y0045350D01*
X0016974Y0044770D01*
X0016974Y0045173D02*
X0013836Y0045173D01*
X0013836Y0042802D02*
X0016974Y0042802D01*
X0013836Y0042802D02*
X0013836Y0043382D01*
X0016974Y0043382D01*
X0016974Y0042802D01*
X0016974Y0043205D02*
X0013836Y0043205D01*
X0013836Y0040833D02*
X0016974Y0040833D01*
X0013836Y0040833D02*
X0013836Y0041413D01*
X0016974Y0041413D01*
X0016974Y0040833D01*
X0016974Y0041236D02*
X0013836Y0041236D01*
X0013836Y0038865D02*
X0016974Y0038865D01*
X0013836Y0038865D02*
X0013836Y0039445D01*
X0016974Y0039445D01*
X0016974Y0038865D01*
X0016974Y0039268D02*
X0013836Y0039268D01*
X0018844Y0037574D02*
X0018844Y0034436D01*
X0018264Y0034436D01*
X0018264Y0037574D01*
X0018844Y0037574D01*
X0018844Y0034839D02*
X0018264Y0034839D01*
X0018264Y0035242D02*
X0018844Y0035242D01*
X0018844Y0035645D02*
X0018264Y0035645D01*
X0018264Y0036048D02*
X0018844Y0036048D01*
X0018844Y0036451D02*
X0018264Y0036451D01*
X0018264Y0036854D02*
X0018844Y0036854D01*
X0018844Y0037257D02*
X0018264Y0037257D01*
X0020813Y0037574D02*
X0020813Y0034436D01*
X0020233Y0034436D01*
X0020233Y0037574D01*
X0020813Y0037574D01*
X0020813Y0034839D02*
X0020233Y0034839D01*
X0020233Y0035242D02*
X0020813Y0035242D01*
X0020813Y0035645D02*
X0020233Y0035645D01*
X0020233Y0036048D02*
X0020813Y0036048D01*
X0020813Y0036451D02*
X0020233Y0036451D01*
X0020233Y0036854D02*
X0020813Y0036854D01*
X0020813Y0037257D02*
X0020233Y0037257D01*
X0022781Y0037574D02*
X0022781Y0034436D01*
X0022201Y0034436D01*
X0022201Y0037574D01*
X0022781Y0037574D01*
X0022781Y0034839D02*
X0022201Y0034839D01*
X0022201Y0035242D02*
X0022781Y0035242D01*
X0022781Y0035645D02*
X0022201Y0035645D01*
X0022201Y0036048D02*
X0022781Y0036048D01*
X0022781Y0036451D02*
X0022201Y0036451D01*
X0022201Y0036854D02*
X0022781Y0036854D01*
X0022781Y0037257D02*
X0022201Y0037257D01*
X0024750Y0037574D02*
X0024750Y0034436D01*
X0024170Y0034436D01*
X0024170Y0037574D01*
X0024750Y0037574D01*
X0024750Y0034839D02*
X0024170Y0034839D01*
X0024170Y0035242D02*
X0024750Y0035242D01*
X0024750Y0035645D02*
X0024170Y0035645D01*
X0024170Y0036048D02*
X0024750Y0036048D01*
X0024750Y0036451D02*
X0024170Y0036451D01*
X0024170Y0036854D02*
X0024750Y0036854D01*
X0024750Y0037257D02*
X0024170Y0037257D01*
X0026718Y0037574D02*
X0026718Y0034436D01*
X0026138Y0034436D01*
X0026138Y0037574D01*
X0026718Y0037574D01*
X0026718Y0034839D02*
X0026138Y0034839D01*
X0026138Y0035242D02*
X0026718Y0035242D01*
X0026718Y0035645D02*
X0026138Y0035645D01*
X0026138Y0036048D02*
X0026718Y0036048D01*
X0026718Y0036451D02*
X0026138Y0036451D01*
X0026138Y0036854D02*
X0026718Y0036854D01*
X0026718Y0037257D02*
X0026138Y0037257D01*
X0028687Y0037574D02*
X0028687Y0034436D01*
X0028107Y0034436D01*
X0028107Y0037574D01*
X0028687Y0037574D01*
X0028687Y0034839D02*
X0028107Y0034839D01*
X0028107Y0035242D02*
X0028687Y0035242D01*
X0028687Y0035645D02*
X0028107Y0035645D01*
X0028107Y0036048D02*
X0028687Y0036048D01*
X0028687Y0036451D02*
X0028107Y0036451D01*
X0028107Y0036854D02*
X0028687Y0036854D01*
X0028687Y0037257D02*
X0028107Y0037257D01*
X0030655Y0037574D02*
X0030655Y0034436D01*
X0030075Y0034436D01*
X0030075Y0037574D01*
X0030655Y0037574D01*
X0030655Y0034839D02*
X0030075Y0034839D01*
X0030075Y0035242D02*
X0030655Y0035242D01*
X0030655Y0035645D02*
X0030075Y0035645D01*
X0030075Y0036048D02*
X0030655Y0036048D01*
X0030655Y0036451D02*
X0030075Y0036451D01*
X0030075Y0036854D02*
X0030655Y0036854D01*
X0030655Y0037257D02*
X0030075Y0037257D01*
X0032624Y0037574D02*
X0032624Y0034436D01*
X0032044Y0034436D01*
X0032044Y0037574D01*
X0032624Y0037574D01*
X0032624Y0034839D02*
X0032044Y0034839D01*
X0032044Y0035242D02*
X0032624Y0035242D01*
X0032624Y0035645D02*
X0032044Y0035645D01*
X0032044Y0036048D02*
X0032624Y0036048D01*
X0032624Y0036451D02*
X0032044Y0036451D01*
X0032044Y0036854D02*
X0032624Y0036854D01*
X0032624Y0037257D02*
X0032044Y0037257D01*
X0034592Y0037574D02*
X0034592Y0034436D01*
X0034012Y0034436D01*
X0034012Y0037574D01*
X0034592Y0037574D01*
X0034592Y0034839D02*
X0034012Y0034839D01*
X0034012Y0035242D02*
X0034592Y0035242D01*
X0034592Y0035645D02*
X0034012Y0035645D01*
X0034012Y0036048D02*
X0034592Y0036048D01*
X0034592Y0036451D02*
X0034012Y0036451D01*
X0034012Y0036854D02*
X0034592Y0036854D01*
X0034592Y0037257D02*
X0034012Y0037257D01*
X0036561Y0037574D02*
X0036561Y0034436D01*
X0035981Y0034436D01*
X0035981Y0037574D01*
X0036561Y0037574D01*
X0036561Y0034839D02*
X0035981Y0034839D01*
X0035981Y0035242D02*
X0036561Y0035242D01*
X0036561Y0035645D02*
X0035981Y0035645D01*
X0035981Y0036048D02*
X0036561Y0036048D01*
X0036561Y0036451D02*
X0035981Y0036451D01*
X0035981Y0036854D02*
X0036561Y0036854D01*
X0036561Y0037257D02*
X0035981Y0037257D01*
X0038529Y0037574D02*
X0038529Y0034436D01*
X0037949Y0034436D01*
X0037949Y0037574D01*
X0038529Y0037574D01*
X0038529Y0034839D02*
X0037949Y0034839D01*
X0037949Y0035242D02*
X0038529Y0035242D01*
X0038529Y0035645D02*
X0037949Y0035645D01*
X0037949Y0036048D02*
X0038529Y0036048D01*
X0038529Y0036451D02*
X0037949Y0036451D01*
X0037949Y0036854D02*
X0038529Y0036854D01*
X0038529Y0037257D02*
X0037949Y0037257D01*
X0040498Y0037574D02*
X0040498Y0034436D01*
X0039918Y0034436D01*
X0039918Y0037574D01*
X0040498Y0037574D01*
X0040498Y0034839D02*
X0039918Y0034839D01*
X0039918Y0035242D02*
X0040498Y0035242D01*
X0040498Y0035645D02*
X0039918Y0035645D01*
X0039918Y0036048D02*
X0040498Y0036048D01*
X0040498Y0036451D02*
X0039918Y0036451D01*
X0039918Y0036854D02*
X0040498Y0036854D01*
X0040498Y0037257D02*
X0039918Y0037257D01*
X0042466Y0037574D02*
X0042466Y0034436D01*
X0041886Y0034436D01*
X0041886Y0037574D01*
X0042466Y0037574D01*
X0042466Y0034839D02*
X0041886Y0034839D01*
X0041886Y0035242D02*
X0042466Y0035242D01*
X0042466Y0035645D02*
X0041886Y0035645D01*
X0041886Y0036048D02*
X0042466Y0036048D01*
X0042466Y0036451D02*
X0041886Y0036451D01*
X0041886Y0036854D02*
X0042466Y0036854D01*
X0042466Y0037257D02*
X0041886Y0037257D01*
X0044435Y0037574D02*
X0044435Y0034436D01*
X0043855Y0034436D01*
X0043855Y0037574D01*
X0044435Y0037574D01*
X0044435Y0034839D02*
X0043855Y0034839D01*
X0043855Y0035242D02*
X0044435Y0035242D01*
X0044435Y0035645D02*
X0043855Y0035645D01*
X0043855Y0036048D02*
X0044435Y0036048D01*
X0044435Y0036451D02*
X0043855Y0036451D01*
X0043855Y0036854D02*
X0044435Y0036854D01*
X0044435Y0037257D02*
X0043855Y0037257D01*
X0045725Y0038865D02*
X0048863Y0038865D01*
X0045725Y0038865D02*
X0045725Y0039445D01*
X0048863Y0039445D01*
X0048863Y0038865D01*
X0048863Y0039268D02*
X0045725Y0039268D01*
X0045725Y0040833D02*
X0048863Y0040833D01*
X0045725Y0040833D02*
X0045725Y0041413D01*
X0048863Y0041413D01*
X0048863Y0040833D01*
X0048863Y0041236D02*
X0045725Y0041236D01*
X0045725Y0042802D02*
X0048863Y0042802D01*
X0045725Y0042802D02*
X0045725Y0043382D01*
X0048863Y0043382D01*
X0048863Y0042802D01*
X0048863Y0043205D02*
X0045725Y0043205D01*
X0045725Y0044770D02*
X0048863Y0044770D01*
X0045725Y0044770D02*
X0045725Y0045350D01*
X0048863Y0045350D01*
X0048863Y0044770D01*
X0048863Y0045173D02*
X0045725Y0045173D01*
X0045725Y0046739D02*
X0048863Y0046739D01*
X0045725Y0046739D02*
X0045725Y0047319D01*
X0048863Y0047319D01*
X0048863Y0046739D01*
X0048863Y0047142D02*
X0045725Y0047142D01*
X0045725Y0048707D02*
X0048863Y0048707D01*
X0045725Y0048707D02*
X0045725Y0049287D01*
X0048863Y0049287D01*
X0048863Y0048707D01*
X0048863Y0049110D02*
X0045725Y0049110D01*
X0045725Y0050676D02*
X0048863Y0050676D01*
X0045725Y0050676D02*
X0045725Y0051256D01*
X0048863Y0051256D01*
X0048863Y0050676D01*
X0048863Y0051079D02*
X0045725Y0051079D01*
X0045725Y0052644D02*
X0048863Y0052644D01*
X0045725Y0052644D02*
X0045725Y0053224D01*
X0048863Y0053224D01*
X0048863Y0052644D01*
X0048863Y0053047D02*
X0045725Y0053047D01*
X0045725Y0054613D02*
X0048863Y0054613D01*
X0045725Y0054613D02*
X0045725Y0055193D01*
X0048863Y0055193D01*
X0048863Y0054613D01*
X0048863Y0055016D02*
X0045725Y0055016D01*
X0045725Y0056581D02*
X0048863Y0056581D01*
X0045725Y0056581D02*
X0045725Y0057161D01*
X0048863Y0057161D01*
X0048863Y0056581D01*
X0048863Y0056984D02*
X0045725Y0056984D01*
X0045725Y0058550D02*
X0048863Y0058550D01*
X0045725Y0058550D02*
X0045725Y0059130D01*
X0048863Y0059130D01*
X0048863Y0058550D01*
X0048863Y0058953D02*
X0045725Y0058953D01*
X0045725Y0060518D02*
X0048863Y0060518D01*
X0045725Y0060518D02*
X0045725Y0061098D01*
X0048863Y0061098D01*
X0048863Y0060518D01*
X0048863Y0060921D02*
X0045725Y0060921D01*
X0045725Y0062487D02*
X0048863Y0062487D01*
X0045725Y0062487D02*
X0045725Y0063067D01*
X0048863Y0063067D01*
X0048863Y0062487D01*
X0048863Y0062890D02*
X0045725Y0062890D01*
X0045725Y0064455D02*
X0048863Y0064455D01*
X0045725Y0064455D02*
X0045725Y0065035D01*
X0048863Y0065035D01*
X0048863Y0064455D01*
X0048863Y0064858D02*
X0045725Y0064858D01*
X0044435Y0066326D02*
X0044435Y0069464D01*
X0044435Y0066326D02*
X0043855Y0066326D01*
X0043855Y0069464D01*
X0044435Y0069464D01*
X0044435Y0066729D02*
X0043855Y0066729D01*
X0043855Y0067132D02*
X0044435Y0067132D01*
X0044435Y0067535D02*
X0043855Y0067535D01*
X0043855Y0067938D02*
X0044435Y0067938D01*
X0044435Y0068341D02*
X0043855Y0068341D01*
X0043855Y0068744D02*
X0044435Y0068744D01*
X0044435Y0069147D02*
X0043855Y0069147D01*
X0042466Y0069464D02*
X0042466Y0066326D01*
X0041886Y0066326D01*
X0041886Y0069464D01*
X0042466Y0069464D01*
X0042466Y0066729D02*
X0041886Y0066729D01*
X0041886Y0067132D02*
X0042466Y0067132D01*
X0042466Y0067535D02*
X0041886Y0067535D01*
X0041886Y0067938D02*
X0042466Y0067938D01*
X0042466Y0068341D02*
X0041886Y0068341D01*
X0041886Y0068744D02*
X0042466Y0068744D01*
X0042466Y0069147D02*
X0041886Y0069147D01*
X0040498Y0069464D02*
X0040498Y0066326D01*
X0039918Y0066326D01*
X0039918Y0069464D01*
X0040498Y0069464D01*
X0040498Y0066729D02*
X0039918Y0066729D01*
X0039918Y0067132D02*
X0040498Y0067132D01*
X0040498Y0067535D02*
X0039918Y0067535D01*
X0039918Y0067938D02*
X0040498Y0067938D01*
X0040498Y0068341D02*
X0039918Y0068341D01*
X0039918Y0068744D02*
X0040498Y0068744D01*
X0040498Y0069147D02*
X0039918Y0069147D01*
X0038529Y0069464D02*
X0038529Y0066326D01*
X0037949Y0066326D01*
X0037949Y0069464D01*
X0038529Y0069464D01*
X0038529Y0066729D02*
X0037949Y0066729D01*
X0037949Y0067132D02*
X0038529Y0067132D01*
X0038529Y0067535D02*
X0037949Y0067535D01*
X0037949Y0067938D02*
X0038529Y0067938D01*
X0038529Y0068341D02*
X0037949Y0068341D01*
X0037949Y0068744D02*
X0038529Y0068744D01*
X0038529Y0069147D02*
X0037949Y0069147D01*
X0036561Y0069464D02*
X0036561Y0066326D01*
X0035981Y0066326D01*
X0035981Y0069464D01*
X0036561Y0069464D01*
X0036561Y0066729D02*
X0035981Y0066729D01*
X0035981Y0067132D02*
X0036561Y0067132D01*
X0036561Y0067535D02*
X0035981Y0067535D01*
X0035981Y0067938D02*
X0036561Y0067938D01*
X0036561Y0068341D02*
X0035981Y0068341D01*
X0035981Y0068744D02*
X0036561Y0068744D01*
X0036561Y0069147D02*
X0035981Y0069147D01*
X0034592Y0069464D02*
X0034592Y0066326D01*
X0034012Y0066326D01*
X0034012Y0069464D01*
X0034592Y0069464D01*
X0034592Y0066729D02*
X0034012Y0066729D01*
X0034012Y0067132D02*
X0034592Y0067132D01*
X0034592Y0067535D02*
X0034012Y0067535D01*
X0034012Y0067938D02*
X0034592Y0067938D01*
X0034592Y0068341D02*
X0034012Y0068341D01*
X0034012Y0068744D02*
X0034592Y0068744D01*
X0034592Y0069147D02*
X0034012Y0069147D01*
X0032624Y0069464D02*
X0032624Y0066326D01*
X0032044Y0066326D01*
X0032044Y0069464D01*
X0032624Y0069464D01*
X0032624Y0066729D02*
X0032044Y0066729D01*
X0032044Y0067132D02*
X0032624Y0067132D01*
X0032624Y0067535D02*
X0032044Y0067535D01*
X0032044Y0067938D02*
X0032624Y0067938D01*
X0032624Y0068341D02*
X0032044Y0068341D01*
X0032044Y0068744D02*
X0032624Y0068744D01*
X0032624Y0069147D02*
X0032044Y0069147D01*
X0030655Y0069464D02*
X0030655Y0066326D01*
X0030075Y0066326D01*
X0030075Y0069464D01*
X0030655Y0069464D01*
X0030655Y0066729D02*
X0030075Y0066729D01*
X0030075Y0067132D02*
X0030655Y0067132D01*
X0030655Y0067535D02*
X0030075Y0067535D01*
X0030075Y0067938D02*
X0030655Y0067938D01*
X0030655Y0068341D02*
X0030075Y0068341D01*
X0030075Y0068744D02*
X0030655Y0068744D01*
X0030655Y0069147D02*
X0030075Y0069147D01*
X0028687Y0069464D02*
X0028687Y0066326D01*
X0028107Y0066326D01*
X0028107Y0069464D01*
X0028687Y0069464D01*
X0028687Y0066729D02*
X0028107Y0066729D01*
X0028107Y0067132D02*
X0028687Y0067132D01*
X0028687Y0067535D02*
X0028107Y0067535D01*
X0028107Y0067938D02*
X0028687Y0067938D01*
X0028687Y0068341D02*
X0028107Y0068341D01*
X0028107Y0068744D02*
X0028687Y0068744D01*
X0028687Y0069147D02*
X0028107Y0069147D01*
X0026718Y0069464D02*
X0026718Y0066326D01*
X0026138Y0066326D01*
X0026138Y0069464D01*
X0026718Y0069464D01*
X0026718Y0066729D02*
X0026138Y0066729D01*
X0026138Y0067132D02*
X0026718Y0067132D01*
X0026718Y0067535D02*
X0026138Y0067535D01*
X0026138Y0067938D02*
X0026718Y0067938D01*
X0026718Y0068341D02*
X0026138Y0068341D01*
X0026138Y0068744D02*
X0026718Y0068744D01*
X0026718Y0069147D02*
X0026138Y0069147D01*
X0024750Y0069464D02*
X0024750Y0066326D01*
X0024170Y0066326D01*
X0024170Y0069464D01*
X0024750Y0069464D01*
X0024750Y0066729D02*
X0024170Y0066729D01*
X0024170Y0067132D02*
X0024750Y0067132D01*
X0024750Y0067535D02*
X0024170Y0067535D01*
X0024170Y0067938D02*
X0024750Y0067938D01*
X0024750Y0068341D02*
X0024170Y0068341D01*
X0024170Y0068744D02*
X0024750Y0068744D01*
X0024750Y0069147D02*
X0024170Y0069147D01*
D13*
X0023415Y0028181D02*
X0023415Y0025837D01*
X0020285Y0025837D01*
X0020285Y0028181D01*
X0023415Y0028181D01*
X0023415Y0026249D02*
X0020285Y0026249D01*
X0020285Y0026661D02*
X0023415Y0026661D01*
X0023415Y0027073D02*
X0020285Y0027073D01*
X0020285Y0027485D02*
X0023415Y0027485D01*
X0023415Y0027897D02*
X0020285Y0027897D01*
X0023415Y0023063D02*
X0023415Y0020719D01*
X0020285Y0020719D01*
X0020285Y0023063D01*
X0023415Y0023063D01*
X0023415Y0021131D02*
X0020285Y0021131D01*
X0020285Y0021543D02*
X0023415Y0021543D01*
X0023415Y0021955D02*
X0020285Y0021955D01*
X0020285Y0022367D02*
X0023415Y0022367D01*
X0023415Y0022779D02*
X0020285Y0022779D01*
X0054415Y0034719D02*
X0054415Y0037063D01*
X0054415Y0034719D02*
X0051285Y0034719D01*
X0051285Y0037063D01*
X0054415Y0037063D01*
X0054415Y0035131D02*
X0051285Y0035131D01*
X0051285Y0035543D02*
X0054415Y0035543D01*
X0054415Y0035955D02*
X0051285Y0035955D01*
X0051285Y0036367D02*
X0054415Y0036367D01*
X0054415Y0036779D02*
X0051285Y0036779D01*
X0054415Y0039837D02*
X0054415Y0042181D01*
X0054415Y0039837D02*
X0051285Y0039837D01*
X0051285Y0042181D01*
X0054415Y0042181D01*
X0054415Y0040249D02*
X0051285Y0040249D01*
X0051285Y0040661D02*
X0054415Y0040661D01*
X0054415Y0041073D02*
X0051285Y0041073D01*
X0051285Y0041485D02*
X0054415Y0041485D01*
X0054415Y0041897D02*
X0051285Y0041897D01*
D14*
X0048602Y0033429D02*
X0048602Y0030195D01*
X0046098Y0030195D01*
X0046098Y0033429D01*
X0048602Y0033429D01*
X0048602Y0030602D02*
X0046098Y0030602D01*
X0046098Y0031009D02*
X0048602Y0031009D01*
X0048602Y0031416D02*
X0046098Y0031416D01*
X0046098Y0031823D02*
X0048602Y0031823D01*
X0048602Y0032230D02*
X0046098Y0032230D01*
X0046098Y0032637D02*
X0048602Y0032637D01*
X0048602Y0033044D02*
X0046098Y0033044D01*
X0048602Y0028705D02*
X0048602Y0025471D01*
X0046098Y0025471D01*
X0046098Y0028705D01*
X0048602Y0028705D01*
X0048602Y0025878D02*
X0046098Y0025878D01*
X0046098Y0026285D02*
X0048602Y0026285D01*
X0048602Y0026692D02*
X0046098Y0026692D01*
X0046098Y0027099D02*
X0048602Y0027099D01*
X0048602Y0027506D02*
X0046098Y0027506D01*
X0046098Y0027913D02*
X0048602Y0027913D01*
X0048602Y0028320D02*
X0046098Y0028320D01*
X0046095Y0020198D02*
X0049329Y0020198D01*
X0046095Y0020198D02*
X0046095Y0022702D01*
X0049329Y0022702D01*
X0049329Y0020198D01*
X0049329Y0020605D02*
X0046095Y0020605D01*
X0046095Y0021012D02*
X0049329Y0021012D01*
X0049329Y0021419D02*
X0046095Y0021419D01*
X0046095Y0021826D02*
X0049329Y0021826D01*
X0049329Y0022233D02*
X0046095Y0022233D01*
X0046095Y0022640D02*
X0049329Y0022640D01*
X0044604Y0020198D02*
X0041370Y0020198D01*
X0041370Y0022702D01*
X0044604Y0022702D01*
X0044604Y0020198D01*
X0044604Y0020605D02*
X0041370Y0020605D01*
X0041370Y0021012D02*
X0044604Y0021012D01*
X0044604Y0021419D02*
X0041370Y0021419D01*
X0041370Y0021826D02*
X0044604Y0021826D01*
X0044604Y0022233D02*
X0041370Y0022233D01*
X0041370Y0022640D02*
X0044604Y0022640D01*
X0015102Y0021471D02*
X0015102Y0024705D01*
X0015102Y0021471D02*
X0012598Y0021471D01*
X0012598Y0024705D01*
X0015102Y0024705D01*
X0015102Y0021878D02*
X0012598Y0021878D01*
X0012598Y0022285D02*
X0015102Y0022285D01*
X0015102Y0022692D02*
X0012598Y0022692D01*
X0012598Y0023099D02*
X0015102Y0023099D01*
X0015102Y0023506D02*
X0012598Y0023506D01*
X0012598Y0023913D02*
X0015102Y0023913D01*
X0015102Y0024320D02*
X0012598Y0024320D01*
X0015102Y0026195D02*
X0015102Y0029429D01*
X0015102Y0026195D02*
X0012598Y0026195D01*
X0012598Y0029429D01*
X0015102Y0029429D01*
X0015102Y0026602D02*
X0012598Y0026602D01*
X0012598Y0027009D02*
X0015102Y0027009D01*
X0015102Y0027416D02*
X0012598Y0027416D01*
X0012598Y0027823D02*
X0015102Y0027823D01*
X0015102Y0028230D02*
X0012598Y0028230D01*
X0012598Y0028637D02*
X0015102Y0028637D01*
X0015102Y0029044D02*
X0012598Y0029044D01*
X0010602Y0029429D02*
X0010602Y0026195D01*
X0008098Y0026195D01*
X0008098Y0029429D01*
X0010602Y0029429D01*
X0010602Y0026602D02*
X0008098Y0026602D01*
X0008098Y0027009D02*
X0010602Y0027009D01*
X0010602Y0027416D02*
X0008098Y0027416D01*
X0008098Y0027823D02*
X0010602Y0027823D01*
X0010602Y0028230D02*
X0008098Y0028230D01*
X0008098Y0028637D02*
X0010602Y0028637D01*
X0010602Y0029044D02*
X0008098Y0029044D01*
X0010602Y0024705D02*
X0010602Y0021471D01*
X0008098Y0021471D01*
X0008098Y0024705D01*
X0010602Y0024705D01*
X0010602Y0021878D02*
X0008098Y0021878D01*
X0008098Y0022285D02*
X0010602Y0022285D01*
X0010602Y0022692D02*
X0008098Y0022692D01*
X0008098Y0023099D02*
X0010602Y0023099D01*
X0010602Y0023506D02*
X0008098Y0023506D01*
X0008098Y0023913D02*
X0010602Y0023913D01*
X0010602Y0024320D02*
X0008098Y0024320D01*
D15*
X0013132Y0072234D02*
X0013132Y0075768D01*
X0013132Y0072234D02*
X0012354Y0072234D01*
X0012354Y0075768D01*
X0013132Y0075768D01*
X0013132Y0072635D02*
X0012354Y0072635D01*
X0012354Y0073036D02*
X0013132Y0073036D01*
X0013132Y0073437D02*
X0012354Y0073437D01*
X0012354Y0073838D02*
X0013132Y0073838D01*
X0013132Y0074239D02*
X0012354Y0074239D01*
X0012354Y0074640D02*
X0013132Y0074640D01*
X0013132Y0075041D02*
X0012354Y0075041D01*
X0012354Y0075442D02*
X0013132Y0075442D01*
X0015101Y0075768D02*
X0015101Y0072234D01*
X0014323Y0072234D01*
X0014323Y0075768D01*
X0015101Y0075768D01*
X0015101Y0072635D02*
X0014323Y0072635D01*
X0014323Y0073036D02*
X0015101Y0073036D01*
X0015101Y0073437D02*
X0014323Y0073437D01*
X0014323Y0073838D02*
X0015101Y0073838D01*
X0015101Y0074239D02*
X0014323Y0074239D01*
X0014323Y0074640D02*
X0015101Y0074640D01*
X0015101Y0075041D02*
X0014323Y0075041D01*
X0014323Y0075442D02*
X0015101Y0075442D01*
X0017069Y0075768D02*
X0017069Y0072234D01*
X0016291Y0072234D01*
X0016291Y0075768D01*
X0017069Y0075768D01*
X0017069Y0072635D02*
X0016291Y0072635D01*
X0016291Y0073036D02*
X0017069Y0073036D01*
X0017069Y0073437D02*
X0016291Y0073437D01*
X0016291Y0073838D02*
X0017069Y0073838D01*
X0017069Y0074239D02*
X0016291Y0074239D01*
X0016291Y0074640D02*
X0017069Y0074640D01*
X0017069Y0075041D02*
X0016291Y0075041D01*
X0016291Y0075442D02*
X0017069Y0075442D01*
X0019038Y0075768D02*
X0019038Y0072234D01*
X0018260Y0072234D01*
X0018260Y0075768D01*
X0019038Y0075768D01*
X0019038Y0072635D02*
X0018260Y0072635D01*
X0018260Y0073036D02*
X0019038Y0073036D01*
X0019038Y0073437D02*
X0018260Y0073437D01*
X0018260Y0073838D02*
X0019038Y0073838D01*
X0019038Y0074239D02*
X0018260Y0074239D01*
X0018260Y0074640D02*
X0019038Y0074640D01*
X0019038Y0075041D02*
X0018260Y0075041D01*
X0018260Y0075442D02*
X0019038Y0075442D01*
X0021006Y0075768D02*
X0021006Y0072234D01*
X0020228Y0072234D01*
X0020228Y0075768D01*
X0021006Y0075768D01*
X0021006Y0072635D02*
X0020228Y0072635D01*
X0020228Y0073036D02*
X0021006Y0073036D01*
X0021006Y0073437D02*
X0020228Y0073437D01*
X0020228Y0073838D02*
X0021006Y0073838D01*
X0021006Y0074239D02*
X0020228Y0074239D01*
X0020228Y0074640D02*
X0021006Y0074640D01*
X0021006Y0075041D02*
X0020228Y0075041D01*
X0020228Y0075442D02*
X0021006Y0075442D01*
X0022975Y0075768D02*
X0022975Y0072234D01*
X0022197Y0072234D01*
X0022197Y0075768D01*
X0022975Y0075768D01*
X0022975Y0072635D02*
X0022197Y0072635D01*
X0022197Y0073036D02*
X0022975Y0073036D01*
X0022975Y0073437D02*
X0022197Y0073437D01*
X0022197Y0073838D02*
X0022975Y0073838D01*
X0022975Y0074239D02*
X0022197Y0074239D01*
X0022197Y0074640D02*
X0022975Y0074640D01*
X0022975Y0075041D02*
X0022197Y0075041D01*
X0022197Y0075442D02*
X0022975Y0075442D01*
X0024943Y0075768D02*
X0024943Y0072234D01*
X0024165Y0072234D01*
X0024165Y0075768D01*
X0024943Y0075768D01*
X0024943Y0072635D02*
X0024165Y0072635D01*
X0024165Y0073036D02*
X0024943Y0073036D01*
X0024943Y0073437D02*
X0024165Y0073437D01*
X0024165Y0073838D02*
X0024943Y0073838D01*
X0024943Y0074239D02*
X0024165Y0074239D01*
X0024165Y0074640D02*
X0024943Y0074640D01*
X0024943Y0075041D02*
X0024165Y0075041D01*
X0024165Y0075442D02*
X0024943Y0075442D01*
X0026912Y0075768D02*
X0026912Y0072234D01*
X0026134Y0072234D01*
X0026134Y0075768D01*
X0026912Y0075768D01*
X0026912Y0072635D02*
X0026134Y0072635D01*
X0026134Y0073036D02*
X0026912Y0073036D01*
X0026912Y0073437D02*
X0026134Y0073437D01*
X0026134Y0073838D02*
X0026912Y0073838D01*
X0026912Y0074239D02*
X0026134Y0074239D01*
X0026134Y0074640D02*
X0026912Y0074640D01*
X0026912Y0075041D02*
X0026134Y0075041D01*
X0026134Y0075442D02*
X0026912Y0075442D01*
X0028880Y0075768D02*
X0028880Y0072234D01*
X0028102Y0072234D01*
X0028102Y0075768D01*
X0028880Y0075768D01*
X0028880Y0072635D02*
X0028102Y0072635D01*
X0028102Y0073036D02*
X0028880Y0073036D01*
X0028880Y0073437D02*
X0028102Y0073437D01*
X0028102Y0073838D02*
X0028880Y0073838D01*
X0028880Y0074239D02*
X0028102Y0074239D01*
X0028102Y0074640D02*
X0028880Y0074640D01*
X0028880Y0075041D02*
X0028102Y0075041D01*
X0028102Y0075442D02*
X0028880Y0075442D01*
X0030849Y0075768D02*
X0030849Y0072234D01*
X0030071Y0072234D01*
X0030071Y0075768D01*
X0030849Y0075768D01*
X0030849Y0072635D02*
X0030071Y0072635D01*
X0030071Y0073036D02*
X0030849Y0073036D01*
X0030849Y0073437D02*
X0030071Y0073437D01*
X0030071Y0073838D02*
X0030849Y0073838D01*
X0030849Y0074239D02*
X0030071Y0074239D01*
X0030071Y0074640D02*
X0030849Y0074640D01*
X0030849Y0075041D02*
X0030071Y0075041D01*
X0030071Y0075442D02*
X0030849Y0075442D01*
X0032817Y0075768D02*
X0032817Y0072234D01*
X0032039Y0072234D01*
X0032039Y0075768D01*
X0032817Y0075768D01*
X0032817Y0072635D02*
X0032039Y0072635D01*
X0032039Y0073036D02*
X0032817Y0073036D01*
X0032817Y0073437D02*
X0032039Y0073437D01*
X0032039Y0073838D02*
X0032817Y0073838D01*
X0032817Y0074239D02*
X0032039Y0074239D01*
X0032039Y0074640D02*
X0032817Y0074640D01*
X0032817Y0075041D02*
X0032039Y0075041D01*
X0032039Y0075442D02*
X0032817Y0075442D01*
X0034786Y0075768D02*
X0034786Y0072234D01*
X0034008Y0072234D01*
X0034008Y0075768D01*
X0034786Y0075768D01*
X0034786Y0072635D02*
X0034008Y0072635D01*
X0034008Y0073036D02*
X0034786Y0073036D01*
X0034786Y0073437D02*
X0034008Y0073437D01*
X0034008Y0073838D02*
X0034786Y0073838D01*
X0034786Y0074239D02*
X0034008Y0074239D01*
X0034008Y0074640D02*
X0034786Y0074640D01*
X0034786Y0075041D02*
X0034008Y0075041D01*
X0034008Y0075442D02*
X0034786Y0075442D01*
X0036754Y0075768D02*
X0036754Y0072234D01*
X0035976Y0072234D01*
X0035976Y0075768D01*
X0036754Y0075768D01*
X0036754Y0072635D02*
X0035976Y0072635D01*
X0035976Y0073036D02*
X0036754Y0073036D01*
X0036754Y0073437D02*
X0035976Y0073437D01*
X0035976Y0073838D02*
X0036754Y0073838D01*
X0036754Y0074239D02*
X0035976Y0074239D01*
X0035976Y0074640D02*
X0036754Y0074640D01*
X0036754Y0075041D02*
X0035976Y0075041D01*
X0035976Y0075442D02*
X0036754Y0075442D01*
X0038723Y0075768D02*
X0038723Y0072234D01*
X0037945Y0072234D01*
X0037945Y0075768D01*
X0038723Y0075768D01*
X0038723Y0072635D02*
X0037945Y0072635D01*
X0037945Y0073036D02*
X0038723Y0073036D01*
X0038723Y0073437D02*
X0037945Y0073437D01*
X0037945Y0073838D02*
X0038723Y0073838D01*
X0038723Y0074239D02*
X0037945Y0074239D01*
X0037945Y0074640D02*
X0038723Y0074640D01*
X0038723Y0075041D02*
X0037945Y0075041D01*
X0037945Y0075442D02*
X0038723Y0075442D01*
X0040691Y0075768D02*
X0040691Y0072234D01*
X0039913Y0072234D01*
X0039913Y0075768D01*
X0040691Y0075768D01*
X0040691Y0072635D02*
X0039913Y0072635D01*
X0039913Y0073036D02*
X0040691Y0073036D01*
X0040691Y0073437D02*
X0039913Y0073437D01*
X0039913Y0073838D02*
X0040691Y0073838D01*
X0040691Y0074239D02*
X0039913Y0074239D01*
X0039913Y0074640D02*
X0040691Y0074640D01*
X0040691Y0075041D02*
X0039913Y0075041D01*
X0039913Y0075442D02*
X0040691Y0075442D01*
X0042660Y0075768D02*
X0042660Y0072234D01*
X0041882Y0072234D01*
X0041882Y0075768D01*
X0042660Y0075768D01*
X0042660Y0072635D02*
X0041882Y0072635D01*
X0041882Y0073036D02*
X0042660Y0073036D01*
X0042660Y0073437D02*
X0041882Y0073437D01*
X0041882Y0073838D02*
X0042660Y0073838D01*
X0042660Y0074239D02*
X0041882Y0074239D01*
X0041882Y0074640D02*
X0042660Y0074640D01*
X0042660Y0075041D02*
X0041882Y0075041D01*
X0041882Y0075442D02*
X0042660Y0075442D01*
X0044628Y0075768D02*
X0044628Y0072234D01*
X0043850Y0072234D01*
X0043850Y0075768D01*
X0044628Y0075768D01*
X0044628Y0072635D02*
X0043850Y0072635D01*
X0043850Y0073036D02*
X0044628Y0073036D01*
X0044628Y0073437D02*
X0043850Y0073437D01*
X0043850Y0073838D02*
X0044628Y0073838D01*
X0044628Y0074239D02*
X0043850Y0074239D01*
X0043850Y0074640D02*
X0044628Y0074640D01*
X0044628Y0075041D02*
X0043850Y0075041D01*
X0043850Y0075442D02*
X0044628Y0075442D01*
X0046597Y0075768D02*
X0046597Y0072234D01*
X0045819Y0072234D01*
X0045819Y0075768D01*
X0046597Y0075768D01*
X0046597Y0072635D02*
X0045819Y0072635D01*
X0045819Y0073036D02*
X0046597Y0073036D01*
X0046597Y0073437D02*
X0045819Y0073437D01*
X0045819Y0073838D02*
X0046597Y0073838D01*
X0046597Y0074239D02*
X0045819Y0074239D01*
X0045819Y0074640D02*
X0046597Y0074640D01*
X0046597Y0075041D02*
X0045819Y0075041D01*
X0045819Y0075442D02*
X0046597Y0075442D01*
X0048565Y0075768D02*
X0048565Y0072234D01*
X0047787Y0072234D01*
X0047787Y0075768D01*
X0048565Y0075768D01*
X0048565Y0072635D02*
X0047787Y0072635D01*
X0047787Y0073036D02*
X0048565Y0073036D01*
X0048565Y0073437D02*
X0047787Y0073437D01*
X0047787Y0073838D02*
X0048565Y0073838D01*
X0048565Y0074239D02*
X0047787Y0074239D01*
X0047787Y0074640D02*
X0048565Y0074640D01*
X0048565Y0075041D02*
X0047787Y0075041D01*
X0047787Y0075442D02*
X0048565Y0075442D01*
X0050534Y0075768D02*
X0050534Y0072234D01*
X0049756Y0072234D01*
X0049756Y0075768D01*
X0050534Y0075768D01*
X0050534Y0072635D02*
X0049756Y0072635D01*
X0049756Y0073036D02*
X0050534Y0073036D01*
X0050534Y0073437D02*
X0049756Y0073437D01*
X0049756Y0073838D02*
X0050534Y0073838D01*
X0050534Y0074239D02*
X0049756Y0074239D01*
X0049756Y0074640D02*
X0050534Y0074640D01*
X0050534Y0075041D02*
X0049756Y0075041D01*
X0049756Y0075442D02*
X0050534Y0075442D01*
X0050534Y0087589D02*
X0050534Y0091123D01*
X0050534Y0087589D02*
X0049756Y0087589D01*
X0049756Y0091123D01*
X0050534Y0091123D01*
X0050534Y0087990D02*
X0049756Y0087990D01*
X0049756Y0088391D02*
X0050534Y0088391D01*
X0050534Y0088792D02*
X0049756Y0088792D01*
X0049756Y0089193D02*
X0050534Y0089193D01*
X0050534Y0089594D02*
X0049756Y0089594D01*
X0049756Y0089995D02*
X0050534Y0089995D01*
X0050534Y0090396D02*
X0049756Y0090396D01*
X0049756Y0090797D02*
X0050534Y0090797D01*
X0048565Y0091123D02*
X0048565Y0087589D01*
X0047787Y0087589D01*
X0047787Y0091123D01*
X0048565Y0091123D01*
X0048565Y0087990D02*
X0047787Y0087990D01*
X0047787Y0088391D02*
X0048565Y0088391D01*
X0048565Y0088792D02*
X0047787Y0088792D01*
X0047787Y0089193D02*
X0048565Y0089193D01*
X0048565Y0089594D02*
X0047787Y0089594D01*
X0047787Y0089995D02*
X0048565Y0089995D01*
X0048565Y0090396D02*
X0047787Y0090396D01*
X0047787Y0090797D02*
X0048565Y0090797D01*
X0046597Y0091123D02*
X0046597Y0087589D01*
X0045819Y0087589D01*
X0045819Y0091123D01*
X0046597Y0091123D01*
X0046597Y0087990D02*
X0045819Y0087990D01*
X0045819Y0088391D02*
X0046597Y0088391D01*
X0046597Y0088792D02*
X0045819Y0088792D01*
X0045819Y0089193D02*
X0046597Y0089193D01*
X0046597Y0089594D02*
X0045819Y0089594D01*
X0045819Y0089995D02*
X0046597Y0089995D01*
X0046597Y0090396D02*
X0045819Y0090396D01*
X0045819Y0090797D02*
X0046597Y0090797D01*
X0044628Y0091123D02*
X0044628Y0087589D01*
X0043850Y0087589D01*
X0043850Y0091123D01*
X0044628Y0091123D01*
X0044628Y0087990D02*
X0043850Y0087990D01*
X0043850Y0088391D02*
X0044628Y0088391D01*
X0044628Y0088792D02*
X0043850Y0088792D01*
X0043850Y0089193D02*
X0044628Y0089193D01*
X0044628Y0089594D02*
X0043850Y0089594D01*
X0043850Y0089995D02*
X0044628Y0089995D01*
X0044628Y0090396D02*
X0043850Y0090396D01*
X0043850Y0090797D02*
X0044628Y0090797D01*
X0042660Y0091123D02*
X0042660Y0087589D01*
X0041882Y0087589D01*
X0041882Y0091123D01*
X0042660Y0091123D01*
X0042660Y0087990D02*
X0041882Y0087990D01*
X0041882Y0088391D02*
X0042660Y0088391D01*
X0042660Y0088792D02*
X0041882Y0088792D01*
X0041882Y0089193D02*
X0042660Y0089193D01*
X0042660Y0089594D02*
X0041882Y0089594D01*
X0041882Y0089995D02*
X0042660Y0089995D01*
X0042660Y0090396D02*
X0041882Y0090396D01*
X0041882Y0090797D02*
X0042660Y0090797D01*
X0040691Y0091123D02*
X0040691Y0087589D01*
X0039913Y0087589D01*
X0039913Y0091123D01*
X0040691Y0091123D01*
X0040691Y0087990D02*
X0039913Y0087990D01*
X0039913Y0088391D02*
X0040691Y0088391D01*
X0040691Y0088792D02*
X0039913Y0088792D01*
X0039913Y0089193D02*
X0040691Y0089193D01*
X0040691Y0089594D02*
X0039913Y0089594D01*
X0039913Y0089995D02*
X0040691Y0089995D01*
X0040691Y0090396D02*
X0039913Y0090396D01*
X0039913Y0090797D02*
X0040691Y0090797D01*
X0038723Y0091123D02*
X0038723Y0087589D01*
X0037945Y0087589D01*
X0037945Y0091123D01*
X0038723Y0091123D01*
X0038723Y0087990D02*
X0037945Y0087990D01*
X0037945Y0088391D02*
X0038723Y0088391D01*
X0038723Y0088792D02*
X0037945Y0088792D01*
X0037945Y0089193D02*
X0038723Y0089193D01*
X0038723Y0089594D02*
X0037945Y0089594D01*
X0037945Y0089995D02*
X0038723Y0089995D01*
X0038723Y0090396D02*
X0037945Y0090396D01*
X0037945Y0090797D02*
X0038723Y0090797D01*
X0036754Y0091123D02*
X0036754Y0087589D01*
X0035976Y0087589D01*
X0035976Y0091123D01*
X0036754Y0091123D01*
X0036754Y0087990D02*
X0035976Y0087990D01*
X0035976Y0088391D02*
X0036754Y0088391D01*
X0036754Y0088792D02*
X0035976Y0088792D01*
X0035976Y0089193D02*
X0036754Y0089193D01*
X0036754Y0089594D02*
X0035976Y0089594D01*
X0035976Y0089995D02*
X0036754Y0089995D01*
X0036754Y0090396D02*
X0035976Y0090396D01*
X0035976Y0090797D02*
X0036754Y0090797D01*
X0034786Y0091123D02*
X0034786Y0087589D01*
X0034008Y0087589D01*
X0034008Y0091123D01*
X0034786Y0091123D01*
X0034786Y0087990D02*
X0034008Y0087990D01*
X0034008Y0088391D02*
X0034786Y0088391D01*
X0034786Y0088792D02*
X0034008Y0088792D01*
X0034008Y0089193D02*
X0034786Y0089193D01*
X0034786Y0089594D02*
X0034008Y0089594D01*
X0034008Y0089995D02*
X0034786Y0089995D01*
X0034786Y0090396D02*
X0034008Y0090396D01*
X0034008Y0090797D02*
X0034786Y0090797D01*
X0032817Y0091123D02*
X0032817Y0087589D01*
X0032039Y0087589D01*
X0032039Y0091123D01*
X0032817Y0091123D01*
X0032817Y0087990D02*
X0032039Y0087990D01*
X0032039Y0088391D02*
X0032817Y0088391D01*
X0032817Y0088792D02*
X0032039Y0088792D01*
X0032039Y0089193D02*
X0032817Y0089193D01*
X0032817Y0089594D02*
X0032039Y0089594D01*
X0032039Y0089995D02*
X0032817Y0089995D01*
X0032817Y0090396D02*
X0032039Y0090396D01*
X0032039Y0090797D02*
X0032817Y0090797D01*
X0030849Y0091123D02*
X0030849Y0087589D01*
X0030071Y0087589D01*
X0030071Y0091123D01*
X0030849Y0091123D01*
X0030849Y0087990D02*
X0030071Y0087990D01*
X0030071Y0088391D02*
X0030849Y0088391D01*
X0030849Y0088792D02*
X0030071Y0088792D01*
X0030071Y0089193D02*
X0030849Y0089193D01*
X0030849Y0089594D02*
X0030071Y0089594D01*
X0030071Y0089995D02*
X0030849Y0089995D01*
X0030849Y0090396D02*
X0030071Y0090396D01*
X0030071Y0090797D02*
X0030849Y0090797D01*
X0028880Y0091123D02*
X0028880Y0087589D01*
X0028102Y0087589D01*
X0028102Y0091123D01*
X0028880Y0091123D01*
X0028880Y0087990D02*
X0028102Y0087990D01*
X0028102Y0088391D02*
X0028880Y0088391D01*
X0028880Y0088792D02*
X0028102Y0088792D01*
X0028102Y0089193D02*
X0028880Y0089193D01*
X0028880Y0089594D02*
X0028102Y0089594D01*
X0028102Y0089995D02*
X0028880Y0089995D01*
X0028880Y0090396D02*
X0028102Y0090396D01*
X0028102Y0090797D02*
X0028880Y0090797D01*
X0026912Y0091123D02*
X0026912Y0087589D01*
X0026134Y0087589D01*
X0026134Y0091123D01*
X0026912Y0091123D01*
X0026912Y0087990D02*
X0026134Y0087990D01*
X0026134Y0088391D02*
X0026912Y0088391D01*
X0026912Y0088792D02*
X0026134Y0088792D01*
X0026134Y0089193D02*
X0026912Y0089193D01*
X0026912Y0089594D02*
X0026134Y0089594D01*
X0026134Y0089995D02*
X0026912Y0089995D01*
X0026912Y0090396D02*
X0026134Y0090396D01*
X0026134Y0090797D02*
X0026912Y0090797D01*
X0024943Y0091123D02*
X0024943Y0087589D01*
X0024165Y0087589D01*
X0024165Y0091123D01*
X0024943Y0091123D01*
X0024943Y0087990D02*
X0024165Y0087990D01*
X0024165Y0088391D02*
X0024943Y0088391D01*
X0024943Y0088792D02*
X0024165Y0088792D01*
X0024165Y0089193D02*
X0024943Y0089193D01*
X0024943Y0089594D02*
X0024165Y0089594D01*
X0024165Y0089995D02*
X0024943Y0089995D01*
X0024943Y0090396D02*
X0024165Y0090396D01*
X0024165Y0090797D02*
X0024943Y0090797D01*
X0022975Y0091123D02*
X0022975Y0087589D01*
X0022197Y0087589D01*
X0022197Y0091123D01*
X0022975Y0091123D01*
X0022975Y0087990D02*
X0022197Y0087990D01*
X0022197Y0088391D02*
X0022975Y0088391D01*
X0022975Y0088792D02*
X0022197Y0088792D01*
X0022197Y0089193D02*
X0022975Y0089193D01*
X0022975Y0089594D02*
X0022197Y0089594D01*
X0022197Y0089995D02*
X0022975Y0089995D01*
X0022975Y0090396D02*
X0022197Y0090396D01*
X0022197Y0090797D02*
X0022975Y0090797D01*
X0021006Y0091123D02*
X0021006Y0087589D01*
X0020228Y0087589D01*
X0020228Y0091123D01*
X0021006Y0091123D01*
X0021006Y0087990D02*
X0020228Y0087990D01*
X0020228Y0088391D02*
X0021006Y0088391D01*
X0021006Y0088792D02*
X0020228Y0088792D01*
X0020228Y0089193D02*
X0021006Y0089193D01*
X0021006Y0089594D02*
X0020228Y0089594D01*
X0020228Y0089995D02*
X0021006Y0089995D01*
X0021006Y0090396D02*
X0020228Y0090396D01*
X0020228Y0090797D02*
X0021006Y0090797D01*
X0019038Y0091123D02*
X0019038Y0087589D01*
X0018260Y0087589D01*
X0018260Y0091123D01*
X0019038Y0091123D01*
X0019038Y0087990D02*
X0018260Y0087990D01*
X0018260Y0088391D02*
X0019038Y0088391D01*
X0019038Y0088792D02*
X0018260Y0088792D01*
X0018260Y0089193D02*
X0019038Y0089193D01*
X0019038Y0089594D02*
X0018260Y0089594D01*
X0018260Y0089995D02*
X0019038Y0089995D01*
X0019038Y0090396D02*
X0018260Y0090396D01*
X0018260Y0090797D02*
X0019038Y0090797D01*
X0017069Y0091123D02*
X0017069Y0087589D01*
X0016291Y0087589D01*
X0016291Y0091123D01*
X0017069Y0091123D01*
X0017069Y0087990D02*
X0016291Y0087990D01*
X0016291Y0088391D02*
X0017069Y0088391D01*
X0017069Y0088792D02*
X0016291Y0088792D01*
X0016291Y0089193D02*
X0017069Y0089193D01*
X0017069Y0089594D02*
X0016291Y0089594D01*
X0016291Y0089995D02*
X0017069Y0089995D01*
X0017069Y0090396D02*
X0016291Y0090396D01*
X0016291Y0090797D02*
X0017069Y0090797D01*
X0015101Y0091123D02*
X0015101Y0087589D01*
X0014323Y0087589D01*
X0014323Y0091123D01*
X0015101Y0091123D01*
X0015101Y0087990D02*
X0014323Y0087990D01*
X0014323Y0088391D02*
X0015101Y0088391D01*
X0015101Y0088792D02*
X0014323Y0088792D01*
X0014323Y0089193D02*
X0015101Y0089193D01*
X0015101Y0089594D02*
X0014323Y0089594D01*
X0014323Y0089995D02*
X0015101Y0089995D01*
X0015101Y0090396D02*
X0014323Y0090396D01*
X0014323Y0090797D02*
X0015101Y0090797D01*
X0013132Y0091123D02*
X0013132Y0087589D01*
X0012354Y0087589D01*
X0012354Y0091123D01*
X0013132Y0091123D01*
X0013132Y0087990D02*
X0012354Y0087990D01*
X0012354Y0088391D02*
X0013132Y0088391D01*
X0013132Y0088792D02*
X0012354Y0088792D01*
X0012354Y0089193D02*
X0013132Y0089193D01*
X0013132Y0089594D02*
X0012354Y0089594D01*
X0012354Y0089995D02*
X0013132Y0089995D01*
X0013132Y0090396D02*
X0012354Y0090396D01*
X0012354Y0090797D02*
X0013132Y0090797D01*
D16*
X0010578Y0089158D02*
X0010578Y0085616D01*
X0005460Y0085616D01*
X0005460Y0089158D01*
X0010578Y0089158D01*
X0010578Y0086009D02*
X0005460Y0086009D01*
X0005460Y0086402D02*
X0010578Y0086402D01*
X0010578Y0086795D02*
X0005460Y0086795D01*
X0005460Y0087188D02*
X0010578Y0087188D01*
X0010578Y0087581D02*
X0005460Y0087581D01*
X0005460Y0087974D02*
X0010578Y0087974D01*
X0010578Y0088367D02*
X0005460Y0088367D01*
X0005460Y0088760D02*
X0010578Y0088760D01*
X0010578Y0089153D02*
X0005460Y0089153D01*
X0010578Y0077741D02*
X0010578Y0074199D01*
X0005460Y0074199D01*
X0005460Y0077741D01*
X0010578Y0077741D01*
X0010578Y0074592D02*
X0005460Y0074592D01*
X0005460Y0074985D02*
X0010578Y0074985D01*
X0010578Y0075378D02*
X0005460Y0075378D01*
X0005460Y0075771D02*
X0010578Y0075771D01*
X0010578Y0076164D02*
X0005460Y0076164D01*
X0005460Y0076557D02*
X0010578Y0076557D01*
X0010578Y0076950D02*
X0005460Y0076950D01*
X0005460Y0077343D02*
X0010578Y0077343D01*
X0010578Y0077736D02*
X0005460Y0077736D01*
X0057428Y0077741D02*
X0057428Y0074199D01*
X0052310Y0074199D01*
X0052310Y0077741D01*
X0057428Y0077741D01*
X0057428Y0074592D02*
X0052310Y0074592D01*
X0052310Y0074985D02*
X0057428Y0074985D01*
X0057428Y0075378D02*
X0052310Y0075378D01*
X0052310Y0075771D02*
X0057428Y0075771D01*
X0057428Y0076164D02*
X0052310Y0076164D01*
X0052310Y0076557D02*
X0057428Y0076557D01*
X0057428Y0076950D02*
X0052310Y0076950D01*
X0052310Y0077343D02*
X0057428Y0077343D01*
X0057428Y0077736D02*
X0052310Y0077736D01*
X0057428Y0085616D02*
X0057428Y0089158D01*
X0057428Y0085616D02*
X0052310Y0085616D01*
X0052310Y0089158D01*
X0057428Y0089158D01*
X0057428Y0086009D02*
X0052310Y0086009D01*
X0052310Y0086402D02*
X0057428Y0086402D01*
X0057428Y0086795D02*
X0052310Y0086795D01*
X0052310Y0087188D02*
X0057428Y0087188D01*
X0057428Y0087581D02*
X0052310Y0087581D01*
X0052310Y0087974D02*
X0057428Y0087974D01*
X0057428Y0088367D02*
X0052310Y0088367D01*
X0052310Y0088760D02*
X0057428Y0088760D01*
X0057428Y0089153D02*
X0052310Y0089153D01*
D17*
X0050850Y0082450D03*
X0047350Y0082950D03*
X0047350Y0078950D03*
X0042350Y0078950D03*
X0042350Y0082950D03*
X0037350Y0082950D03*
X0037350Y0078950D03*
X0032350Y0078950D03*
X0032350Y0082950D03*
X0027350Y0082950D03*
X0027350Y0078950D03*
X0022350Y0078950D03*
X0022350Y0082950D03*
X0017350Y0082950D03*
X0017350Y0078950D03*
X0011850Y0079950D03*
X0009350Y0082450D03*
X0009350Y0067450D03*
X0009350Y0062950D03*
X0011850Y0060950D03*
X0011850Y0056950D03*
X0011850Y0052950D03*
X0011850Y0048950D03*
X0008850Y0046950D03*
X0008850Y0050950D03*
X0008850Y0054950D03*
X0008850Y0058950D03*
X0012350Y0032950D03*
X0008850Y0032450D03*
X0017350Y0017950D03*
X0025350Y0030450D03*
X0028850Y0030450D03*
X0031850Y0029450D03*
X0031850Y0032450D03*
X0036850Y0031950D03*
X0043350Y0026450D03*
X0034850Y0017450D03*
X0030850Y0017450D03*
X0027350Y0017450D03*
X0042350Y0041450D03*
X0050850Y0050950D03*
X0053850Y0048950D03*
X0051350Y0045950D03*
X0053850Y0052950D03*
X0050850Y0054950D03*
X0053850Y0056950D03*
X0050850Y0058950D03*
X0053850Y0060950D03*
X0050850Y0062950D03*
X0053850Y0068950D03*
X0055850Y0082950D03*
X0052850Y0032450D03*
X0053850Y0019950D03*
D18*
X0049850Y0016950D02*
X0047350Y0019450D01*
X0047350Y0020950D01*
X0047350Y0021450D02*
X0047350Y0023950D01*
X0049850Y0023950D01*
X0049850Y0040950D01*
X0051350Y0040950D01*
X0052791Y0040950D01*
X0052850Y0041009D01*
X0051350Y0040950D02*
X0051350Y0045950D01*
X0053850Y0048950D02*
X0048350Y0048950D01*
X0048350Y0050950D02*
X0050850Y0050950D01*
X0053850Y0052950D02*
X0047310Y0052950D01*
X0047294Y0052934D01*
X0047294Y0054903D02*
X0047342Y0054950D01*
X0050850Y0054950D01*
X0053850Y0056950D02*
X0047373Y0056950D01*
X0047294Y0056871D01*
X0047294Y0058840D02*
X0047405Y0058950D01*
X0050850Y0058950D01*
X0053850Y0060950D02*
X0047436Y0060950D01*
X0047294Y0060808D01*
X0047294Y0062777D02*
X0047468Y0062950D01*
X0050850Y0062950D01*
X0047294Y0064745D02*
X0047294Y0069005D01*
X0046350Y0069950D01*
X0046350Y0073859D01*
X0046208Y0074001D01*
X0046350Y0074001D01*
X0048176Y0074001D02*
X0048350Y0073828D01*
X0048350Y0071450D01*
X0050850Y0068950D01*
X0053850Y0068950D01*
X0055850Y0070950D02*
X0055850Y0082950D01*
X0055850Y0087450D01*
X0054850Y0083950D02*
X0053021Y0083950D01*
X0052021Y0084950D01*
X0050850Y0084950D01*
X0048350Y0087450D01*
X0048350Y0089182D01*
X0048176Y0089356D01*
X0046350Y0089214D02*
X0046350Y0085950D01*
X0047850Y0085950D01*
X0049350Y0084450D01*
X0049350Y0083950D01*
X0050850Y0082450D01*
X0047350Y0082950D02*
X0044350Y0085950D01*
X0044350Y0089245D01*
X0044239Y0089356D01*
X0042350Y0089277D02*
X0042350Y0085950D01*
X0044850Y0083450D01*
X0044850Y0080450D01*
X0046350Y0078950D01*
X0047350Y0078950D01*
X0044239Y0074001D02*
X0044239Y0067895D01*
X0044145Y0067895D01*
X0042271Y0067895D02*
X0042271Y0074001D01*
X0040302Y0074001D02*
X0040302Y0067895D01*
X0040208Y0067895D01*
X0038334Y0067895D02*
X0038334Y0074001D01*
X0036365Y0074001D02*
X0036365Y0067895D01*
X0036271Y0067895D01*
X0034397Y0067895D02*
X0034397Y0074001D01*
X0032428Y0074001D02*
X0032428Y0067895D01*
X0032334Y0067895D01*
X0030460Y0067895D02*
X0030460Y0074001D01*
X0028491Y0074001D02*
X0028491Y0067895D01*
X0028397Y0067895D01*
X0026523Y0067895D02*
X0026523Y0074001D01*
X0024554Y0074001D02*
X0024554Y0067895D01*
X0024460Y0067895D01*
X0022586Y0067895D02*
X0022586Y0074001D01*
X0020617Y0074001D02*
X0020617Y0067895D01*
X0020523Y0067895D01*
X0018649Y0067895D02*
X0018649Y0074001D01*
X0016850Y0074001D02*
X0016680Y0074001D01*
X0016850Y0073832D01*
X0016850Y0069950D01*
X0015405Y0068505D01*
X0015405Y0064745D01*
X0015405Y0062777D02*
X0013523Y0062777D01*
X0012850Y0063450D01*
X0009850Y0063450D01*
X0009350Y0062950D01*
X0011850Y0060950D02*
X0011991Y0060808D01*
X0015405Y0060808D01*
X0015294Y0058950D02*
X0008850Y0058950D01*
X0008850Y0054950D02*
X0015357Y0054950D01*
X0015405Y0054903D01*
X0015389Y0052950D02*
X0011850Y0052950D01*
X0011850Y0048950D02*
X0015357Y0048950D01*
X0015405Y0048997D01*
X0015389Y0050950D02*
X0008850Y0050950D01*
X0008850Y0046950D02*
X0015350Y0046950D01*
X0015350Y0046974D01*
X0015405Y0047029D01*
X0015405Y0045060D02*
X0015350Y0045005D01*
X0015350Y0044950D01*
X0024350Y0044950D01*
X0026829Y0046721D01*
X0026829Y0047429D01*
X0031350Y0051950D01*
X0042350Y0041450D01*
X0044350Y0038950D02*
X0038850Y0044450D01*
X0031350Y0051950D01*
X0027221Y0047821D01*
X0027221Y0047001D01*
X0027839Y0047442D01*
X0027839Y0048439D01*
X0031350Y0051950D01*
X0031350Y0049950D02*
X0027839Y0047442D01*
X0027221Y0047001D02*
X0026829Y0046721D01*
X0025350Y0044950D02*
X0024350Y0044950D01*
X0025350Y0044950D02*
X0023350Y0042950D01*
X0015350Y0042950D01*
X0015350Y0043037D01*
X0015405Y0043092D01*
X0015405Y0041123D02*
X0015350Y0041068D01*
X0015350Y0040950D01*
X0018850Y0040950D01*
X0020350Y0039450D01*
X0040350Y0039450D01*
X0040350Y0035863D01*
X0040350Y0034450D01*
X0040850Y0033950D01*
X0040850Y0025450D01*
X0042350Y0023950D01*
X0047350Y0023950D01*
X0047350Y0025950D02*
X0044350Y0028950D01*
X0044350Y0035950D01*
X0042350Y0034450D02*
X0042350Y0027950D01*
X0043350Y0026950D01*
X0043350Y0026450D01*
X0040850Y0025450D02*
X0037850Y0025450D01*
X0037350Y0029450D02*
X0039350Y0031450D01*
X0039350Y0033450D01*
X0038350Y0034450D01*
X0038350Y0035950D01*
X0040208Y0036005D02*
X0040350Y0035863D01*
X0036850Y0031950D02*
X0036350Y0032450D01*
X0036350Y0035926D01*
X0036271Y0036005D01*
X0034350Y0035958D02*
X0034350Y0031450D01*
X0030350Y0027950D01*
X0030350Y0026450D01*
X0032350Y0026950D02*
X0032350Y0025700D01*
X0032600Y0025450D01*
X0032350Y0026950D02*
X0034850Y0029450D01*
X0037350Y0029450D01*
X0034350Y0035958D02*
X0034302Y0036005D01*
X0032350Y0035989D02*
X0032350Y0032950D01*
X0031850Y0032450D01*
X0030350Y0034450D02*
X0030350Y0035989D01*
X0030365Y0036005D01*
X0030350Y0034450D02*
X0029350Y0032450D01*
X0028850Y0030450D01*
X0027850Y0027950D01*
X0027850Y0027450D01*
X0025100Y0025450D02*
X0024850Y0025700D01*
X0024850Y0026450D01*
X0021850Y0026450D01*
X0021850Y0029950D01*
X0026350Y0034450D01*
X0026350Y0035926D01*
X0026428Y0036005D01*
X0028350Y0035958D02*
X0028350Y0033950D01*
X0025350Y0030950D01*
X0025350Y0030450D01*
X0024350Y0034450D02*
X0024350Y0035895D01*
X0024460Y0036005D01*
X0024350Y0034450D02*
X0018850Y0028950D01*
X0018850Y0022450D01*
X0021850Y0022450D01*
X0021909Y0021950D02*
X0024850Y0021950D01*
X0024850Y0021200D01*
X0025100Y0020950D01*
X0027600Y0020950D02*
X0027655Y0020895D01*
X0027850Y0020895D01*
X0027850Y0017950D01*
X0027350Y0017450D01*
X0027850Y0020895D02*
X0027850Y0020950D01*
X0027600Y0020950D01*
X0027850Y0020950D02*
X0027850Y0021950D01*
X0030100Y0020950D02*
X0030350Y0020950D01*
X0030350Y0018450D01*
X0030850Y0017950D01*
X0030850Y0017450D01*
X0032850Y0019450D02*
X0034850Y0017450D01*
X0032850Y0019450D02*
X0032850Y0021950D01*
X0041850Y0020950D02*
X0042487Y0020950D01*
X0042987Y0021450D01*
X0041850Y0012950D02*
X0042334Y0012304D01*
X0044496Y0012304D01*
X0044850Y0011950D01*
X0047350Y0032950D02*
X0047350Y0038950D01*
X0044350Y0038950D01*
X0047350Y0040950D02*
X0047350Y0042950D01*
X0047350Y0040950D02*
X0049850Y0040950D01*
X0047350Y0044950D02*
X0039350Y0044950D01*
X0038850Y0044450D01*
X0032334Y0036005D02*
X0032350Y0035989D01*
X0028397Y0036005D02*
X0028350Y0035958D01*
X0022491Y0036005D02*
X0022350Y0035863D01*
X0022350Y0034450D01*
X0017350Y0029450D01*
X0017350Y0021450D01*
X0019850Y0018950D01*
X0019850Y0012450D01*
X0017350Y0017950D02*
X0016350Y0018950D01*
X0016350Y0030450D01*
X0020350Y0034450D01*
X0020350Y0035950D01*
X0018554Y0036005D02*
X0018350Y0035800D01*
X0018350Y0034950D01*
X0015350Y0034950D01*
X0013350Y0032950D01*
X0013350Y0028312D01*
X0013850Y0027812D01*
X0013850Y0023950D02*
X0013850Y0019450D01*
X0009350Y0019450D01*
X0009350Y0021450D01*
X0009350Y0023088D01*
X0009350Y0021450D02*
X0006850Y0023950D01*
X0006850Y0067395D01*
X0009295Y0067395D01*
X0009350Y0067450D01*
X0011350Y0067450D01*
X0014850Y0070950D01*
X0014850Y0073863D01*
X0014712Y0074001D01*
X0016850Y0078950D02*
X0014850Y0080950D01*
X0014850Y0083450D01*
X0018350Y0086950D01*
X0018350Y0089056D01*
X0018649Y0089356D01*
X0018850Y0089356D01*
X0020350Y0089088D02*
X0020350Y0086950D01*
X0017350Y0083950D01*
X0017350Y0082950D01*
X0019850Y0084450D02*
X0019850Y0080950D01*
X0021850Y0078950D01*
X0022350Y0078950D01*
X0024850Y0080950D02*
X0026850Y0078950D01*
X0027350Y0078950D01*
X0029850Y0080950D02*
X0031850Y0078950D01*
X0032350Y0078950D01*
X0034850Y0080950D02*
X0037350Y0078950D01*
X0039850Y0080950D02*
X0041850Y0078950D01*
X0042350Y0078950D01*
X0039850Y0080950D02*
X0039850Y0083950D01*
X0038350Y0085450D01*
X0038350Y0089340D01*
X0038334Y0089356D01*
X0040302Y0089356D02*
X0040350Y0089308D01*
X0040350Y0085950D01*
X0042350Y0083950D01*
X0042350Y0082950D01*
X0042350Y0089277D02*
X0042271Y0089356D01*
X0046208Y0089356D02*
X0046350Y0089214D01*
X0054850Y0083950D02*
X0055850Y0082950D01*
X0042271Y0067895D02*
X0042176Y0067895D01*
X0038334Y0067895D02*
X0038239Y0067895D01*
X0034397Y0067895D02*
X0034302Y0067895D01*
X0030460Y0067895D02*
X0030365Y0067895D01*
X0026523Y0067895D02*
X0026428Y0067895D01*
X0022586Y0067895D02*
X0022491Y0067895D01*
X0015294Y0058950D02*
X0015405Y0058840D01*
X0015326Y0056950D02*
X0011850Y0056950D01*
X0015326Y0056950D02*
X0015405Y0056871D01*
X0015389Y0052950D02*
X0015405Y0052934D01*
X0015405Y0050966D02*
X0015389Y0050950D01*
X0015405Y0039155D02*
X0015350Y0039100D01*
X0015350Y0038950D01*
X0012850Y0038950D01*
X0008850Y0034950D01*
X0008850Y0032450D01*
X0008850Y0028312D01*
X0009350Y0027812D01*
X0012350Y0032950D02*
X0013350Y0032950D01*
X0015350Y0038950D02*
X0016850Y0038950D01*
X0021909Y0021950D02*
X0021850Y0021891D01*
X0047294Y0045060D02*
X0047294Y0047029D01*
X0052850Y0035891D02*
X0052850Y0032450D01*
X0034850Y0080950D02*
X0034850Y0083950D01*
X0034350Y0084450D01*
X0034350Y0089308D01*
X0034397Y0089356D01*
X0036350Y0089340D02*
X0036350Y0084450D01*
X0037350Y0083450D01*
X0037350Y0082950D01*
X0036350Y0089340D02*
X0036365Y0089356D01*
X0032428Y0089356D02*
X0032350Y0089277D01*
X0032350Y0082950D01*
X0030350Y0085450D02*
X0029850Y0084950D01*
X0029850Y0080950D01*
X0027350Y0082950D02*
X0027350Y0084450D01*
X0028350Y0085450D01*
X0028350Y0089214D01*
X0028491Y0089356D01*
X0030350Y0089245D02*
X0030350Y0085450D01*
X0030350Y0089245D02*
X0030460Y0089356D01*
X0026523Y0089356D02*
X0026350Y0089182D01*
X0026350Y0085950D01*
X0024850Y0084450D01*
X0024850Y0080950D01*
X0022350Y0082950D02*
X0022350Y0084450D01*
X0024350Y0086450D01*
X0024350Y0089151D01*
X0024554Y0089356D01*
X0024350Y0089151D01*
X0022586Y0089356D02*
X0022350Y0089119D01*
X0022350Y0086950D01*
X0019850Y0084450D01*
X0016350Y0086950D02*
X0011850Y0082450D01*
X0011850Y0079950D01*
X0009850Y0082450D02*
X0014350Y0086950D01*
X0014350Y0088993D01*
X0014712Y0089356D01*
X0016350Y0088907D02*
X0016350Y0086950D01*
X0016350Y0088907D02*
X0016799Y0089356D01*
X0016850Y0089356D01*
X0016799Y0089356D02*
X0016680Y0089356D01*
X0020350Y0089088D02*
X0020617Y0089356D01*
X0017350Y0078950D02*
X0016850Y0078950D01*
X0009850Y0082450D02*
X0009350Y0082450D01*
X0006850Y0087450D02*
X0006850Y0067395D01*
D19*
X0044850Y0016950D03*
X0044850Y0011950D03*
D20*
X0049850Y0016950D03*
D21*
X0042350Y0012450D02*
X0019850Y0012450D01*
X0018350Y0012450D01*
X0013850Y0016950D01*
X0013850Y0019450D01*
X0037850Y0020950D02*
X0041850Y0020950D01*
X0041850Y0012950D01*
X0042350Y0012450D01*
X0018649Y0067895D02*
X0018554Y0067895D01*
D22*
X0015911Y0015853D02*
X0010627Y0015853D01*
X0009996Y0016452D02*
X0015312Y0016452D01*
X0015230Y0016534D02*
X0015933Y0015831D01*
X0016852Y0015450D01*
X0017847Y0015450D01*
X0018766Y0015831D01*
X0019469Y0016534D01*
X0019850Y0017453D01*
X0019850Y0018447D01*
X0019469Y0019366D01*
X0018766Y0020069D01*
X0017900Y0020428D01*
X0017900Y0021208D01*
X0018208Y0020900D01*
X0018778Y0020900D01*
X0018778Y0020096D01*
X0019661Y0019213D01*
X0023050Y0019213D01*
X0023050Y0019030D01*
X0023930Y0018150D01*
X0024934Y0018150D01*
X0024850Y0017947D01*
X0024850Y0016953D01*
X0025230Y0016034D01*
X0025933Y0015331D01*
X0026852Y0014950D01*
X0027847Y0014950D01*
X0028766Y0015331D01*
X0029100Y0015664D01*
X0029433Y0015331D01*
X0030352Y0014950D01*
X0031347Y0014950D01*
X0032266Y0015331D01*
X0032850Y0015914D01*
X0033433Y0015331D01*
X0034352Y0014950D01*
X0035347Y0014950D01*
X0036266Y0015331D01*
X0036969Y0016034D01*
X0037350Y0016953D01*
X0037350Y0017947D01*
X0037266Y0018150D01*
X0037525Y0018150D01*
X0037525Y0020875D01*
X0037675Y0020875D01*
X0037675Y0021025D01*
X0039650Y0021025D01*
X0039650Y0022445D01*
X0039547Y0022827D01*
X0039510Y0022891D01*
X0039650Y0023030D01*
X0039650Y0023900D01*
X0040208Y0023900D01*
X0040324Y0023783D01*
X0040167Y0023626D01*
X0039969Y0023283D01*
X0039867Y0022901D01*
X0039867Y0021750D01*
X0042687Y0021750D01*
X0042687Y0021150D01*
X0039867Y0021150D01*
X0039867Y0019999D01*
X0039969Y0019617D01*
X0040167Y0019274D01*
X0040447Y0018994D01*
X0040790Y0018796D01*
X0041172Y0018693D01*
X0042162Y0018693D01*
X0041700Y0017577D01*
X0041700Y0016323D01*
X0042179Y0015166D01*
X0043065Y0014280D01*
X0044223Y0013800D01*
X0045476Y0013800D01*
X0046634Y0014280D01*
X0047328Y0014973D01*
X0048048Y0014253D01*
X0049217Y0013769D01*
X0049991Y0013769D01*
X0042739Y0007000D01*
X0039098Y0007000D01*
X0039794Y0007288D01*
X0040511Y0008006D01*
X0040900Y0008943D01*
X0040900Y0009957D01*
X0040511Y0010894D01*
X0039794Y0011612D01*
X0038857Y0012000D01*
X0037842Y0012000D01*
X0036905Y0011612D01*
X0036188Y0010894D01*
X0035800Y0009957D01*
X0035800Y0008943D01*
X0036188Y0008006D01*
X0036905Y0007288D01*
X0037601Y0007000D01*
X0025098Y0007000D01*
X0025794Y0007288D01*
X0026511Y0008006D01*
X0026900Y0008943D01*
X0026900Y0009957D01*
X0026511Y0010894D01*
X0025794Y0011612D01*
X0024857Y0012000D01*
X0023842Y0012000D01*
X0022905Y0011612D01*
X0022188Y0010894D01*
X0021800Y0009957D01*
X0021800Y0008943D01*
X0022188Y0008006D01*
X0022905Y0007288D01*
X0023601Y0007000D01*
X0019967Y0007000D01*
X0005900Y0020334D01*
X0005900Y0072701D01*
X0010853Y0072701D01*
X0010853Y0071612D01*
X0011732Y0070733D01*
X0013755Y0070733D01*
X0013833Y0070811D01*
X0014124Y0070733D01*
X0014712Y0070733D01*
X0015299Y0070733D01*
X0015300Y0070733D01*
X0015300Y0070592D01*
X0013855Y0069147D01*
X0013855Y0066537D01*
X0013213Y0066537D01*
X0012333Y0065658D01*
X0012333Y0065000D01*
X0010835Y0065000D01*
X0010766Y0065069D01*
X0009847Y0065450D01*
X0008852Y0065450D01*
X0007933Y0065069D01*
X0007230Y0064366D01*
X0006850Y0063447D01*
X0006850Y0062453D01*
X0007230Y0061534D01*
X0007618Y0061146D01*
X0007433Y0061069D01*
X0006730Y0060366D01*
X0006350Y0059447D01*
X0006350Y0058453D01*
X0006730Y0057534D01*
X0007314Y0056950D01*
X0006730Y0056366D01*
X0006350Y0055447D01*
X0006350Y0054453D01*
X0006730Y0053534D01*
X0007314Y0052950D01*
X0006730Y0052366D01*
X0006350Y0051447D01*
X0006350Y0050453D01*
X0006730Y0049534D01*
X0007314Y0048950D01*
X0006730Y0048366D01*
X0006350Y0047447D01*
X0006350Y0046453D01*
X0006730Y0045534D01*
X0007433Y0044831D01*
X0008352Y0044450D01*
X0009347Y0044450D01*
X0010266Y0044831D01*
X0010835Y0045400D01*
X0012333Y0045400D01*
X0012333Y0045060D01*
X0012333Y0044572D01*
X0012435Y0044190D01*
X0012501Y0044076D01*
X0012435Y0043962D01*
X0012333Y0043580D01*
X0012333Y0043092D01*
X0015405Y0043092D01*
X0018476Y0043092D01*
X0018476Y0043580D01*
X0018374Y0043962D01*
X0018308Y0044076D01*
X0018374Y0044190D01*
X0018476Y0044572D01*
X0018476Y0045060D01*
X0015405Y0045060D01*
X0015405Y0045060D01*
X0015405Y0043092D01*
X0015405Y0043092D01*
X0015405Y0043092D01*
X0018476Y0043092D01*
X0018476Y0042604D01*
X0018449Y0042500D01*
X0019492Y0042500D01*
X0020992Y0041000D01*
X0040992Y0041000D01*
X0041900Y0040092D01*
X0041900Y0039077D01*
X0043089Y0039077D01*
X0043161Y0039005D01*
X0043232Y0039077D01*
X0044223Y0039077D01*
X0044223Y0039155D01*
X0047294Y0039155D01*
X0047294Y0039155D01*
X0044223Y0039155D01*
X0044223Y0039643D01*
X0044325Y0040025D01*
X0044356Y0040078D01*
X0044223Y0040211D01*
X0044223Y0042036D01*
X0044295Y0042107D01*
X0044223Y0042179D01*
X0044223Y0044004D01*
X0044356Y0044137D01*
X0044325Y0044190D01*
X0044223Y0044572D01*
X0044223Y0045060D01*
X0047294Y0045060D01*
X0047294Y0045060D01*
X0044223Y0045060D01*
X0044223Y0045548D01*
X0044325Y0045930D01*
X0044391Y0046044D01*
X0044325Y0046159D01*
X0044223Y0046541D01*
X0044223Y0047029D01*
X0047294Y0047029D01*
X0047294Y0047029D01*
X0044223Y0047029D01*
X0044223Y0047517D01*
X0044325Y0047899D01*
X0044356Y0047952D01*
X0044223Y0048085D01*
X0044223Y0049910D01*
X0044295Y0049981D01*
X0044223Y0050053D01*
X0044223Y0051878D01*
X0044295Y0051950D01*
X0044223Y0052022D01*
X0044223Y0053847D01*
X0044295Y0053918D01*
X0044223Y0053990D01*
X0044223Y0055815D01*
X0044295Y0055887D01*
X0044223Y0055959D01*
X0044223Y0057784D01*
X0044295Y0057855D01*
X0044223Y0057927D01*
X0044223Y0059752D01*
X0044295Y0059824D01*
X0044223Y0059896D01*
X0044223Y0061721D01*
X0044295Y0061793D01*
X0044223Y0061864D01*
X0044223Y0063689D01*
X0044295Y0063761D01*
X0044223Y0063833D01*
X0044223Y0064823D01*
X0043232Y0064823D01*
X0043161Y0064895D01*
X0043089Y0064823D01*
X0041264Y0064823D01*
X0041192Y0064895D01*
X0041120Y0064823D01*
X0039295Y0064823D01*
X0039224Y0064895D01*
X0039152Y0064823D01*
X0037327Y0064823D01*
X0037255Y0064895D01*
X0037183Y0064823D01*
X0035358Y0064823D01*
X0035287Y0064895D01*
X0035215Y0064823D01*
X0033390Y0064823D01*
X0033318Y0064895D01*
X0033246Y0064823D01*
X0031421Y0064823D01*
X0031350Y0064895D01*
X0031278Y0064823D01*
X0029453Y0064823D01*
X0029381Y0064895D01*
X0029309Y0064823D01*
X0027484Y0064823D01*
X0027413Y0064895D01*
X0027341Y0064823D01*
X0025516Y0064823D01*
X0025444Y0064895D01*
X0025372Y0064823D01*
X0023547Y0064823D01*
X0023476Y0064895D01*
X0023404Y0064823D01*
X0021579Y0064823D01*
X0021507Y0064895D01*
X0021435Y0064823D01*
X0019610Y0064823D01*
X0019539Y0064895D01*
X0019467Y0064823D01*
X0018476Y0064823D01*
X0018476Y0063833D01*
X0018405Y0063761D01*
X0018476Y0063689D01*
X0018476Y0061864D01*
X0018405Y0061793D01*
X0018476Y0061721D01*
X0018476Y0059896D01*
X0018405Y0059824D01*
X0018476Y0059752D01*
X0018476Y0057927D01*
X0018405Y0057855D01*
X0018476Y0057784D01*
X0018476Y0055959D01*
X0018405Y0055887D01*
X0018476Y0055815D01*
X0018476Y0053990D01*
X0018405Y0053919D01*
X0018476Y0053847D01*
X0018476Y0052022D01*
X0018405Y0051950D01*
X0018476Y0051878D01*
X0018476Y0050053D01*
X0018405Y0049981D01*
X0018476Y0049910D01*
X0018476Y0048085D01*
X0018405Y0048013D01*
X0018476Y0047941D01*
X0018476Y0046116D01*
X0018343Y0045983D01*
X0018374Y0045930D01*
X0018476Y0045548D01*
X0018476Y0045060D01*
X0015405Y0045060D01*
X0015405Y0045060D01*
X0015405Y0044884D01*
X0015405Y0043092D01*
X0015405Y0043092D01*
X0012333Y0043092D01*
X0012333Y0042604D01*
X0012435Y0042222D01*
X0012466Y0042169D01*
X0012333Y0042036D01*
X0012333Y0040500D01*
X0012208Y0040500D01*
X0008208Y0036500D01*
X0007300Y0035592D01*
X0007300Y0034436D01*
X0006730Y0033866D01*
X0006350Y0032947D01*
X0006350Y0031953D01*
X0006730Y0031034D01*
X0007152Y0030612D01*
X0006593Y0030052D01*
X0006593Y0025572D01*
X0006763Y0025402D01*
X0006695Y0025285D01*
X0006593Y0024903D01*
X0006593Y0023388D01*
X0009050Y0023388D01*
X0009050Y0022788D01*
X0009650Y0022788D01*
X0009650Y0023388D01*
X0013550Y0023388D01*
X0013550Y0024691D01*
X0014150Y0024691D01*
X0014150Y0023388D01*
X0013550Y0023388D01*
X0013550Y0022788D01*
X0014150Y0022788D01*
X0014150Y0019967D01*
X0014800Y0019967D01*
X0014800Y0018308D01*
X0014850Y0018258D01*
X0014850Y0017453D01*
X0015230Y0016534D01*
X0015016Y0017050D02*
X0009364Y0017050D01*
X0008733Y0017649D02*
X0014850Y0017649D01*
X0014850Y0018247D02*
X0008102Y0018247D01*
X0007470Y0018846D02*
X0014800Y0018846D01*
X0014800Y0019444D02*
X0006839Y0019444D01*
X0006207Y0020043D02*
X0007616Y0020043D01*
X0007516Y0020069D02*
X0007899Y0019967D01*
X0009050Y0019967D01*
X0009050Y0022788D01*
X0006593Y0022788D01*
X0006593Y0021273D01*
X0006695Y0020890D01*
X0006893Y0020547D01*
X0007173Y0020267D01*
X0007516Y0020069D01*
X0006839Y0020641D02*
X0005900Y0020641D01*
X0005900Y0021240D02*
X0006602Y0021240D01*
X0006593Y0021838D02*
X0005900Y0021838D01*
X0005900Y0022437D02*
X0006593Y0022437D01*
X0005900Y0023035D02*
X0009050Y0023035D01*
X0009050Y0022437D02*
X0009650Y0022437D01*
X0009650Y0022788D02*
X0009650Y0019967D01*
X0010800Y0019967D01*
X0011183Y0020069D01*
X0011526Y0020267D01*
X0011600Y0020341D01*
X0011673Y0020267D01*
X0012016Y0020069D01*
X0012399Y0019967D01*
X0013550Y0019967D01*
X0013550Y0022788D01*
X0011093Y0022788D01*
X0009650Y0022788D01*
X0009650Y0023035D02*
X0013550Y0023035D01*
X0013550Y0022437D02*
X0014150Y0022437D01*
X0014150Y0021838D02*
X0013550Y0021838D01*
X0013550Y0021240D02*
X0014150Y0021240D01*
X0014150Y0020641D02*
X0013550Y0020641D01*
X0013550Y0020043D02*
X0014150Y0020043D01*
X0012116Y0020043D02*
X0011084Y0020043D01*
X0009650Y0020043D02*
X0009050Y0020043D01*
X0009050Y0020641D02*
X0009650Y0020641D01*
X0009650Y0021240D02*
X0009050Y0021240D01*
X0009050Y0021838D02*
X0009650Y0021838D01*
X0006593Y0023634D02*
X0005900Y0023634D01*
X0005900Y0024232D02*
X0006593Y0024232D01*
X0006593Y0024831D02*
X0005900Y0024831D01*
X0005900Y0025429D02*
X0006736Y0025429D01*
X0006593Y0026028D02*
X0005900Y0026028D01*
X0005900Y0026626D02*
X0006593Y0026626D01*
X0006593Y0027225D02*
X0005900Y0027225D01*
X0005900Y0027823D02*
X0006593Y0027823D01*
X0006593Y0028422D02*
X0005900Y0028422D01*
X0005900Y0029020D02*
X0006593Y0029020D01*
X0006593Y0029619D02*
X0005900Y0029619D01*
X0005900Y0030218D02*
X0006758Y0030218D01*
X0006948Y0030816D02*
X0005900Y0030816D01*
X0005900Y0031415D02*
X0006573Y0031415D01*
X0006350Y0032013D02*
X0005900Y0032013D01*
X0005900Y0032612D02*
X0006350Y0032612D01*
X0006458Y0033210D02*
X0005900Y0033210D01*
X0005900Y0033809D02*
X0006706Y0033809D01*
X0007271Y0034407D02*
X0005900Y0034407D01*
X0005900Y0035006D02*
X0007300Y0035006D01*
X0007312Y0035604D02*
X0005900Y0035604D01*
X0005900Y0036203D02*
X0007910Y0036203D01*
X0008509Y0036801D02*
X0005900Y0036801D01*
X0005900Y0037400D02*
X0009107Y0037400D01*
X0009706Y0037998D02*
X0005900Y0037998D01*
X0005900Y0038597D02*
X0010304Y0038597D01*
X0010903Y0039195D02*
X0005900Y0039195D01*
X0005900Y0039794D02*
X0011501Y0039794D01*
X0012100Y0040392D02*
X0005900Y0040392D01*
X0005900Y0040991D02*
X0012333Y0040991D01*
X0012333Y0041589D02*
X0005900Y0041589D01*
X0005900Y0042188D02*
X0012455Y0042188D01*
X0012333Y0042786D02*
X0005900Y0042786D01*
X0005900Y0043385D02*
X0012333Y0043385D01*
X0012448Y0043983D02*
X0005900Y0043983D01*
X0005900Y0044582D02*
X0008034Y0044582D01*
X0007084Y0045180D02*
X0005900Y0045180D01*
X0005900Y0045779D02*
X0006629Y0045779D01*
X0006381Y0046377D02*
X0005900Y0046377D01*
X0005900Y0046976D02*
X0006350Y0046976D01*
X0006402Y0047574D02*
X0005900Y0047574D01*
X0005900Y0048173D02*
X0006650Y0048173D01*
X0007135Y0048771D02*
X0005900Y0048771D01*
X0005900Y0049370D02*
X0006894Y0049370D01*
X0006550Y0049968D02*
X0005900Y0049968D01*
X0005900Y0050567D02*
X0006350Y0050567D01*
X0006350Y0051165D02*
X0005900Y0051165D01*
X0005900Y0051764D02*
X0006481Y0051764D01*
X0006729Y0052362D02*
X0005900Y0052362D01*
X0005900Y0052961D02*
X0007303Y0052961D01*
X0006720Y0053559D02*
X0005900Y0053559D01*
X0005900Y0054158D02*
X0006472Y0054158D01*
X0006350Y0054756D02*
X0005900Y0054756D01*
X0005900Y0055355D02*
X0006350Y0055355D01*
X0006559Y0055953D02*
X0005900Y0055953D01*
X0005900Y0056552D02*
X0006916Y0056552D01*
X0007114Y0057151D02*
X0005900Y0057151D01*
X0005900Y0057749D02*
X0006641Y0057749D01*
X0006393Y0058348D02*
X0005900Y0058348D01*
X0005900Y0058946D02*
X0006350Y0058946D01*
X0006390Y0059545D02*
X0005900Y0059545D01*
X0005900Y0060143D02*
X0006638Y0060143D01*
X0007106Y0060742D02*
X0005900Y0060742D01*
X0005900Y0061340D02*
X0007424Y0061340D01*
X0007063Y0061939D02*
X0005900Y0061939D01*
X0005900Y0062537D02*
X0006850Y0062537D01*
X0006850Y0063136D02*
X0005900Y0063136D01*
X0005900Y0063734D02*
X0006968Y0063734D01*
X0007216Y0064333D02*
X0005900Y0064333D01*
X0005900Y0064931D02*
X0007795Y0064931D01*
X0005900Y0065530D02*
X0012333Y0065530D01*
X0012804Y0066128D02*
X0005900Y0066128D01*
X0005900Y0066727D02*
X0013855Y0066727D01*
X0013855Y0067325D02*
X0005900Y0067325D01*
X0005900Y0067924D02*
X0013855Y0067924D01*
X0013855Y0068522D02*
X0005900Y0068522D01*
X0005900Y0069121D02*
X0013855Y0069121D01*
X0014427Y0069719D02*
X0005900Y0069719D01*
X0005900Y0070318D02*
X0015025Y0070318D01*
X0014712Y0070733D02*
X0014712Y0074001D01*
X0014712Y0074001D01*
X0014712Y0070733D01*
X0014712Y0070916D02*
X0014712Y0070916D01*
X0014712Y0071515D02*
X0014712Y0071515D01*
X0014712Y0072113D02*
X0014712Y0072113D01*
X0014712Y0072712D02*
X0014712Y0072712D01*
X0014712Y0073310D02*
X0014712Y0073310D01*
X0014712Y0073909D02*
X0014712Y0073909D01*
X0014712Y0074001D02*
X0014712Y0077270D01*
X0014712Y0074001D01*
X0014712Y0074001D01*
X0014712Y0074507D02*
X0014712Y0074507D01*
X0014712Y0075106D02*
X0014712Y0075106D01*
X0014712Y0075704D02*
X0014712Y0075704D01*
X0014712Y0076303D02*
X0014712Y0076303D01*
X0014712Y0076901D02*
X0014712Y0076901D01*
X0014712Y0077270D02*
X0014124Y0077270D01*
X0013833Y0077192D01*
X0013755Y0077270D01*
X0012075Y0077270D01*
X0012075Y0077450D01*
X0012347Y0077450D01*
X0013266Y0077831D01*
X0013969Y0078534D01*
X0014293Y0079315D01*
X0014850Y0078758D01*
X0014850Y0078453D01*
X0015230Y0077534D01*
X0015566Y0077198D01*
X0015299Y0077270D01*
X0014712Y0077270D01*
X0015264Y0077500D02*
X0012467Y0077500D01*
X0013534Y0078098D02*
X0014996Y0078098D01*
X0014850Y0078697D02*
X0014037Y0078697D01*
X0014284Y0079295D02*
X0014312Y0079295D01*
X0010853Y0072113D02*
X0005900Y0072113D01*
X0005900Y0071515D02*
X0010950Y0071515D01*
X0011548Y0070916D02*
X0005900Y0070916D01*
X0018476Y0064333D02*
X0044223Y0064333D01*
X0044268Y0063734D02*
X0018431Y0063734D01*
X0018476Y0063136D02*
X0044223Y0063136D01*
X0044223Y0062537D02*
X0041288Y0062537D01*
X0041184Y0062597D02*
X0041524Y0062401D01*
X0041801Y0062124D01*
X0041997Y0061785D01*
X0042098Y0061406D01*
X0042098Y0052250D01*
X0031650Y0052250D01*
X0031650Y0051650D01*
X0042098Y0051650D01*
X0042098Y0042494D01*
X0041997Y0042115D01*
X0041801Y0041776D01*
X0041524Y0041499D01*
X0041184Y0041303D01*
X0040805Y0041201D01*
X0031650Y0041201D01*
X0031650Y0051650D01*
X0031050Y0051650D01*
X0031050Y0041201D01*
X0021894Y0041201D01*
X0021515Y0041303D01*
X0021176Y0041499D01*
X0020898Y0041776D01*
X0020702Y0042115D01*
X0020601Y0042494D01*
X0020601Y0051650D01*
X0031050Y0051650D01*
X0031050Y0052250D01*
X0031050Y0062699D01*
X0021894Y0062699D01*
X0021515Y0062597D01*
X0021176Y0062401D01*
X0020898Y0062124D01*
X0020702Y0061785D01*
X0020601Y0061406D01*
X0020601Y0052250D01*
X0031050Y0052250D01*
X0031650Y0052250D01*
X0031650Y0062699D01*
X0040805Y0062699D01*
X0041184Y0062597D01*
X0041908Y0061939D02*
X0044223Y0061939D01*
X0044223Y0061340D02*
X0042098Y0061340D01*
X0042098Y0060742D02*
X0044223Y0060742D01*
X0044223Y0060143D02*
X0042098Y0060143D01*
X0042098Y0059545D02*
X0044223Y0059545D01*
X0044223Y0058946D02*
X0042098Y0058946D01*
X0042098Y0058348D02*
X0044223Y0058348D01*
X0044223Y0057749D02*
X0042098Y0057749D01*
X0042098Y0057151D02*
X0044223Y0057151D01*
X0044223Y0056552D02*
X0042098Y0056552D01*
X0042098Y0055953D02*
X0044228Y0055953D01*
X0044223Y0055355D02*
X0042098Y0055355D01*
X0042098Y0054756D02*
X0044223Y0054756D01*
X0044223Y0054158D02*
X0042098Y0054158D01*
X0042098Y0053559D02*
X0044223Y0053559D01*
X0044223Y0052961D02*
X0042098Y0052961D01*
X0042098Y0052362D02*
X0044223Y0052362D01*
X0044223Y0051764D02*
X0031650Y0051764D01*
X0031650Y0052362D02*
X0031050Y0052362D01*
X0031050Y0051764D02*
X0018476Y0051764D01*
X0018476Y0052362D02*
X0020601Y0052362D01*
X0020601Y0052961D02*
X0018476Y0052961D01*
X0018476Y0053559D02*
X0020601Y0053559D01*
X0020601Y0054158D02*
X0018476Y0054158D01*
X0018476Y0054756D02*
X0020601Y0054756D01*
X0020601Y0055355D02*
X0018476Y0055355D01*
X0018471Y0055953D02*
X0020601Y0055953D01*
X0020601Y0056552D02*
X0018476Y0056552D01*
X0018476Y0057151D02*
X0020601Y0057151D01*
X0020601Y0057749D02*
X0018476Y0057749D01*
X0018476Y0058348D02*
X0020601Y0058348D01*
X0020601Y0058946D02*
X0018476Y0058946D01*
X0018476Y0059545D02*
X0020601Y0059545D01*
X0020601Y0060143D02*
X0018476Y0060143D01*
X0018476Y0060742D02*
X0020601Y0060742D01*
X0020601Y0061340D02*
X0018476Y0061340D01*
X0018476Y0061939D02*
X0020791Y0061939D01*
X0021411Y0062537D02*
X0018476Y0062537D01*
X0018476Y0051165D02*
X0020601Y0051165D01*
X0020601Y0050567D02*
X0018476Y0050567D01*
X0018418Y0049968D02*
X0020601Y0049968D01*
X0020601Y0049370D02*
X0018476Y0049370D01*
X0018476Y0048771D02*
X0020601Y0048771D01*
X0020601Y0048173D02*
X0018476Y0048173D01*
X0018476Y0047574D02*
X0020601Y0047574D01*
X0020601Y0046976D02*
X0018476Y0046976D01*
X0018476Y0046377D02*
X0020601Y0046377D01*
X0020601Y0045779D02*
X0018415Y0045779D01*
X0018476Y0045180D02*
X0020601Y0045180D01*
X0020601Y0044582D02*
X0018476Y0044582D01*
X0018362Y0043983D02*
X0020601Y0043983D01*
X0020601Y0043385D02*
X0018476Y0043385D01*
X0018476Y0042786D02*
X0020601Y0042786D01*
X0020683Y0042188D02*
X0019804Y0042188D01*
X0020402Y0041589D02*
X0021085Y0041589D01*
X0015405Y0043385D02*
X0015405Y0043385D01*
X0015405Y0043983D02*
X0015405Y0043983D01*
X0015405Y0044582D02*
X0015405Y0044582D01*
X0015405Y0045060D02*
X0012333Y0045060D01*
X0015405Y0045060D01*
X0015405Y0045060D01*
X0012333Y0045180D02*
X0010615Y0045180D01*
X0009665Y0044582D02*
X0012333Y0044582D01*
X0013550Y0024232D02*
X0014150Y0024232D01*
X0014150Y0023634D02*
X0013550Y0023634D01*
X0017900Y0020641D02*
X0018778Y0020641D01*
X0018792Y0020043D02*
X0018831Y0020043D01*
X0019391Y0019444D02*
X0019429Y0019444D01*
X0019685Y0018846D02*
X0023234Y0018846D01*
X0023832Y0018247D02*
X0019850Y0018247D01*
X0019850Y0017649D02*
X0024850Y0017649D01*
X0024850Y0017050D02*
X0019683Y0017050D01*
X0019387Y0016452D02*
X0025057Y0016452D01*
X0025411Y0015853D02*
X0018788Y0015853D01*
X0015679Y0011065D02*
X0022359Y0011065D01*
X0022011Y0010467D02*
X0016310Y0010467D01*
X0016942Y0009868D02*
X0021800Y0009868D01*
X0021800Y0009270D02*
X0017573Y0009270D01*
X0018204Y0008671D02*
X0021912Y0008671D01*
X0022160Y0008073D02*
X0018836Y0008073D01*
X0019467Y0007474D02*
X0022719Y0007474D01*
X0023030Y0011664D02*
X0015047Y0011664D01*
X0014416Y0012262D02*
X0048377Y0012262D01*
X0049018Y0012861D02*
X0013784Y0012861D01*
X0013153Y0013459D02*
X0049659Y0013459D01*
X0048520Y0014058D02*
X0046098Y0014058D01*
X0047011Y0014656D02*
X0047645Y0014656D01*
X0047735Y0011664D02*
X0039669Y0011664D01*
X0040341Y0011065D02*
X0047094Y0011065D01*
X0046453Y0010467D02*
X0040689Y0010467D01*
X0040900Y0009868D02*
X0045812Y0009868D01*
X0045170Y0009270D02*
X0040900Y0009270D01*
X0040787Y0008671D02*
X0044529Y0008671D01*
X0043888Y0008073D02*
X0040539Y0008073D01*
X0039980Y0007474D02*
X0043247Y0007474D01*
X0043601Y0014058D02*
X0012522Y0014058D01*
X0011890Y0014656D02*
X0042689Y0014656D01*
X0042142Y0015255D02*
X0036083Y0015255D01*
X0036788Y0015853D02*
X0041894Y0015853D01*
X0041700Y0016452D02*
X0037142Y0016452D01*
X0037350Y0017050D02*
X0041700Y0017050D01*
X0041730Y0017649D02*
X0037350Y0017649D01*
X0037675Y0018150D02*
X0038345Y0018150D01*
X0038727Y0018252D01*
X0039070Y0018450D01*
X0039349Y0018730D01*
X0039547Y0019073D01*
X0039650Y0019455D01*
X0039650Y0020875D01*
X0037675Y0020875D01*
X0037675Y0018150D01*
X0037675Y0018247D02*
X0037525Y0018247D01*
X0037525Y0018846D02*
X0037675Y0018846D01*
X0037675Y0019444D02*
X0037525Y0019444D01*
X0037525Y0020043D02*
X0037675Y0020043D01*
X0037675Y0020641D02*
X0037525Y0020641D01*
X0039650Y0020641D02*
X0039867Y0020641D01*
X0039867Y0020043D02*
X0039650Y0020043D01*
X0039647Y0019444D02*
X0040069Y0019444D01*
X0040703Y0018846D02*
X0039416Y0018846D01*
X0038708Y0018247D02*
X0041977Y0018247D01*
X0042687Y0021240D02*
X0039650Y0021240D01*
X0039650Y0021838D02*
X0039867Y0021838D01*
X0039867Y0022437D02*
X0039650Y0022437D01*
X0039650Y0023035D02*
X0039903Y0023035D01*
X0039650Y0023634D02*
X0040175Y0023634D01*
X0033617Y0015255D02*
X0032083Y0015255D01*
X0032788Y0015853D02*
X0032911Y0015853D01*
X0029617Y0015255D02*
X0028583Y0015255D01*
X0026117Y0015255D02*
X0011259Y0015255D01*
X0025669Y0011664D02*
X0037030Y0011664D01*
X0036359Y0011065D02*
X0026341Y0011065D01*
X0026689Y0010467D02*
X0036011Y0010467D01*
X0035800Y0009868D02*
X0026900Y0009868D01*
X0026900Y0009270D02*
X0035800Y0009270D01*
X0035912Y0008671D02*
X0026787Y0008671D01*
X0026539Y0008073D02*
X0036160Y0008073D01*
X0036719Y0007474D02*
X0025980Y0007474D01*
X0045937Y0034933D02*
X0045937Y0037363D01*
X0047294Y0037363D01*
X0047294Y0039155D01*
X0047295Y0039155D01*
X0047295Y0037363D01*
X0048300Y0037363D01*
X0048300Y0034933D01*
X0047650Y0034933D01*
X0047650Y0032112D01*
X0047050Y0032112D01*
X0047050Y0034933D01*
X0045937Y0034933D01*
X0045937Y0035006D02*
X0048300Y0035006D01*
X0048300Y0035604D02*
X0045937Y0035604D01*
X0045937Y0036203D02*
X0048300Y0036203D01*
X0048300Y0036801D02*
X0045937Y0036801D01*
X0047294Y0037400D02*
X0047295Y0037400D01*
X0047294Y0037998D02*
X0047295Y0037998D01*
X0047294Y0038597D02*
X0047295Y0038597D01*
X0044263Y0039794D02*
X0041900Y0039794D01*
X0041900Y0039195D02*
X0044223Y0039195D01*
X0044223Y0040392D02*
X0041599Y0040392D01*
X0041001Y0040991D02*
X0044223Y0040991D01*
X0044223Y0041589D02*
X0041614Y0041589D01*
X0042016Y0042188D02*
X0044223Y0042188D01*
X0044223Y0042786D02*
X0042098Y0042786D01*
X0042098Y0043385D02*
X0044223Y0043385D01*
X0044223Y0043983D02*
X0042098Y0043983D01*
X0042098Y0044582D02*
X0044223Y0044582D01*
X0044223Y0045180D02*
X0042098Y0045180D01*
X0042098Y0045779D02*
X0044285Y0045779D01*
X0044267Y0046377D02*
X0042098Y0046377D01*
X0042098Y0046976D02*
X0044223Y0046976D01*
X0044238Y0047574D02*
X0042098Y0047574D01*
X0042098Y0048173D02*
X0044223Y0048173D01*
X0044223Y0048771D02*
X0042098Y0048771D01*
X0042098Y0049370D02*
X0044223Y0049370D01*
X0044282Y0049968D02*
X0042098Y0049968D01*
X0042098Y0050567D02*
X0044223Y0050567D01*
X0044223Y0051165D02*
X0042098Y0051165D01*
X0047294Y0047029D02*
X0047294Y0046852D01*
X0047294Y0045060D01*
X0047295Y0045060D01*
X0047295Y0047029D01*
X0047294Y0047029D01*
X0047294Y0046976D02*
X0047295Y0046976D01*
X0047294Y0046377D02*
X0047295Y0046377D01*
X0047294Y0045779D02*
X0047295Y0045779D01*
X0047294Y0045180D02*
X0047295Y0045180D01*
X0052900Y0043964D02*
X0053469Y0044534D01*
X0053850Y0045453D01*
X0053850Y0046447D01*
X0053848Y0046450D01*
X0054347Y0046450D01*
X0055266Y0046831D01*
X0055969Y0047534D01*
X0056350Y0048453D01*
X0056350Y0049447D01*
X0055969Y0050366D01*
X0055385Y0050950D01*
X0055969Y0051534D01*
X0056350Y0052453D01*
X0056350Y0053447D01*
X0055969Y0054366D01*
X0055385Y0054950D01*
X0055969Y0055534D01*
X0056350Y0056453D01*
X0056350Y0057447D01*
X0055969Y0058366D01*
X0055385Y0058950D01*
X0055969Y0059534D01*
X0056350Y0060453D01*
X0056350Y0061447D01*
X0055969Y0062366D01*
X0055266Y0063069D01*
X0054347Y0063450D01*
X0053352Y0063450D01*
X0053349Y0063449D01*
X0052969Y0064366D01*
X0052266Y0065069D01*
X0051347Y0065450D01*
X0050366Y0065450D01*
X0050366Y0065658D01*
X0049486Y0066537D01*
X0048844Y0066537D01*
X0048844Y0068763D01*
X0049300Y0068308D01*
X0050208Y0067400D01*
X0051864Y0067400D01*
X0052433Y0066831D01*
X0053352Y0066450D01*
X0054347Y0066450D01*
X0055266Y0066831D01*
X0055969Y0067534D01*
X0056350Y0068453D01*
X0056350Y0069447D01*
X0055969Y0070366D01*
X0055266Y0071069D01*
X0054347Y0071450D01*
X0053352Y0071450D01*
X0052433Y0071069D01*
X0051864Y0070500D01*
X0051492Y0070500D01*
X0051208Y0070784D01*
X0052035Y0071612D01*
X0052035Y0072701D01*
X0056800Y0072701D01*
X0056800Y0020124D01*
X0053031Y0016606D01*
X0053031Y0017583D01*
X0052546Y0018752D01*
X0051652Y0019647D01*
X0050833Y0019986D01*
X0050833Y0022741D01*
X0051400Y0023308D01*
X0051400Y0030364D01*
X0051433Y0030331D01*
X0052352Y0029950D01*
X0053347Y0029950D01*
X0054266Y0030331D01*
X0054969Y0031034D01*
X0055350Y0031953D01*
X0055350Y0032947D01*
X0055181Y0033355D01*
X0055921Y0034096D01*
X0055921Y0037686D01*
X0055158Y0038450D01*
X0055921Y0039214D01*
X0055921Y0042804D01*
X0055039Y0043687D01*
X0052900Y0043687D01*
X0052900Y0043964D01*
X0052918Y0043983D02*
X0056800Y0043983D01*
X0056800Y0043385D02*
X0055341Y0043385D01*
X0055921Y0042786D02*
X0056800Y0042786D01*
X0056800Y0042188D02*
X0055921Y0042188D01*
X0055921Y0041589D02*
X0056800Y0041589D01*
X0056800Y0040991D02*
X0055921Y0040991D01*
X0055921Y0040392D02*
X0056800Y0040392D01*
X0056800Y0039794D02*
X0055921Y0039794D01*
X0055903Y0039195D02*
X0056800Y0039195D01*
X0056800Y0038597D02*
X0055304Y0038597D01*
X0055609Y0037998D02*
X0056800Y0037998D01*
X0056800Y0037400D02*
X0055921Y0037400D01*
X0055921Y0036801D02*
X0056800Y0036801D01*
X0056800Y0036203D02*
X0055921Y0036203D01*
X0055921Y0035604D02*
X0056800Y0035604D01*
X0056800Y0035006D02*
X0055921Y0035006D01*
X0055921Y0034407D02*
X0056800Y0034407D01*
X0056800Y0033809D02*
X0055634Y0033809D01*
X0055241Y0033210D02*
X0056800Y0033210D01*
X0056800Y0032612D02*
X0055350Y0032612D01*
X0055350Y0032013D02*
X0056800Y0032013D01*
X0056800Y0031415D02*
X0055127Y0031415D01*
X0054751Y0030816D02*
X0056800Y0030816D01*
X0056800Y0030218D02*
X0053993Y0030218D01*
X0051706Y0030218D02*
X0051400Y0030218D01*
X0051400Y0029619D02*
X0056800Y0029619D01*
X0056800Y0029020D02*
X0051400Y0029020D01*
X0051400Y0028422D02*
X0056800Y0028422D01*
X0056800Y0027823D02*
X0051400Y0027823D01*
X0051400Y0027225D02*
X0056800Y0027225D01*
X0056800Y0026626D02*
X0051400Y0026626D01*
X0051400Y0026028D02*
X0056800Y0026028D01*
X0056800Y0025429D02*
X0051400Y0025429D01*
X0051400Y0024831D02*
X0056800Y0024831D01*
X0056800Y0024232D02*
X0051400Y0024232D01*
X0051400Y0023634D02*
X0056800Y0023634D01*
X0056800Y0023035D02*
X0051127Y0023035D01*
X0050833Y0022437D02*
X0056800Y0022437D01*
X0056800Y0021838D02*
X0050833Y0021838D01*
X0050833Y0021240D02*
X0056800Y0021240D01*
X0056800Y0020641D02*
X0050833Y0020641D01*
X0050833Y0020043D02*
X0056713Y0020043D01*
X0056072Y0019444D02*
X0051854Y0019444D01*
X0052453Y0018846D02*
X0055431Y0018846D01*
X0054789Y0018247D02*
X0052755Y0018247D01*
X0053003Y0017649D02*
X0054148Y0017649D01*
X0053507Y0017050D02*
X0053031Y0017050D01*
X0047650Y0032612D02*
X0047050Y0032612D01*
X0047050Y0033210D02*
X0047650Y0033210D01*
X0047650Y0033809D02*
X0047050Y0033809D01*
X0047050Y0034407D02*
X0047650Y0034407D01*
X0053489Y0044582D02*
X0056800Y0044582D01*
X0056800Y0045180D02*
X0053737Y0045180D01*
X0053850Y0045779D02*
X0056800Y0045779D01*
X0056800Y0046377D02*
X0053850Y0046377D01*
X0055411Y0046976D02*
X0056800Y0046976D01*
X0056800Y0047574D02*
X0055986Y0047574D01*
X0056234Y0048173D02*
X0056800Y0048173D01*
X0056800Y0048771D02*
X0056350Y0048771D01*
X0056350Y0049370D02*
X0056800Y0049370D01*
X0056800Y0049968D02*
X0056134Y0049968D01*
X0055768Y0050567D02*
X0056800Y0050567D01*
X0056800Y0051165D02*
X0055601Y0051165D01*
X0056064Y0051764D02*
X0056800Y0051764D01*
X0056800Y0052362D02*
X0056312Y0052362D01*
X0056350Y0052961D02*
X0056800Y0052961D01*
X0056800Y0053559D02*
X0056303Y0053559D01*
X0056055Y0054158D02*
X0056800Y0054158D01*
X0056800Y0054756D02*
X0055579Y0054756D01*
X0055790Y0055355D02*
X0056800Y0055355D01*
X0056800Y0055953D02*
X0056143Y0055953D01*
X0056350Y0056552D02*
X0056800Y0056552D01*
X0056800Y0057151D02*
X0056350Y0057151D01*
X0056225Y0057749D02*
X0056800Y0057749D01*
X0056800Y0058348D02*
X0055977Y0058348D01*
X0055389Y0058946D02*
X0056800Y0058946D01*
X0056800Y0059545D02*
X0055973Y0059545D01*
X0056221Y0060143D02*
X0056800Y0060143D01*
X0056800Y0060742D02*
X0056350Y0060742D01*
X0056350Y0061340D02*
X0056800Y0061340D01*
X0056800Y0061939D02*
X0056146Y0061939D01*
X0055798Y0062537D02*
X0056800Y0062537D01*
X0056800Y0063136D02*
X0055106Y0063136D01*
X0056800Y0063734D02*
X0053231Y0063734D01*
X0052983Y0064333D02*
X0056800Y0064333D01*
X0056800Y0064931D02*
X0052404Y0064931D01*
X0052684Y0066727D02*
X0048844Y0066727D01*
X0048844Y0067325D02*
X0051939Y0067325D01*
X0050366Y0065530D02*
X0056800Y0065530D01*
X0056800Y0066128D02*
X0049896Y0066128D01*
X0049684Y0067924D02*
X0048844Y0067924D01*
X0048844Y0068522D02*
X0049085Y0068522D01*
X0051340Y0070916D02*
X0052280Y0070916D01*
X0051938Y0071515D02*
X0056800Y0071515D01*
X0056800Y0072113D02*
X0052035Y0072113D01*
X0055419Y0070916D02*
X0056800Y0070916D01*
X0056800Y0070318D02*
X0055989Y0070318D01*
X0056237Y0069719D02*
X0056800Y0069719D01*
X0056800Y0069121D02*
X0056350Y0069121D01*
X0056350Y0068522D02*
X0056800Y0068522D01*
X0056800Y0067924D02*
X0056130Y0067924D01*
X0055760Y0067325D02*
X0056800Y0067325D01*
X0056800Y0066727D02*
X0055015Y0066727D01*
X0050813Y0077270D02*
X0049205Y0077270D01*
X0049469Y0077534D01*
X0049850Y0078453D01*
X0049850Y0079447D01*
X0049494Y0080305D01*
X0050352Y0079950D01*
X0051347Y0079950D01*
X0052266Y0080331D01*
X0052969Y0081034D01*
X0053350Y0081953D01*
X0053350Y0082947D01*
X0052969Y0083866D01*
X0052717Y0084119D01*
X0056800Y0084119D01*
X0056800Y0079238D01*
X0051690Y0079238D01*
X0050813Y0078361D01*
X0050813Y0077270D01*
X0050813Y0077500D02*
X0049435Y0077500D01*
X0049703Y0078098D02*
X0050813Y0078098D01*
X0051149Y0078697D02*
X0049850Y0078697D01*
X0049850Y0079295D02*
X0056800Y0079295D01*
X0056800Y0079894D02*
X0049665Y0079894D01*
X0052428Y0080492D02*
X0056800Y0080492D01*
X0056800Y0081091D02*
X0052993Y0081091D01*
X0053241Y0081689D02*
X0056800Y0081689D01*
X0056800Y0082288D02*
X0053350Y0082288D01*
X0053350Y0082887D02*
X0056800Y0082887D01*
X0056800Y0083485D02*
X0053127Y0083485D01*
X0052752Y0084084D02*
X0056800Y0084084D01*
X0031650Y0062537D02*
X0031050Y0062537D01*
X0031050Y0061939D02*
X0031650Y0061939D01*
X0031650Y0061340D02*
X0031050Y0061340D01*
X0031050Y0060742D02*
X0031650Y0060742D01*
X0031650Y0060143D02*
X0031050Y0060143D01*
X0031050Y0059545D02*
X0031650Y0059545D01*
X0031650Y0058946D02*
X0031050Y0058946D01*
X0031050Y0058348D02*
X0031650Y0058348D01*
X0031650Y0057749D02*
X0031050Y0057749D01*
X0031050Y0057151D02*
X0031650Y0057151D01*
X0031650Y0056552D02*
X0031050Y0056552D01*
X0031050Y0055953D02*
X0031650Y0055953D01*
X0031650Y0055355D02*
X0031050Y0055355D01*
X0031050Y0054756D02*
X0031650Y0054756D01*
X0031650Y0054158D02*
X0031050Y0054158D01*
X0031050Y0053559D02*
X0031650Y0053559D01*
X0031650Y0052961D02*
X0031050Y0052961D01*
X0031050Y0051165D02*
X0031650Y0051165D01*
X0031650Y0050567D02*
X0031050Y0050567D01*
X0031050Y0049968D02*
X0031650Y0049968D01*
X0031650Y0049370D02*
X0031050Y0049370D01*
X0031050Y0048771D02*
X0031650Y0048771D01*
X0031650Y0048173D02*
X0031050Y0048173D01*
X0031050Y0047574D02*
X0031650Y0047574D01*
X0031650Y0046976D02*
X0031050Y0046976D01*
X0031050Y0046377D02*
X0031650Y0046377D01*
X0031650Y0045779D02*
X0031050Y0045779D01*
X0031050Y0045180D02*
X0031650Y0045180D01*
X0031650Y0044582D02*
X0031050Y0044582D01*
X0031050Y0043983D02*
X0031650Y0043983D01*
X0031650Y0043385D02*
X0031050Y0043385D01*
X0031050Y0042786D02*
X0031650Y0042786D01*
X0031650Y0042188D02*
X0031050Y0042188D01*
X0031050Y0041589D02*
X0031650Y0041589D01*
M02*
